<mxfile host="Electron" agent="Mozilla/5.0 (Windows NT 10.0; Win64; x64) AppleWebKit/537.36 (KHTML, like Gecko) draw.io/24.7.17 Chrome/128.0.6613.36 Electron/32.0.1 Safari/537.36" version="24.7.17" pages="3">
  <diagram name="Page-1" id="t9EPjvW1WNlKtHYx8aWN">
    <mxGraphModel dx="4119" dy="2925" grid="1" gridSize="10" guides="1" tooltips="1" connect="1" arrows="1" fold="1" page="1" pageScale="1" pageWidth="827" pageHeight="1169" math="0" shadow="0">
      <root>
        <mxCell id="0" />
        <mxCell id="1" parent="0" />
        <mxCell id="WhQIEV8DTXagVZ_C8BNq-39" value="" style="rounded=0;whiteSpace=wrap;html=1;fontSize=22;" parent="1" vertex="1">
          <mxGeometry x="250" y="770" width="180" height="80" as="geometry" />
        </mxCell>
        <mxCell id="WhQIEV8DTXagVZ_C8BNq-2" value="Sucursal" style="rounded=0;whiteSpace=wrap;html=1;fontSize=22;" parent="1" vertex="1">
          <mxGeometry x="40" y="340" width="120" height="60" as="geometry" />
        </mxCell>
        <mxCell id="WhQIEV8DTXagVZ_C8BNq-49" value="" style="edgeStyle=orthogonalEdgeStyle;rounded=0;orthogonalLoop=1;jettySize=auto;html=1;" parent="1" source="WhQIEV8DTXagVZ_C8BNq-3" target="WhQIEV8DTXagVZ_C8BNq-48" edge="1">
          <mxGeometry relative="1" as="geometry" />
        </mxCell>
        <mxCell id="WhQIEV8DTXagVZ_C8BNq-51" value="1" style="edgeLabel;html=1;align=center;verticalAlign=middle;resizable=0;points=[];" parent="WhQIEV8DTXagVZ_C8BNq-49" vertex="1" connectable="0">
          <mxGeometry x="-0.1251" y="-1" relative="1" as="geometry">
            <mxPoint as="offset" />
          </mxGeometry>
        </mxCell>
        <mxCell id="PhvlHz6Z7p7-dMvGPFl0-31" value="" style="rounded=0;orthogonalLoop=1;jettySize=auto;html=1;" parent="1" source="WhQIEV8DTXagVZ_C8BNq-3" target="PhvlHz6Z7p7-dMvGPFl0-30" edge="1">
          <mxGeometry relative="1" as="geometry" />
        </mxCell>
        <mxCell id="PhvlHz6Z7p7-dMvGPFl0-43" value="N" style="edgeLabel;html=1;align=center;verticalAlign=middle;resizable=0;points=[];" parent="PhvlHz6Z7p7-dMvGPFl0-31" vertex="1" connectable="0">
          <mxGeometry x="-0.2289" y="1" relative="1" as="geometry">
            <mxPoint as="offset" />
          </mxGeometry>
        </mxCell>
        <mxCell id="PhvlHz6Z7p7-dMvGPFl0-38" value="" style="rounded=0;orthogonalLoop=1;jettySize=auto;html=1;" parent="1" source="WhQIEV8DTXagVZ_C8BNq-3" target="PhvlHz6Z7p7-dMvGPFl0-36" edge="1">
          <mxGeometry relative="1" as="geometry" />
        </mxCell>
        <mxCell id="PhvlHz6Z7p7-dMvGPFl0-45" value="N" style="edgeLabel;html=1;align=center;verticalAlign=middle;resizable=0;points=[];" parent="PhvlHz6Z7p7-dMvGPFl0-38" vertex="1" connectable="0">
          <mxGeometry x="-0.3918" relative="1" as="geometry">
            <mxPoint as="offset" />
          </mxGeometry>
        </mxCell>
        <mxCell id="WhQIEV8DTXagVZ_C8BNq-3" value="Empleado" style="rounded=0;whiteSpace=wrap;html=1;fontSize=22;" parent="1" vertex="1">
          <mxGeometry x="280" y="340" width="120" height="60" as="geometry" />
        </mxCell>
        <mxCell id="WhQIEV8DTXagVZ_C8BNq-8" style="edgeStyle=orthogonalEdgeStyle;rounded=0;orthogonalLoop=1;jettySize=auto;html=1;entryX=0;entryY=0.5;entryDx=0;entryDy=0;endArrow=none;endFill=0;" parent="1" source="WhQIEV8DTXagVZ_C8BNq-5" target="WhQIEV8DTXagVZ_C8BNq-3" edge="1">
          <mxGeometry relative="1" as="geometry" />
        </mxCell>
        <mxCell id="WhQIEV8DTXagVZ_C8BNq-9" value="N" style="edgeLabel;html=1;align=center;verticalAlign=middle;resizable=0;points=[];" parent="WhQIEV8DTXagVZ_C8BNq-8" vertex="1" connectable="0">
          <mxGeometry x="0.4333" y="1" relative="1" as="geometry">
            <mxPoint as="offset" />
          </mxGeometry>
        </mxCell>
        <mxCell id="WhQIEV8DTXagVZ_C8BNq-5" value="tiene" style="rhombus;whiteSpace=wrap;html=1;" parent="1" vertex="1">
          <mxGeometry x="200" y="347.5" width="40" height="45" as="geometry" />
        </mxCell>
        <mxCell id="WhQIEV8DTXagVZ_C8BNq-7" style="edgeStyle=orthogonalEdgeStyle;rounded=0;orthogonalLoop=1;jettySize=auto;html=1;entryX=-0.05;entryY=0.507;entryDx=0;entryDy=0;entryPerimeter=0;endArrow=none;endFill=0;" parent="1" source="WhQIEV8DTXagVZ_C8BNq-2" target="WhQIEV8DTXagVZ_C8BNq-5" edge="1">
          <mxGeometry relative="1" as="geometry" />
        </mxCell>
        <mxCell id="WhQIEV8DTXagVZ_C8BNq-10" value="1" style="edgeLabel;html=1;align=center;verticalAlign=middle;resizable=0;points=[];" parent="WhQIEV8DTXagVZ_C8BNq-7" vertex="1" connectable="0">
          <mxGeometry x="-0.4778" y="1" relative="1" as="geometry">
            <mxPoint as="offset" />
          </mxGeometry>
        </mxCell>
        <mxCell id="WhQIEV8DTXagVZ_C8BNq-27" style="rounded=0;orthogonalLoop=1;jettySize=auto;html=1;entryX=0.75;entryY=0;entryDx=0;entryDy=0;exitX=0;exitY=0.5;exitDx=0;exitDy=0;exitPerimeter=0;" parent="1" source="WhQIEV8DTXagVZ_C8BNq-25" target="WhQIEV8DTXagVZ_C8BNq-3" edge="1">
          <mxGeometry relative="1" as="geometry" />
        </mxCell>
        <mxCell id="WhQIEV8DTXagVZ_C8BNq-25" value="&lt;u&gt;Legajo&lt;/u&gt;&lt;div&gt;Nombre&lt;/div&gt;&lt;div&gt;Apellido&lt;/div&gt;&lt;div&gt;DNI&lt;/div&gt;&lt;div&gt;&lt;i&gt;CUIL&lt;/i&gt;&lt;/div&gt;&lt;div&gt;Email Personal&lt;/div&gt;&lt;div&gt;Email empresa&lt;/div&gt;&lt;div&gt;&lt;b style=&quot;background-color: initial;&quot;&gt;IDTurno&lt;/b&gt;&lt;br&gt;&lt;/div&gt;&lt;div&gt;&lt;b&gt;IDDireccion&lt;/b&gt;&lt;/div&gt;&lt;div&gt;&lt;b&gt;IDCargo&lt;/b&gt;&lt;/div&gt;&lt;div&gt;&lt;b&gt;IDSucursal&lt;/b&gt;&lt;/div&gt;" style="shape=note;whiteSpace=wrap;html=1;backgroundOutline=1;darkOpacity=0.05;" parent="1" vertex="1">
          <mxGeometry x="420" y="90" width="140" height="190" as="geometry" />
        </mxCell>
        <mxCell id="WhQIEV8DTXagVZ_C8BNq-28" value="MedioDePago" style="rounded=0;whiteSpace=wrap;html=1;fontSize=22;" parent="1" vertex="1">
          <mxGeometry x="610" y="560" width="160" height="60" as="geometry" />
        </mxCell>
        <mxCell id="WhQIEV8DTXagVZ_C8BNq-32" style="edgeStyle=orthogonalEdgeStyle;rounded=0;orthogonalLoop=1;jettySize=auto;html=1;entryX=0.5;entryY=1;entryDx=0;entryDy=0;" parent="1" source="WhQIEV8DTXagVZ_C8BNq-31" target="WhQIEV8DTXagVZ_C8BNq-28" edge="1">
          <mxGeometry relative="1" as="geometry" />
        </mxCell>
        <mxCell id="WhQIEV8DTXagVZ_C8BNq-31" value="&lt;u&gt;IDMedioDePago&lt;/u&gt;&lt;div&gt;Descripcion&lt;/div&gt;" style="shape=note;whiteSpace=wrap;html=1;backgroundOutline=1;darkOpacity=0.05;" parent="1" vertex="1">
          <mxGeometry x="630" y="675.93" width="90" height="120" as="geometry" />
        </mxCell>
        <mxCell id="WhQIEV8DTXagVZ_C8BNq-33" value="CreditCard&lt;div&gt;Cash&lt;/div&gt;&lt;div&gt;Ewallt&lt;/div&gt;" style="shape=card;whiteSpace=wrap;html=1;" parent="1" vertex="1">
          <mxGeometry x="770" y="680" width="80" height="100" as="geometry" />
        </mxCell>
        <mxCell id="WhQIEV8DTXagVZ_C8BNq-34" style="edgeStyle=orthogonalEdgeStyle;rounded=0;orthogonalLoop=1;jettySize=auto;html=1;entryX=0;entryY=0;entryDx=90;entryDy=75;entryPerimeter=0;" parent="1" source="WhQIEV8DTXagVZ_C8BNq-33" target="WhQIEV8DTXagVZ_C8BNq-31" edge="1">
          <mxGeometry relative="1" as="geometry">
            <mxPoint x="740" y="750" as="targetPoint" />
          </mxGeometry>
        </mxCell>
        <mxCell id="WhQIEV8DTXagVZ_C8BNq-35" value="SanJusto&lt;div&gt;RamosMejia&lt;/div&gt;&lt;div&gt;LomasDelMirad&lt;/div&gt;" style="shape=card;whiteSpace=wrap;html=1;" parent="1" vertex="1">
          <mxGeometry x="-340" y="270" width="100" height="120" as="geometry" />
        </mxCell>
        <mxCell id="WhQIEV8DTXagVZ_C8BNq-41" style="edgeStyle=orthogonalEdgeStyle;rounded=0;orthogonalLoop=1;jettySize=auto;html=1;entryX=0.5;entryY=0;entryDx=0;entryDy=0;" parent="1" source="WhQIEV8DTXagVZ_C8BNq-37" target="WhQIEV8DTXagVZ_C8BNq-40" edge="1">
          <mxGeometry relative="1" as="geometry" />
        </mxCell>
        <mxCell id="WhQIEV8DTXagVZ_C8BNq-44" value="1" style="edgeLabel;html=1;align=center;verticalAlign=middle;resizable=0;points=[];" parent="WhQIEV8DTXagVZ_C8BNq-41" vertex="1" connectable="0">
          <mxGeometry x="-0.2103" y="-1" relative="1" as="geometry">
            <mxPoint as="offset" />
          </mxGeometry>
        </mxCell>
        <mxCell id="WhQIEV8DTXagVZ_C8BNq-37" value="Factura" style="rounded=0;whiteSpace=wrap;html=1;fontSize=22;" parent="1" vertex="1">
          <mxGeometry x="260" y="560" width="160" height="60" as="geometry" />
        </mxCell>
        <mxCell id="WhQIEV8DTXagVZ_C8BNq-38" value="DetalleFactura" style="rounded=0;whiteSpace=wrap;html=1;fontSize=22;" parent="1" vertex="1">
          <mxGeometry x="260" y="780" width="160" height="60" as="geometry" />
        </mxCell>
        <mxCell id="WhQIEV8DTXagVZ_C8BNq-42" style="edgeStyle=orthogonalEdgeStyle;rounded=0;orthogonalLoop=1;jettySize=auto;html=1;entryX=0.5;entryY=0;entryDx=0;entryDy=0;" parent="1" source="WhQIEV8DTXagVZ_C8BNq-40" target="WhQIEV8DTXagVZ_C8BNq-39" edge="1">
          <mxGeometry relative="1" as="geometry" />
        </mxCell>
        <mxCell id="WhQIEV8DTXagVZ_C8BNq-43" value="N" style="edgeLabel;html=1;align=center;verticalAlign=middle;resizable=0;points=[];" parent="WhQIEV8DTXagVZ_C8BNq-42" vertex="1" connectable="0">
          <mxGeometry x="-0.3843" y="-1" relative="1" as="geometry">
            <mxPoint as="offset" />
          </mxGeometry>
        </mxCell>
        <mxCell id="WhQIEV8DTXagVZ_C8BNq-40" value="tiene" style="rhombus;whiteSpace=wrap;html=1;" parent="1" vertex="1">
          <mxGeometry x="320" y="670" width="40" height="45" as="geometry" />
        </mxCell>
        <mxCell id="WhQIEV8DTXagVZ_C8BNq-46" value="" style="edgeStyle=orthogonalEdgeStyle;rounded=0;orthogonalLoop=1;jettySize=auto;html=1;" parent="1" source="WhQIEV8DTXagVZ_C8BNq-45" target="WhQIEV8DTXagVZ_C8BNq-37" edge="1">
          <mxGeometry relative="1" as="geometry" />
        </mxCell>
        <mxCell id="KroSSUwPJyKsnDRUDDY--6" value="N" style="edgeLabel;html=1;align=center;verticalAlign=middle;resizable=0;points=[];" parent="WhQIEV8DTXagVZ_C8BNq-46" vertex="1" connectable="0">
          <mxGeometry x="0.1004" y="-2" relative="1" as="geometry">
            <mxPoint as="offset" />
          </mxGeometry>
        </mxCell>
        <mxCell id="WhQIEV8DTXagVZ_C8BNq-47" value="" style="edgeStyle=orthogonalEdgeStyle;rounded=0;orthogonalLoop=1;jettySize=auto;html=1;" parent="1" source="WhQIEV8DTXagVZ_C8BNq-45" target="WhQIEV8DTXagVZ_C8BNq-28" edge="1">
          <mxGeometry relative="1" as="geometry" />
        </mxCell>
        <mxCell id="KroSSUwPJyKsnDRUDDY--5" value="1" style="edgeLabel;html=1;align=center;verticalAlign=middle;resizable=0;points=[];" parent="WhQIEV8DTXagVZ_C8BNq-47" vertex="1" connectable="0">
          <mxGeometry x="0.1004" relative="1" as="geometry">
            <mxPoint as="offset" />
          </mxGeometry>
        </mxCell>
        <mxCell id="WhQIEV8DTXagVZ_C8BNq-45" value="pagado&lt;div&gt;en&lt;/div&gt;" style="rhombus;whiteSpace=wrap;html=1;" parent="1" vertex="1">
          <mxGeometry x="480" y="553.75" width="70" height="72.5" as="geometry" />
        </mxCell>
        <mxCell id="WhQIEV8DTXagVZ_C8BNq-50" value="" style="edgeStyle=orthogonalEdgeStyle;rounded=0;orthogonalLoop=1;jettySize=auto;html=1;" parent="1" source="WhQIEV8DTXagVZ_C8BNq-48" target="WhQIEV8DTXagVZ_C8BNq-37" edge="1">
          <mxGeometry relative="1" as="geometry" />
        </mxCell>
        <mxCell id="WhQIEV8DTXagVZ_C8BNq-52" value="N" style="edgeLabel;html=1;align=center;verticalAlign=middle;resizable=0;points=[];" parent="WhQIEV8DTXagVZ_C8BNq-50" vertex="1" connectable="0">
          <mxGeometry x="-0.2363" relative="1" as="geometry">
            <mxPoint as="offset" />
          </mxGeometry>
        </mxCell>
        <mxCell id="WhQIEV8DTXagVZ_C8BNq-48" value="realiza" style="rhombus;whiteSpace=wrap;html=1;" parent="1" vertex="1">
          <mxGeometry x="320" y="450" width="40" height="45" as="geometry" />
        </mxCell>
        <mxCell id="WhQIEV8DTXagVZ_C8BNq-59" value="" style="edgeStyle=orthogonalEdgeStyle;rounded=0;orthogonalLoop=1;jettySize=auto;html=1;" parent="1" source="WhQIEV8DTXagVZ_C8BNq-55" target="WhQIEV8DTXagVZ_C8BNq-57" edge="1">
          <mxGeometry relative="1" as="geometry" />
        </mxCell>
        <mxCell id="WhQIEV8DTXagVZ_C8BNq-61" value="1" style="edgeLabel;html=1;align=center;verticalAlign=middle;resizable=0;points=[];" parent="WhQIEV8DTXagVZ_C8BNq-59" vertex="1" connectable="0">
          <mxGeometry x="-0.2345" y="-1" relative="1" as="geometry">
            <mxPoint as="offset" />
          </mxGeometry>
        </mxCell>
        <mxCell id="Hu8v8N1mIR_zKJdXmR1f-14" value="" style="edgeStyle=orthogonalEdgeStyle;rounded=0;orthogonalLoop=1;jettySize=auto;html=1;" parent="1" source="WhQIEV8DTXagVZ_C8BNq-55" target="Hu8v8N1mIR_zKJdXmR1f-13" edge="1">
          <mxGeometry relative="1" as="geometry" />
        </mxCell>
        <mxCell id="Hu8v8N1mIR_zKJdXmR1f-17" value="N" style="edgeLabel;html=1;align=center;verticalAlign=middle;resizable=0;points=[];" parent="Hu8v8N1mIR_zKJdXmR1f-14" vertex="1" connectable="0">
          <mxGeometry x="-0.2538" y="-2" relative="1" as="geometry">
            <mxPoint as="offset" />
          </mxGeometry>
        </mxCell>
        <mxCell id="WhQIEV8DTXagVZ_C8BNq-55" value="Producto" style="rounded=0;whiteSpace=wrap;html=1;fontSize=22;" parent="1" vertex="1">
          <mxGeometry x="-100" y="780" width="160" height="60" as="geometry" />
        </mxCell>
        <mxCell id="WhQIEV8DTXagVZ_C8BNq-62" style="edgeStyle=orthogonalEdgeStyle;rounded=0;orthogonalLoop=1;jettySize=auto;html=1;entryX=0;entryY=0.5;entryDx=0;entryDy=0;" parent="1" source="WhQIEV8DTXagVZ_C8BNq-57" target="WhQIEV8DTXagVZ_C8BNq-39" edge="1">
          <mxGeometry relative="1" as="geometry" />
        </mxCell>
        <mxCell id="WhQIEV8DTXagVZ_C8BNq-63" value="N" style="edgeLabel;html=1;align=center;verticalAlign=middle;resizable=0;points=[];" parent="WhQIEV8DTXagVZ_C8BNq-62" vertex="1" connectable="0">
          <mxGeometry x="-0.0951" relative="1" as="geometry">
            <mxPoint as="offset" />
          </mxGeometry>
        </mxCell>
        <mxCell id="WhQIEV8DTXagVZ_C8BNq-57" value="incluido&lt;div&gt;en&lt;/div&gt;" style="rhombus;whiteSpace=wrap;html=1;" parent="1" vertex="1">
          <mxGeometry x="120" y="771.87" width="70" height="76.25" as="geometry" />
        </mxCell>
        <mxCell id="WhQIEV8DTXagVZ_C8BNq-66" style="edgeStyle=orthogonalEdgeStyle;rounded=0;orthogonalLoop=1;jettySize=auto;html=1;entryX=0;entryY=0.5;entryDx=0;entryDy=0;" parent="1" source="WhQIEV8DTXagVZ_C8BNq-64" target="WhQIEV8DTXagVZ_C8BNq-37" edge="1">
          <mxGeometry relative="1" as="geometry" />
        </mxCell>
        <mxCell id="WhQIEV8DTXagVZ_C8BNq-64" value="&lt;u&gt;IDFactura&lt;/u&gt;&lt;div&gt;TipoFactura(A,B,C)&lt;/div&gt;&lt;div&gt;TipoCliente&lt;/div&gt;&lt;div&gt;Genero&lt;/div&gt;&lt;div&gt;FechaHora&lt;/div&gt;&lt;div&gt;&lt;b&gt;MedioDePagoID&lt;/b&gt;&lt;/div&gt;&lt;div&gt;&lt;b&gt;EmpleadoLegajo&lt;/b&gt;&lt;/div&gt;&lt;div&gt;IdentificadorDePago&lt;/div&gt;&lt;div&gt;&lt;b&gt;IDEmpleado&lt;/b&gt;&lt;/div&gt;" style="shape=note;whiteSpace=wrap;html=1;backgroundOutline=1;darkOpacity=0.05;" parent="1" vertex="1">
          <mxGeometry x="75" y="497.5" width="125" height="185" as="geometry" />
        </mxCell>
        <mxCell id="WhQIEV8DTXagVZ_C8BNq-68" value="" style="edgeStyle=orthogonalEdgeStyle;rounded=0;orthogonalLoop=1;jettySize=auto;html=1;entryX=0.5;entryY=1;entryDx=0;entryDy=0;" parent="1" source="WhQIEV8DTXagVZ_C8BNq-65" target="WhQIEV8DTXagVZ_C8BNq-39" edge="1">
          <mxGeometry relative="1" as="geometry">
            <mxPoint x="340" y="850" as="targetPoint" />
          </mxGeometry>
        </mxCell>
        <mxCell id="WhQIEV8DTXagVZ_C8BNq-65" value="&lt;u&gt;IDDetalle&lt;/u&gt;&lt;div&gt;&lt;u&gt;&lt;b&gt;IDFactura&lt;/b&gt;&lt;/u&gt;&lt;u&gt;&lt;br&gt;&lt;/u&gt;&lt;div&gt;&lt;b&gt;IDProducto&lt;/b&gt;&lt;/div&gt;&lt;/div&gt;&lt;div&gt;Precio Unitario&lt;/div&gt;&lt;div&gt;Cantidad&lt;/div&gt;" style="shape=note;whiteSpace=wrap;html=1;backgroundOutline=1;darkOpacity=0.05;" parent="1" vertex="1">
          <mxGeometry x="280" y="890" width="120" height="140" as="geometry" />
        </mxCell>
        <mxCell id="PhvlHz6Z7p7-dMvGPFl0-10" style="rounded=0;orthogonalLoop=1;jettySize=auto;html=1;entryX=0.5;entryY=0;entryDx=0;entryDy=0;" parent="1" source="PhvlHz6Z7p7-dMvGPFl0-1" target="PhvlHz6Z7p7-dMvGPFl0-9" edge="1">
          <mxGeometry relative="1" as="geometry" />
        </mxCell>
        <mxCell id="PhvlHz6Z7p7-dMvGPFl0-16" value="1" style="edgeLabel;html=1;align=center;verticalAlign=middle;resizable=0;points=[];" parent="PhvlHz6Z7p7-dMvGPFl0-10" vertex="1" connectable="0">
          <mxGeometry x="-0.3242" y="2" relative="1" as="geometry">
            <mxPoint as="offset" />
          </mxGeometry>
        </mxCell>
        <mxCell id="PhvlHz6Z7p7-dMvGPFl0-12" style="rounded=0;orthogonalLoop=1;jettySize=auto;html=1;entryX=0.5;entryY=0;entryDx=0;entryDy=0;exitX=0.25;exitY=1;exitDx=0;exitDy=0;" parent="1" source="PhvlHz6Z7p7-dMvGPFl0-1" target="PhvlHz6Z7p7-dMvGPFl0-8" edge="1">
          <mxGeometry relative="1" as="geometry" />
        </mxCell>
        <mxCell id="PhvlHz6Z7p7-dMvGPFl0-15" value="1" style="edgeLabel;html=1;align=center;verticalAlign=middle;resizable=0;points=[];" parent="PhvlHz6Z7p7-dMvGPFl0-12" vertex="1" connectable="0">
          <mxGeometry x="-0.1698" y="-1" relative="1" as="geometry">
            <mxPoint as="offset" />
          </mxGeometry>
        </mxCell>
        <mxCell id="PhvlHz6Z7p7-dMvGPFl0-1" value="Direccion" style="rounded=0;whiteSpace=wrap;html=1;fontSize=22;" parent="1" vertex="1">
          <mxGeometry x="210" y="92.5" width="120" height="60" as="geometry" />
        </mxCell>
        <mxCell id="PhvlHz6Z7p7-dMvGPFl0-13" style="rounded=0;orthogonalLoop=1;jettySize=auto;html=1;entryX=0.882;entryY=0.02;entryDx=0;entryDy=0;entryPerimeter=0;exitX=0.5;exitY=1;exitDx=0;exitDy=0;" parent="1" source="PhvlHz6Z7p7-dMvGPFl0-8" target="WhQIEV8DTXagVZ_C8BNq-2" edge="1">
          <mxGeometry relative="1" as="geometry" />
        </mxCell>
        <mxCell id="PhvlHz6Z7p7-dMvGPFl0-14" value="1" style="edgeLabel;html=1;align=center;verticalAlign=middle;resizable=0;points=[];" parent="PhvlHz6Z7p7-dMvGPFl0-13" vertex="1" connectable="0">
          <mxGeometry x="0.078" y="1" relative="1" as="geometry">
            <mxPoint as="offset" />
          </mxGeometry>
        </mxCell>
        <mxCell id="PhvlHz6Z7p7-dMvGPFl0-8" value="pertenece&lt;div&gt;a&lt;/div&gt;" style="rhombus;whiteSpace=wrap;html=1;" parent="1" vertex="1">
          <mxGeometry x="150" y="200" width="80" height="70" as="geometry" />
        </mxCell>
        <mxCell id="PhvlHz6Z7p7-dMvGPFl0-11" style="rounded=0;orthogonalLoop=1;jettySize=auto;html=1;entryX=0.5;entryY=0;entryDx=0;entryDy=0;" parent="1" source="PhvlHz6Z7p7-dMvGPFl0-9" target="WhQIEV8DTXagVZ_C8BNq-3" edge="1">
          <mxGeometry relative="1" as="geometry" />
        </mxCell>
        <mxCell id="PhvlHz6Z7p7-dMvGPFl0-17" value="N" style="edgeLabel;html=1;align=center;verticalAlign=middle;resizable=0;points=[];" parent="PhvlHz6Z7p7-dMvGPFl0-11" vertex="1" connectable="0">
          <mxGeometry x="-0.1102" y="1" relative="1" as="geometry">
            <mxPoint as="offset" />
          </mxGeometry>
        </mxCell>
        <mxCell id="PhvlHz6Z7p7-dMvGPFl0-9" value="vive" style="rhombus;whiteSpace=wrap;html=1;" parent="1" vertex="1">
          <mxGeometry x="310" y="212.5" width="40" height="45" as="geometry" />
        </mxCell>
        <mxCell id="PhvlHz6Z7p7-dMvGPFl0-19" style="edgeStyle=orthogonalEdgeStyle;rounded=0;orthogonalLoop=1;jettySize=auto;html=1;entryX=0.5;entryY=0;entryDx=0;entryDy=0;" parent="1" source="PhvlHz6Z7p7-dMvGPFl0-18" target="PhvlHz6Z7p7-dMvGPFl0-1" edge="1">
          <mxGeometry relative="1" as="geometry" />
        </mxCell>
        <mxCell id="PhvlHz6Z7p7-dMvGPFl0-18" value="&lt;u&gt;IDDireccion&lt;/u&gt;&lt;div&gt;Calle&lt;/div&gt;&lt;div&gt;Numero&lt;/div&gt;&lt;div&gt;Direccion&lt;/div&gt;&lt;div&gt;Depto&lt;/div&gt;&lt;div&gt;Piso&lt;/div&gt;&lt;div&gt;Codigo Postal&lt;/div&gt;&lt;div&gt;&lt;span style=&quot;background-color: initial;&quot;&gt;Localidad&lt;/span&gt;&lt;br&gt;&lt;/div&gt;" style="shape=note;whiteSpace=wrap;html=1;backgroundOutline=1;darkOpacity=0.05;" parent="1" vertex="1">
          <mxGeometry x="205" y="-100" width="130" height="140" as="geometry" />
        </mxCell>
        <mxCell id="PhvlHz6Z7p7-dMvGPFl0-29" value="Cargo" style="rounded=0;whiteSpace=wrap;html=1;fontSize=22;" parent="1" vertex="1">
          <mxGeometry x="540" y="300" width="120" height="60" as="geometry" />
        </mxCell>
        <mxCell id="PhvlHz6Z7p7-dMvGPFl0-32" value="" style="rounded=0;orthogonalLoop=1;jettySize=auto;html=1;" parent="1" source="PhvlHz6Z7p7-dMvGPFl0-30" target="PhvlHz6Z7p7-dMvGPFl0-29" edge="1">
          <mxGeometry relative="1" as="geometry" />
        </mxCell>
        <mxCell id="PhvlHz6Z7p7-dMvGPFl0-42" value="1" style="edgeLabel;html=1;align=center;verticalAlign=middle;resizable=0;points=[];" parent="PhvlHz6Z7p7-dMvGPFl0-32" vertex="1" connectable="0">
          <mxGeometry x="-0.1521" relative="1" as="geometry">
            <mxPoint as="offset" />
          </mxGeometry>
        </mxCell>
        <mxCell id="PhvlHz6Z7p7-dMvGPFl0-30" value="tiene" style="rhombus;whiteSpace=wrap;html=1;" parent="1" vertex="1">
          <mxGeometry x="450" y="317.5" width="40" height="45" as="geometry" />
        </mxCell>
        <mxCell id="PhvlHz6Z7p7-dMvGPFl0-33" value="Cajero&lt;div&gt;Supervisor&lt;/div&gt;&lt;div&gt;GerenteSucursal&lt;/div&gt;" style="shape=card;whiteSpace=wrap;html=1;" parent="1" vertex="1">
          <mxGeometry x="670" y="15.629999999999999" width="100" height="120" as="geometry" />
        </mxCell>
        <mxCell id="PhvlHz6Z7p7-dMvGPFl0-35" value="Turno" style="rounded=0;whiteSpace=wrap;html=1;fontSize=22;" parent="1" vertex="1">
          <mxGeometry x="540" y="400" width="120" height="60" as="geometry" />
        </mxCell>
        <mxCell id="PhvlHz6Z7p7-dMvGPFl0-39" value="" style="rounded=0;orthogonalLoop=1;jettySize=auto;html=1;" parent="1" source="PhvlHz6Z7p7-dMvGPFl0-36" target="PhvlHz6Z7p7-dMvGPFl0-35" edge="1">
          <mxGeometry relative="1" as="geometry" />
        </mxCell>
        <mxCell id="PhvlHz6Z7p7-dMvGPFl0-44" value="1" style="edgeLabel;html=1;align=center;verticalAlign=middle;resizable=0;points=[];" parent="PhvlHz6Z7p7-dMvGPFl0-39" vertex="1" connectable="0">
          <mxGeometry x="-0.2703" relative="1" as="geometry">
            <mxPoint as="offset" />
          </mxGeometry>
        </mxCell>
        <mxCell id="PhvlHz6Z7p7-dMvGPFl0-36" value="tiene" style="rhombus;whiteSpace=wrap;html=1;" parent="1" vertex="1">
          <mxGeometry x="450" y="400" width="40" height="45" as="geometry" />
        </mxCell>
        <mxCell id="PhvlHz6Z7p7-dMvGPFl0-40" value="TM&lt;div&gt;TT&lt;/div&gt;&lt;div&gt;JornadaCompleta&lt;/div&gt;" style="shape=card;whiteSpace=wrap;html=1;" parent="1" vertex="1">
          <mxGeometry x="875" y="435" width="100" height="120" as="geometry" />
        </mxCell>
        <mxCell id="Hu8v8N1mIR_zKJdXmR1f-12" value="TipoProducto" style="rounded=0;whiteSpace=wrap;html=1;fontSize=22;" parent="1" vertex="1">
          <mxGeometry x="-100" y="1020" width="160" height="60" as="geometry" />
        </mxCell>
        <mxCell id="Hu8v8N1mIR_zKJdXmR1f-15" value="" style="edgeStyle=orthogonalEdgeStyle;rounded=0;orthogonalLoop=1;jettySize=auto;html=1;" parent="1" source="Hu8v8N1mIR_zKJdXmR1f-13" target="Hu8v8N1mIR_zKJdXmR1f-12" edge="1">
          <mxGeometry relative="1" as="geometry" />
        </mxCell>
        <mxCell id="Hu8v8N1mIR_zKJdXmR1f-16" value="1" style="edgeLabel;html=1;align=center;verticalAlign=middle;resizable=0;points=[];" parent="Hu8v8N1mIR_zKJdXmR1f-15" vertex="1" connectable="0">
          <mxGeometry x="-0.0252" y="-1" relative="1" as="geometry">
            <mxPoint as="offset" />
          </mxGeometry>
        </mxCell>
        <mxCell id="Hu8v8N1mIR_zKJdXmR1f-13" value="pertenece&lt;div&gt;a&lt;/div&gt;" style="rhombus;whiteSpace=wrap;html=1;" parent="1" vertex="1">
          <mxGeometry x="-55" y="890" width="70" height="76.25" as="geometry" />
        </mxCell>
        <mxCell id="buQtl8cd8FhxK6j8cwsw-2" value="a" style="text;whiteSpace=wrap;fontSize=30;" parent="1" vertex="1">
          <mxGeometry x="950" y="277.5" width="130" height="60" as="geometry" />
        </mxCell>
        <mxCell id="KroSSUwPJyKsnDRUDDY--2" style="edgeStyle=orthogonalEdgeStyle;rounded=0;orthogonalLoop=1;jettySize=auto;html=1;entryX=0;entryY=0.5;entryDx=0;entryDy=0;" parent="1" source="KroSSUwPJyKsnDRUDDY--1" target="WhQIEV8DTXagVZ_C8BNq-55" edge="1">
          <mxGeometry relative="1" as="geometry" />
        </mxCell>
        <mxCell id="KroSSUwPJyKsnDRUDDY--1" value="&lt;u&gt;IDProducto&lt;/u&gt;&lt;div&gt;Descripcion&lt;/div&gt;&lt;div&gt;PrecioUnitario&lt;/div&gt;&lt;div&gt;PrecioReferencia&lt;/div&gt;&lt;div&gt;UnidadReferencia&lt;/div&gt;&lt;div&gt;&lt;b&gt;IDTipoDeProducto&lt;/b&gt;&lt;/div&gt;" style="shape=note;whiteSpace=wrap;html=1;backgroundOutline=1;darkOpacity=0.05;" parent="1" vertex="1">
          <mxGeometry x="-270" y="738.44" width="125" height="142.5" as="geometry" />
        </mxCell>
        <mxCell id="KroSSUwPJyKsnDRUDDY--4" style="edgeStyle=orthogonalEdgeStyle;rounded=0;orthogonalLoop=1;jettySize=auto;html=1;entryX=0;entryY=0.5;entryDx=0;entryDy=0;" parent="1" source="KroSSUwPJyKsnDRUDDY--3" target="Hu8v8N1mIR_zKJdXmR1f-12" edge="1">
          <mxGeometry relative="1" as="geometry" />
        </mxCell>
        <mxCell id="KroSSUwPJyKsnDRUDDY--3" value="&lt;u&gt;IDTipoDeProducto&lt;/u&gt;&lt;div&gt;Descripcion&lt;/div&gt;" style="shape=note;whiteSpace=wrap;html=1;backgroundOutline=1;darkOpacity=0.05;" parent="1" vertex="1">
          <mxGeometry x="-270" y="989.38" width="105" height="121.25" as="geometry" />
        </mxCell>
        <mxCell id="KroSSUwPJyKsnDRUDDY--8" style="edgeStyle=orthogonalEdgeStyle;rounded=0;orthogonalLoop=1;jettySize=auto;html=1;entryX=1;entryY=0.5;entryDx=0;entryDy=0;" parent="1" source="KroSSUwPJyKsnDRUDDY--7" target="PhvlHz6Z7p7-dMvGPFl0-35" edge="1">
          <mxGeometry relative="1" as="geometry" />
        </mxCell>
        <mxCell id="KroSSUwPJyKsnDRUDDY--7" value="&lt;u&gt;IDTurno&lt;/u&gt;&lt;div&gt;Descripcion&lt;/div&gt;" style="shape=note;whiteSpace=wrap;html=1;backgroundOutline=1;darkOpacity=0.05;" parent="1" vertex="1">
          <mxGeometry x="720" y="419.05999999999995" width="90" height="120" as="geometry" />
        </mxCell>
        <mxCell id="KroSSUwPJyKsnDRUDDY--10" style="edgeStyle=orthogonalEdgeStyle;rounded=0;orthogonalLoop=1;jettySize=auto;html=1;entryX=0;entryY=0;entryDx=90;entryDy=75;entryPerimeter=0;" parent="1" source="PhvlHz6Z7p7-dMvGPFl0-40" target="KroSSUwPJyKsnDRUDDY--7" edge="1">
          <mxGeometry relative="1" as="geometry" />
        </mxCell>
        <mxCell id="KroSSUwPJyKsnDRUDDY--12" style="edgeStyle=orthogonalEdgeStyle;rounded=0;orthogonalLoop=1;jettySize=auto;html=1;entryX=0.5;entryY=0;entryDx=0;entryDy=0;" parent="1" source="KroSSUwPJyKsnDRUDDY--11" target="PhvlHz6Z7p7-dMvGPFl0-29" edge="1">
          <mxGeometry relative="1" as="geometry" />
        </mxCell>
        <mxCell id="KroSSUwPJyKsnDRUDDY--11" value="&lt;u&gt;IDCargo&lt;/u&gt;&lt;div&gt;Descripcion&lt;/div&gt;" style="shape=note;whiteSpace=wrap;html=1;backgroundOutline=1;darkOpacity=0.05;" parent="1" vertex="1">
          <mxGeometry x="690" y="189.99999999999994" width="90" height="120" as="geometry" />
        </mxCell>
        <mxCell id="KroSSUwPJyKsnDRUDDY--13" style="edgeStyle=orthogonalEdgeStyle;rounded=0;orthogonalLoop=1;jettySize=auto;html=1;entryX=0;entryY=0;entryDx=30;entryDy=0;entryPerimeter=0;" parent="1" source="PhvlHz6Z7p7-dMvGPFl0-33" target="KroSSUwPJyKsnDRUDDY--11" edge="1">
          <mxGeometry relative="1" as="geometry" />
        </mxCell>
        <mxCell id="KroSSUwPJyKsnDRUDDY--17" style="edgeStyle=orthogonalEdgeStyle;rounded=0;orthogonalLoop=1;jettySize=auto;html=1;entryX=0;entryY=0.5;entryDx=0;entryDy=0;" parent="1" source="KroSSUwPJyKsnDRUDDY--16" target="WhQIEV8DTXagVZ_C8BNq-2" edge="1">
          <mxGeometry relative="1" as="geometry" />
        </mxCell>
        <mxCell id="KroSSUwPJyKsnDRUDDY--16" value="&lt;u&gt;IDSucursal&lt;/u&gt;&lt;div&gt;Horario&lt;/div&gt;&lt;div&gt;Telefono&lt;/div&gt;&lt;div&gt;&lt;span style=&quot;background-color: initial;&quot;&gt;&lt;b&gt;IDDireccion&lt;/b&gt;&lt;/span&gt;&lt;/div&gt;" style="shape=note;whiteSpace=wrap;html=1;backgroundOutline=1;darkOpacity=0.05;" parent="1" vertex="1">
          <mxGeometry x="-145" y="293.75" width="92.5" height="150" as="geometry" />
        </mxCell>
        <mxCell id="KroSSUwPJyKsnDRUDDY--18" style="edgeStyle=orthogonalEdgeStyle;rounded=0;orthogonalLoop=1;jettySize=auto;html=1;entryX=0;entryY=0.5;entryDx=0;entryDy=0;entryPerimeter=0;" parent="1" source="WhQIEV8DTXagVZ_C8BNq-35" target="KroSSUwPJyKsnDRUDDY--16" edge="1">
          <mxGeometry relative="1" as="geometry" />
        </mxCell>
      </root>
    </mxGraphModel>
  </diagram>
  <diagram id="BZT8EPOGBWg7BuIaKRk8" name="Page-2">
    <mxGraphModel dx="2763" dy="1033" grid="1" gridSize="10" guides="1" tooltips="1" connect="1" arrows="1" fold="1" page="1" pageScale="1" pageWidth="827" pageHeight="1169" math="0" shadow="0">
      <root>
        <mxCell id="0" />
        <mxCell id="1" parent="0" />
        <mxCell id="rL45sfqWC2pay465upjj-3" style="edgeStyle=orthogonalEdgeStyle;rounded=0;orthogonalLoop=1;jettySize=auto;html=1;entryX=1;entryY=0.5;entryDx=0;entryDy=0;exitX=1;exitY=0.5;exitDx=0;exitDy=0;" parent="1" source="uV4tR4tlbBfxbBWYkSi7-1" target="uV4tR4tlbBfxbBWYkSi7-8" edge="1">
          <mxGeometry relative="1" as="geometry" />
        </mxCell>
        <mxCell id="uV4tR4tlbBfxbBWYkSi7-1" value="" style="rounded=0;whiteSpace=wrap;html=1;fontSize=22;" parent="1" vertex="1">
          <mxGeometry x="-622" y="400" width="180" height="80" as="geometry" />
        </mxCell>
        <mxCell id="uV4tR4tlbBfxbBWYkSi7-3" value="TDireccion" style="rounded=0;whiteSpace=wrap;html=1;fontSize=22;" parent="1" vertex="1">
          <mxGeometry x="-580" y="60" width="120" height="60" as="geometry" />
        </mxCell>
        <mxCell id="uV4tR4tlbBfxbBWYkSi7-4" value="Sucursal" style="rounded=0;whiteSpace=wrap;html=1;fontSize=22;" parent="1" vertex="1">
          <mxGeometry x="-627" y="780" width="120" height="60" as="geometry" />
        </mxCell>
        <mxCell id="uV4tR4tlbBfxbBWYkSi7-5" value="TablaEmpleado" style="rounded=0;whiteSpace=wrap;html=1;fontSize=22;" parent="1" vertex="1">
          <mxGeometry x="-40" y="60" width="210" height="60" as="geometry" />
        </mxCell>
        <mxCell id="uV4tR4tlbBfxbBWYkSi7-6" value="Cargo" style="rounded=0;whiteSpace=wrap;html=1;fontSize=22;" parent="1" vertex="1">
          <mxGeometry x="-627" y="840" width="120" height="60" as="geometry" />
        </mxCell>
        <mxCell id="uV4tR4tlbBfxbBWYkSi7-7" value="Turno" style="rounded=0;whiteSpace=wrap;html=1;fontSize=22;" parent="1" vertex="1">
          <mxGeometry x="-627" y="900" width="120" height="60" as="geometry" />
        </mxCell>
        <mxCell id="uV4tR4tlbBfxbBWYkSi7-8" value="TFactura" style="rounded=0;whiteSpace=wrap;html=1;fontSize=22;" parent="1" vertex="1">
          <mxGeometry x="-612" y="280" width="160" height="60" as="geometry" />
        </mxCell>
        <mxCell id="uV4tR4tlbBfxbBWYkSi7-9" value="TDetalleFactura" style="rounded=0;whiteSpace=wrap;html=1;fontSize=22;" parent="1" vertex="1">
          <mxGeometry x="-612" y="410" width="160" height="60" as="geometry" />
        </mxCell>
        <mxCell id="uV4tR4tlbBfxbBWYkSi7-10" value="TMedioDePago" style="rounded=0;whiteSpace=wrap;html=1;fontSize=22;" parent="1" vertex="1">
          <mxGeometry x="-612" y="340" width="160" height="60" as="geometry" />
        </mxCell>
        <mxCell id="uV4tR4tlbBfxbBWYkSi7-16" style="edgeStyle=orthogonalEdgeStyle;rounded=0;orthogonalLoop=1;jettySize=auto;html=1;exitX=0.5;exitY=0;exitDx=0;exitDy=0;entryX=0;entryY=0.5;entryDx=0;entryDy=0;" parent="1" source="uV4tR4tlbBfxbBWYkSi7-14" target="uV4tR4tlbBfxbBWYkSi7-3" edge="1">
          <mxGeometry relative="1" as="geometry" />
        </mxCell>
        <mxCell id="K9j2NJnhSgNK1f2xrJxy-3" style="edgeStyle=orthogonalEdgeStyle;rounded=0;orthogonalLoop=1;jettySize=auto;html=1;entryX=0;entryY=0.5;entryDx=0;entryDy=0;" parent="1" source="uV4tR4tlbBfxbBWYkSi7-14" target="K9j2NJnhSgNK1f2xrJxy-1" edge="1">
          <mxGeometry relative="1" as="geometry" />
        </mxCell>
        <mxCell id="uV4tR4tlbBfxbBWYkSi7-14" value="Esquema Direccion" style="text;html=1;align=center;verticalAlign=middle;whiteSpace=wrap;rounded=0;fontSize=22;" parent="1" vertex="1">
          <mxGeometry x="-800" y="130" width="110" height="50" as="geometry" />
        </mxCell>
        <mxCell id="uV4tR4tlbBfxbBWYkSi7-19" style="edgeStyle=orthogonalEdgeStyle;rounded=0;orthogonalLoop=1;jettySize=auto;html=1;exitX=0.5;exitY=0;exitDx=0;exitDy=0;entryX=0;entryY=0.5;entryDx=0;entryDy=0;" parent="1" source="uV4tR4tlbBfxbBWYkSi7-17" target="uV4tR4tlbBfxbBWYkSi7-5" edge="1">
          <mxGeometry relative="1" as="geometry" />
        </mxCell>
        <mxCell id="ArksArdKru3ywYRZ8e2x-4" style="edgeStyle=orthogonalEdgeStyle;rounded=0;orthogonalLoop=1;jettySize=auto;html=1;entryX=0;entryY=0.5;entryDx=0;entryDy=0;exitX=0.75;exitY=1;exitDx=0;exitDy=0;" parent="1" source="uV4tR4tlbBfxbBWYkSi7-17" target="ArksArdKru3ywYRZ8e2x-3" edge="1">
          <mxGeometry relative="1" as="geometry" />
        </mxCell>
        <mxCell id="ArksArdKru3ywYRZ8e2x-5" style="edgeStyle=orthogonalEdgeStyle;rounded=0;orthogonalLoop=1;jettySize=auto;html=1;exitX=1;exitY=0.5;exitDx=0;exitDy=0;entryX=0;entryY=0.75;entryDx=0;entryDy=0;" parent="1" source="uV4tR4tlbBfxbBWYkSi7-17" target="ArksArdKru3ywYRZ8e2x-2" edge="1">
          <mxGeometry relative="1" as="geometry" />
        </mxCell>
        <mxCell id="ArksArdKru3ywYRZ8e2x-6" style="edgeStyle=orthogonalEdgeStyle;rounded=0;orthogonalLoop=1;jettySize=auto;html=1;exitX=0.75;exitY=0;exitDx=0;exitDy=0;entryX=0;entryY=0.5;entryDx=0;entryDy=0;" parent="1" source="uV4tR4tlbBfxbBWYkSi7-17" target="ArksArdKru3ywYRZ8e2x-1" edge="1">
          <mxGeometry relative="1" as="geometry" />
        </mxCell>
        <mxCell id="ArksArdKru3ywYRZ8e2x-8" style="edgeStyle=orthogonalEdgeStyle;rounded=0;orthogonalLoop=1;jettySize=auto;html=1;exitX=0.5;exitY=1;exitDx=0;exitDy=0;entryX=0;entryY=0.5;entryDx=0;entryDy=0;" parent="1" source="uV4tR4tlbBfxbBWYkSi7-17" target="ArksArdKru3ywYRZ8e2x-7" edge="1">
          <mxGeometry relative="1" as="geometry" />
        </mxCell>
        <mxCell id="uV4tR4tlbBfxbBWYkSi7-17" value="Esquema Empleado" style="text;html=1;align=center;verticalAlign=middle;whiteSpace=wrap;rounded=0;fontSize=22;" parent="1" vertex="1">
          <mxGeometry x="-280" y="200" width="110" height="50" as="geometry" />
        </mxCell>
        <mxCell id="uV4tR4tlbBfxbBWYkSi7-22" style="edgeStyle=orthogonalEdgeStyle;rounded=0;orthogonalLoop=1;jettySize=auto;html=1;entryX=0;entryY=0.5;entryDx=0;entryDy=0;" parent="1" source="uV4tR4tlbBfxbBWYkSi7-21" target="uV4tR4tlbBfxbBWYkSi7-10" edge="1">
          <mxGeometry relative="1" as="geometry" />
        </mxCell>
        <mxCell id="uV4tR4tlbBfxbBWYkSi7-23" style="edgeStyle=orthogonalEdgeStyle;rounded=0;orthogonalLoop=1;jettySize=auto;html=1;exitX=0.5;exitY=0;exitDx=0;exitDy=0;entryX=0;entryY=0.5;entryDx=0;entryDy=0;" parent="1" source="uV4tR4tlbBfxbBWYkSi7-21" target="uV4tR4tlbBfxbBWYkSi7-8" edge="1">
          <mxGeometry relative="1" as="geometry" />
        </mxCell>
        <mxCell id="uV4tR4tlbBfxbBWYkSi7-24" style="edgeStyle=orthogonalEdgeStyle;rounded=0;orthogonalLoop=1;jettySize=auto;html=1;exitX=1;exitY=0.75;exitDx=0;exitDy=0;entryX=0;entryY=0.5;entryDx=0;entryDy=0;" parent="1" source="uV4tR4tlbBfxbBWYkSi7-21" target="uV4tR4tlbBfxbBWYkSi7-1" edge="1">
          <mxGeometry relative="1" as="geometry" />
        </mxCell>
        <mxCell id="rL45sfqWC2pay465upjj-7" style="edgeStyle=orthogonalEdgeStyle;rounded=0;orthogonalLoop=1;jettySize=auto;html=1;exitX=0.5;exitY=1;exitDx=0;exitDy=0;entryX=0;entryY=0.5;entryDx=0;entryDy=0;" parent="1" source="uV4tR4tlbBfxbBWYkSi7-21" target="rL45sfqWC2pay465upjj-6" edge="1">
          <mxGeometry relative="1" as="geometry" />
        </mxCell>
        <mxCell id="uV4tR4tlbBfxbBWYkSi7-21" value="Esquema&lt;div&gt;Factura&lt;/div&gt;" style="text;html=1;align=center;verticalAlign=middle;whiteSpace=wrap;rounded=0;fontSize=22;" parent="1" vertex="1">
          <mxGeometry x="-792" y="360" width="102" height="50" as="geometry" />
        </mxCell>
        <mxCell id="uV4tR4tlbBfxbBWYkSi7-28" style="edgeStyle=orthogonalEdgeStyle;rounded=0;orthogonalLoop=1;jettySize=auto;html=1;entryX=0;entryY=0.5;entryDx=0;entryDy=0;" parent="1" source="uV4tR4tlbBfxbBWYkSi7-25" target="uV4tR4tlbBfxbBWYkSi7-4" edge="1">
          <mxGeometry relative="1" as="geometry" />
        </mxCell>
        <mxCell id="uV4tR4tlbBfxbBWYkSi7-29" style="edgeStyle=orthogonalEdgeStyle;rounded=0;orthogonalLoop=1;jettySize=auto;html=1;exitX=1;exitY=0.75;exitDx=0;exitDy=0;entryX=0;entryY=0.5;entryDx=0;entryDy=0;" parent="1" source="uV4tR4tlbBfxbBWYkSi7-25" target="uV4tR4tlbBfxbBWYkSi7-6" edge="1">
          <mxGeometry relative="1" as="geometry" />
        </mxCell>
        <mxCell id="uV4tR4tlbBfxbBWYkSi7-30" style="edgeStyle=orthogonalEdgeStyle;rounded=0;orthogonalLoop=1;jettySize=auto;html=1;exitX=0.5;exitY=1;exitDx=0;exitDy=0;entryX=0;entryY=0.5;entryDx=0;entryDy=0;" parent="1" source="uV4tR4tlbBfxbBWYkSi7-25" target="uV4tR4tlbBfxbBWYkSi7-7" edge="1">
          <mxGeometry relative="1" as="geometry" />
        </mxCell>
        <mxCell id="uV4tR4tlbBfxbBWYkSi7-32" style="edgeStyle=orthogonalEdgeStyle;rounded=0;orthogonalLoop=1;jettySize=auto;html=1;entryX=0;entryY=0.5;entryDx=0;entryDy=0;exitX=0.5;exitY=0;exitDx=0;exitDy=0;" parent="1" source="uV4tR4tlbBfxbBWYkSi7-25" target="uV4tR4tlbBfxbBWYkSi7-31" edge="1">
          <mxGeometry relative="1" as="geometry" />
        </mxCell>
        <mxCell id="uV4tR4tlbBfxbBWYkSi7-25" value="Esquema&lt;div&gt;Sucursal&lt;/div&gt;" style="text;html=1;align=center;verticalAlign=middle;whiteSpace=wrap;rounded=0;fontSize=22;" parent="1" vertex="1">
          <mxGeometry x="-812" y="780" width="105" height="60" as="geometry" />
        </mxCell>
        <mxCell id="uV4tR4tlbBfxbBWYkSi7-31" value="Horario" style="rounded=0;whiteSpace=wrap;html=1;fontSize=22;" parent="1" vertex="1">
          <mxGeometry x="-627" y="720" width="120" height="60" as="geometry" />
        </mxCell>
        <mxCell id="ArksArdKru3ywYRZ8e2x-1" value="SPcrearEmpleado" style="rounded=0;whiteSpace=wrap;html=1;fontSize=22;" parent="1" vertex="1">
          <mxGeometry x="-40" y="120" width="210" height="60" as="geometry" />
        </mxCell>
        <mxCell id="ArksArdKru3ywYRZ8e2x-2" value="SPalterarEmpleado" style="rounded=0;whiteSpace=wrap;html=1;fontSize=22;" parent="1" vertex="1">
          <mxGeometry x="-40" y="180" width="210" height="60" as="geometry" />
        </mxCell>
        <mxCell id="ArksArdKru3ywYRZ8e2x-3" value="SPeliminarEmpleado" style="rounded=0;whiteSpace=wrap;html=1;fontSize=22;" parent="1" vertex="1">
          <mxGeometry x="-40" y="240" width="210" height="60" as="geometry" />
        </mxCell>
        <mxCell id="ArksArdKru3ywYRZ8e2x-7" value="VverEmpleados" style="rounded=0;whiteSpace=wrap;html=1;fontSize=22;" parent="1" vertex="1">
          <mxGeometry x="-40" y="300" width="210" height="60" as="geometry" />
        </mxCell>
        <mxCell id="ArksArdKru3ywYRZ8e2x-9" value="TablaProducto" style="rounded=0;whiteSpace=wrap;html=1;fontSize=22;" parent="1" vertex="1">
          <mxGeometry x="-40" y="440" width="210" height="60" as="geometry" />
        </mxCell>
        <mxCell id="ArksArdKru3ywYRZ8e2x-10" value="TablaTipoProducto" style="rounded=0;whiteSpace=wrap;html=1;fontSize=22;" parent="1" vertex="1">
          <mxGeometry x="-40" y="500" width="210" height="60" as="geometry" />
        </mxCell>
        <mxCell id="rL45sfqWC2pay465upjj-9" style="edgeStyle=orthogonalEdgeStyle;rounded=0;orthogonalLoop=1;jettySize=auto;html=1;entryX=0;entryY=0.5;entryDx=0;entryDy=0;exitX=0.5;exitY=0;exitDx=0;exitDy=0;" parent="1" source="ArksArdKru3ywYRZ8e2x-11" target="ArksArdKru3ywYRZ8e2x-9" edge="1">
          <mxGeometry relative="1" as="geometry" />
        </mxCell>
        <mxCell id="rL45sfqWC2pay465upjj-10" style="edgeStyle=orthogonalEdgeStyle;rounded=0;orthogonalLoop=1;jettySize=auto;html=1;entryX=0;entryY=0.5;entryDx=0;entryDy=0;exitX=0.5;exitY=1;exitDx=0;exitDy=0;" parent="1" source="ArksArdKru3ywYRZ8e2x-11" target="rL45sfqWC2pay465upjj-8" edge="1">
          <mxGeometry relative="1" as="geometry" />
        </mxCell>
        <mxCell id="rL45sfqWC2pay465upjj-11" style="edgeStyle=orthogonalEdgeStyle;rounded=0;orthogonalLoop=1;jettySize=auto;html=1;exitX=1;exitY=0.75;exitDx=0;exitDy=0;entryX=0;entryY=0.5;entryDx=0;entryDy=0;" parent="1" source="ArksArdKru3ywYRZ8e2x-11" target="ArksArdKru3ywYRZ8e2x-12" edge="1">
          <mxGeometry relative="1" as="geometry" />
        </mxCell>
        <mxCell id="rL45sfqWC2pay465upjj-12" style="edgeStyle=orthogonalEdgeStyle;rounded=0;orthogonalLoop=1;jettySize=auto;html=1;exitX=1;exitY=0.25;exitDx=0;exitDy=0;entryX=0;entryY=0.5;entryDx=0;entryDy=0;" parent="1" source="ArksArdKru3ywYRZ8e2x-11" target="ArksArdKru3ywYRZ8e2x-10" edge="1">
          <mxGeometry relative="1" as="geometry" />
        </mxCell>
        <mxCell id="ArksArdKru3ywYRZ8e2x-11" value="Esquema&lt;div&gt;Producto&lt;/div&gt;" style="text;html=1;align=center;verticalAlign=middle;whiteSpace=wrap;rounded=0;fontSize=22;" parent="1" vertex="1">
          <mxGeometry x="-250" y="535" width="100" height="50" as="geometry" />
        </mxCell>
        <mxCell id="ArksArdKru3ywYRZ8e2x-12" value="SPimpCatalogoCSV" style="rounded=0;whiteSpace=wrap;html=1;fontSize=22;" parent="1" vertex="1">
          <mxGeometry x="-40" y="560" width="210" height="60" as="geometry" />
        </mxCell>
        <mxCell id="rL45sfqWC2pay465upjj-6" value="VverFactura" style="rounded=0;whiteSpace=wrap;html=1;fontSize=22;" parent="1" vertex="1">
          <mxGeometry x="-610" y="480" width="160" height="60" as="geometry" />
        </mxCell>
        <mxCell id="rL45sfqWC2pay465upjj-8" value="SPagregarTipoProd" style="rounded=0;whiteSpace=wrap;html=1;fontSize=22;" parent="1" vertex="1">
          <mxGeometry x="-40" y="620" width="210" height="60" as="geometry" />
        </mxCell>
        <mxCell id="K9j2NJnhSgNK1f2xrJxy-1" value="VverDirecEmplead" style="rounded=0;whiteSpace=wrap;html=1;fontSize=22;" parent="1" vertex="1">
          <mxGeometry x="-610" y="120" width="190" height="60" as="geometry" />
        </mxCell>
        <mxCell id="K9j2NJnhSgNK1f2xrJxy-2" value="VverDirecSucursal" style="rounded=0;whiteSpace=wrap;html=1;fontSize=22;" parent="1" vertex="1">
          <mxGeometry x="-610" y="180" width="192" height="60" as="geometry" />
        </mxCell>
      </root>
    </mxGraphModel>
  </diagram>
  <diagram id="EsS-a3Pq7JlzXho2_z5C" name="Page-3">
    <mxGraphModel dx="1109" dy="4540" grid="1" gridSize="10" guides="1" tooltips="1" connect="1" arrows="1" fold="1" page="1" pageScale="1" pageWidth="827" pageHeight="1169" math="0" shadow="0">
      <root>
        <mxCell id="0" />
        <mxCell id="1" parent="0" />
        <mxCell id="pJvTLGLpxkNK9baVzXqS-1" style="edgeStyle=orthogonalEdgeStyle;rounded=0;orthogonalLoop=1;jettySize=auto;html=1;entryX=0;entryY=0.5;entryDx=0;entryDy=0;" edge="1" parent="1" source="pJvTLGLpxkNK9baVzXqS-2" target="pJvTLGLpxkNK9baVzXqS-17">
          <mxGeometry relative="1" as="geometry" />
        </mxCell>
        <mxCell id="pJvTLGLpxkNK9baVzXqS-2" value="Utilizando fseek:&#xa;        Sin Memoria Cache: 0.025000&#xa;        Con Memoria Cache: 0.141000&#xa;Sin Utilizar fseek:&#xa;        Sin Memoria Cache: 10.856000&#xa;        Con Memoria Cache: 10.878000" style="text;whiteSpace=wrap;fontSize=30;align=left;" vertex="1" parent="1">
          <mxGeometry x="1719" y="-1100" width="530" height="247.5" as="geometry" />
        </mxCell>
        <mxCell id="pJvTLGLpxkNK9baVzXqS-3" style="edgeStyle=orthogonalEdgeStyle;rounded=0;orthogonalLoop=1;jettySize=auto;html=1;entryX=0;entryY=0.5;entryDx=0;entryDy=0;" edge="1" parent="1" source="pJvTLGLpxkNK9baVzXqS-4" target="pJvTLGLpxkNK9baVzXqS-2">
          <mxGeometry relative="1" as="geometry" />
        </mxCell>
        <mxCell id="pJvTLGLpxkNK9baVzXqS-4" value="50kTuits Random&#xa;Cap 50k(100% de la cap)" style="text;whiteSpace=wrap;fontSize=30;" vertex="1" parent="1">
          <mxGeometry x="1209" y="-1018.1299999999999" width="360" height="83.75" as="geometry" />
        </mxCell>
        <mxCell id="pJvTLGLpxkNK9baVzXqS-5" style="edgeStyle=orthogonalEdgeStyle;rounded=0;orthogonalLoop=1;jettySize=auto;html=1;entryX=0;entryY=0.5;entryDx=0;entryDy=0;" edge="1" parent="1" source="pJvTLGLpxkNK9baVzXqS-6" target="pJvTLGLpxkNK9baVzXqS-18">
          <mxGeometry relative="1" as="geometry" />
        </mxCell>
        <mxCell id="pJvTLGLpxkNK9baVzXqS-6" value="Utilizando fseek:&#xa;        Sin Memoria Cache: 0.022000&#xa;        Con Memoria Cache: 0.105000&#xa;Sin Utilizar fseek:&#xa;        Sin Memoria Cache: 10.895000&#xa;        Con Memoria Cache: 10.989000" style="text;whiteSpace=wrap;fontSize=30;align=left;" vertex="1" parent="1">
          <mxGeometry x="1719" y="-806.25" width="520" height="247.5" as="geometry" />
        </mxCell>
        <mxCell id="pJvTLGLpxkNK9baVzXqS-7" style="edgeStyle=orthogonalEdgeStyle;rounded=0;orthogonalLoop=1;jettySize=auto;html=1;entryX=0;entryY=0.5;entryDx=0;entryDy=0;" edge="1" parent="1" source="pJvTLGLpxkNK9baVzXqS-8" target="pJvTLGLpxkNK9baVzXqS-6">
          <mxGeometry relative="1" as="geometry" />
        </mxCell>
        <mxCell id="pJvTLGLpxkNK9baVzXqS-8" value="50kTuits Random&#xa;Cap 37,5k (75% de la cap)" style="text;whiteSpace=wrap;fontSize=30;" vertex="1" parent="1">
          <mxGeometry x="1209" y="-742.1899999999999" width="366" height="119.38" as="geometry" />
        </mxCell>
        <mxCell id="pJvTLGLpxkNK9baVzXqS-9" style="edgeStyle=orthogonalEdgeStyle;rounded=0;orthogonalLoop=1;jettySize=auto;html=1;entryX=0;entryY=0.5;entryDx=0;entryDy=0;" edge="1" parent="1" source="pJvTLGLpxkNK9baVzXqS-10" target="pJvTLGLpxkNK9baVzXqS-19">
          <mxGeometry relative="1" as="geometry" />
        </mxCell>
        <mxCell id="pJvTLGLpxkNK9baVzXqS-10" value="Utilizando fseek:&#xa;        Sin Memoria Cache: 0.025000&#xa;        Con Memoria Cache: 0.103000&#xa;Sin Utilizar fseek:&#xa;        Sin Memoria Cache: 11.041000&#xa;        Con Memoria Cache: 10.861000" style="text;whiteSpace=wrap;fontSize=30;align=left;" vertex="1" parent="1">
          <mxGeometry x="1711" y="-520" width="528" height="247.5" as="geometry" />
        </mxCell>
        <mxCell id="pJvTLGLpxkNK9baVzXqS-11" style="edgeStyle=orthogonalEdgeStyle;rounded=0;orthogonalLoop=1;jettySize=auto;html=1;entryX=0;entryY=0.5;entryDx=0;entryDy=0;" edge="1" parent="1" source="pJvTLGLpxkNK9baVzXqS-12" target="pJvTLGLpxkNK9baVzXqS-10">
          <mxGeometry relative="1" as="geometry" />
        </mxCell>
        <mxCell id="pJvTLGLpxkNK9baVzXqS-12" value="50kTuits Random&#xa;Cap 25k (50% de la cap)" style="text;whiteSpace=wrap;fontSize=30;" vertex="1" parent="1">
          <mxGeometry x="1207" y="-438.11999999999995" width="348" height="83.75" as="geometry" />
        </mxCell>
        <mxCell id="pJvTLGLpxkNK9baVzXqS-13" style="edgeStyle=orthogonalEdgeStyle;rounded=0;orthogonalLoop=1;jettySize=auto;html=1;entryX=0;entryY=0.5;entryDx=0;entryDy=0;" edge="1" parent="1" source="pJvTLGLpxkNK9baVzXqS-14" target="pJvTLGLpxkNK9baVzXqS-20">
          <mxGeometry relative="1" as="geometry" />
        </mxCell>
        <mxCell id="pJvTLGLpxkNK9baVzXqS-14" value="Utilizando fseek:&#xa;        Sin Memoria Cache: 0.023000&#xa;        Con Memoria Cache: 0.122000&#xa;Sin Utilizar fseek:&#xa;        Sin Memoria Cache: 10.918000&#xa;        Con Memoria Cache: 11.156000" style="text;whiteSpace=wrap;fontSize=30;align=left;" vertex="1" parent="1">
          <mxGeometry x="1701" y="65.00000000000011" width="528" height="247.5" as="geometry" />
        </mxCell>
        <mxCell id="pJvTLGLpxkNK9baVzXqS-15" style="edgeStyle=orthogonalEdgeStyle;rounded=0;orthogonalLoop=1;jettySize=auto;html=1;entryX=0;entryY=0.5;entryDx=0;entryDy=0;" edge="1" parent="1" source="pJvTLGLpxkNK9baVzXqS-16" target="pJvTLGLpxkNK9baVzXqS-14">
          <mxGeometry relative="1" as="geometry" />
        </mxCell>
        <mxCell id="pJvTLGLpxkNK9baVzXqS-16" value="50kTuits Random&#xa;Cap 10k (20% de la cap)" style="text;whiteSpace=wrap;fontSize=30;" vertex="1" parent="1">
          <mxGeometry x="1197" y="129.06000000000006" width="366" height="119.38" as="geometry" />
        </mxCell>
        <mxCell id="pJvTLGLpxkNK9baVzXqS-17" value="Diferencia Con fseek -&gt;-0.116 &#xa;Diferencia Sin Fseek -&gt;-0.022" style="text;whiteSpace=wrap;fontSize=30;" vertex="1" parent="1">
          <mxGeometry x="2359" y="-1018.1299999999999" width="449" height="83.75" as="geometry" />
        </mxCell>
        <mxCell id="pJvTLGLpxkNK9baVzXqS-18" value="Diferencia Con fseek -&gt;-0.083 &#xa;Diferencia Sin Fseek -&gt;-0.094" style="text;whiteSpace=wrap;fontSize=30;" vertex="1" parent="1">
          <mxGeometry x="2359" y="-725" width="450" height="83.75" as="geometry" />
        </mxCell>
        <mxCell id="pJvTLGLpxkNK9baVzXqS-19" value="Diferencia Con fseek -&gt;-0.078 &#xa;Diferencia Sin Fseek -&gt;+0.18" style="text;whiteSpace=wrap;fontSize=30;" vertex="1" parent="1">
          <mxGeometry x="2359" y="-438.11999999999995" width="420" height="83.75" as="geometry" />
        </mxCell>
        <mxCell id="pJvTLGLpxkNK9baVzXqS-20" value="Diferencia Con fseek -&gt; -0.099&#xa;Diferencia Sin Fseek -&gt; -0.238" style="text;whiteSpace=wrap;fontSize=30;" vertex="1" parent="1">
          <mxGeometry x="2349" y="146.87" width="430" height="83.75" as="geometry" />
        </mxCell>
        <mxCell id="pJvTLGLpxkNK9baVzXqS-21" style="edgeStyle=orthogonalEdgeStyle;rounded=0;orthogonalLoop=1;jettySize=auto;html=1;entryX=0;entryY=0.5;entryDx=0;entryDy=0;" edge="1" parent="1" source="pJvTLGLpxkNK9baVzXqS-22" target="pJvTLGLpxkNK9baVzXqS-25">
          <mxGeometry relative="1" as="geometry" />
        </mxCell>
        <mxCell id="pJvTLGLpxkNK9baVzXqS-22" value="Utilizando fseek:&#xa;        Sin Memoria Cache: 0.023000&#xa;        Con Memoria Cache: 0.126000&#xa;Sin Utilizar fseek:&#xa;        Sin Memoria Cache: 11.383000&#xa;        Con Memoria Cache: 11.083000" style="text;whiteSpace=wrap;fontSize=30;align=left;" vertex="1" parent="1">
          <mxGeometry x="1711" y="-244.9999999999999" width="528" height="247.5" as="geometry" />
        </mxCell>
        <mxCell id="pJvTLGLpxkNK9baVzXqS-23" style="edgeStyle=orthogonalEdgeStyle;rounded=0;orthogonalLoop=1;jettySize=auto;html=1;entryX=0;entryY=0.5;entryDx=0;entryDy=0;" edge="1" parent="1" source="pJvTLGLpxkNK9baVzXqS-24" target="pJvTLGLpxkNK9baVzXqS-22">
          <mxGeometry relative="1" as="geometry" />
        </mxCell>
        <mxCell id="pJvTLGLpxkNK9baVzXqS-24" value="50kTuits Random&#xa;Cap 12.5k (25% de la cap)" style="text;whiteSpace=wrap;fontSize=30;" vertex="1" parent="1">
          <mxGeometry x="1190" y="-163.12" width="382" height="83.75" as="geometry" />
        </mxCell>
        <mxCell id="pJvTLGLpxkNK9baVzXqS-25" value="Diferencia Con fseek -&gt;-0.103 &#xa;Diferencia Sin Fseek -&gt;+0.3" style="text;whiteSpace=wrap;fontSize=30;" vertex="1" parent="1">
          <mxGeometry x="2359" y="-163.12" width="420" height="83.75" as="geometry" />
        </mxCell>
        <mxCell id="pJvTLGLpxkNK9baVzXqS-27" value="Utilizando fseek:&#xa;        Sin Memoria Cache: 0.028000&#xa;        Con Memoria Cache: 0.113000&#xa;        Aplicando Memoria Cache es peor por 0.085000&#xa;        Tiempo de procesamiento x Post Sin Memoria Cache: 0.000007&#xa;        Tiempo de procesamiento x Usuario Sin Memoria Cache: 0.000139&#xa;        Tiempo de procesamiento x Post CON Memoria Cache: 0.000028&#xa;        Tiempo de procesamiento x Usuario CON Memoria Cache: 0.000562&#xa;Sin utilizar fseek:&#xa;        Sin Memoria Cache: 10.778000&#xa;        Con Memoria Cache: 10.263000&#xa;        Aplicando Memoria Cache es mejor por 0.515000&#xa;        Tiempo de procesamiento x Post Sin Memoria Cache: 0.002681&#xa;        Tiempo de procesamiento x Usuario Sin Memoria Cache: 0.053622&#xa;        Tiempo de procesamiento x Post CON Memoria Cache: 0.002553&#xa;        Tiempo de procesamiento x Usuario CON Memoria Cache: 0.051060" style="text;whiteSpace=wrap;fontSize=30;align=left;" vertex="1" parent="1">
          <mxGeometry x="4507" y="-2480" width="1223" height="247.5" as="geometry" />
        </mxCell>
        <mxCell id="pJvTLGLpxkNK9baVzXqS-28" style="edgeStyle=orthogonalEdgeStyle;rounded=0;orthogonalLoop=1;jettySize=auto;html=1;entryX=0;entryY=0.5;entryDx=0;entryDy=0;" edge="1" source="pJvTLGLpxkNK9baVzXqS-29" target="pJvTLGLpxkNK9baVzXqS-27" parent="1">
          <mxGeometry relative="1" as="geometry" />
        </mxCell>
        <mxCell id="pJvTLGLpxkNK9baVzXqS-29" value="50kTuits Random&#xa;Cap 50k(100% de los tuits)" style="text;whiteSpace=wrap;fontSize=30;" vertex="1" parent="1">
          <mxGeometry x="3960" y="-2398.13" width="397" height="83.75" as="geometry" />
        </mxCell>
        <mxCell id="pJvTLGLpxkNK9baVzXqS-31" value="Utilizando fseek:&#xa;        Sin Memoria Cache: 0.025000&#xa;        Con Memoria Cache: 0.110000&#xa;        Aplicando Memoria Cache es peor por 0.085000&#xa;        Tiempo de procesamiento x Post Sin Memoria Cache: 0.000006&#xa;        Tiempo de procesamiento x Usuario Sin Memoria Cache: 0.000124&#xa;        Tiempo de procesamiento x Post CON Memoria Cache: 0.000027&#xa;        Tiempo de procesamiento x Usuario CON Memoria Cache: 0.000547&#xa;Sin utilizar fseek:&#xa;        Sin Memoria Cache: 10.735000&#xa;        Con Memoria Cache: 10.365000&#xa;        Aplicando Memoria Cache es mejor por 0.370000&#xa;        Tiempo de procesamiento x Post Sin Memoria Cache: 0.002670&#xa;        Tiempo de procesamiento x Usuario Sin Memoria Cache: 0.053408&#xa;        Tiempo de procesamiento x Post CON Memoria Cache: 0.002578&#xa;        Tiempo de procesamiento x Usuario CON Memoria Cache: 0.051567" style="text;whiteSpace=wrap;fontSize=30;align=left;" vertex="1" parent="1">
          <mxGeometry x="4553" y="-1820" width="1257" height="247.5" as="geometry" />
        </mxCell>
        <mxCell id="pJvTLGLpxkNK9baVzXqS-32" style="edgeStyle=orthogonalEdgeStyle;rounded=0;orthogonalLoop=1;jettySize=auto;html=1;entryX=0;entryY=0.5;entryDx=0;entryDy=0;" edge="1" source="pJvTLGLpxkNK9baVzXqS-33" target="pJvTLGLpxkNK9baVzXqS-31" parent="1">
          <mxGeometry relative="1" as="geometry" />
        </mxCell>
        <mxCell id="pJvTLGLpxkNK9baVzXqS-33" value="50kTuits Random&#xa;Cap 37,5k (75% de los tuits)" style="text;whiteSpace=wrap;fontSize=30;" vertex="1" parent="1">
          <mxGeometry x="3960" y="-1755.94" width="446" height="119.38" as="geometry" />
        </mxCell>
        <mxCell id="pJvTLGLpxkNK9baVzXqS-35" value="Utilizando fseek:&#xa;        Sin Memoria Cache: 0.026000&#xa;        Con Memoria Cache: 0.110000&#xa;        Aplicando Memoria Cache es peor por 0.084000&#xa;        Tiempo de procesamiento x Post Sin Memoria Cache: 0.000006&#xa;        Tiempo de procesamiento x Usuario Sin Memoria Cache: 0.000129&#xa;        Tiempo de procesamiento x Post CON Memoria Cache: 0.000027&#xa;        Tiempo de procesamiento x Usuario CON Memoria Cache: 0.000547&#xa;Sin utilizar fseek:&#xa;        Sin Memoria Cache: 10.654000&#xa;        Con Memoria Cache: 10.475000&#xa;        Aplicando Memoria Cache es mejor por 0.179000&#xa;        Tiempo de procesamiento x Post Sin Memoria Cache: 0.002650&#xa;        Tiempo de procesamiento x Usuario Sin Memoria Cache: 0.053005&#xa;        Tiempo de procesamiento x Post CON Memoria Cache: 0.002606&#xa;        Tiempo de procesamiento x Usuario CON Memoria Cache: 0.052114" style="text;whiteSpace=wrap;fontSize=30;align=left;" vertex="1" parent="1">
          <mxGeometry x="4501" y="-1120" width="1434" height="247.5" as="geometry" />
        </mxCell>
        <mxCell id="pJvTLGLpxkNK9baVzXqS-36" style="edgeStyle=orthogonalEdgeStyle;rounded=0;orthogonalLoop=1;jettySize=auto;html=1;entryX=0;entryY=0.5;entryDx=0;entryDy=0;" edge="1" source="pJvTLGLpxkNK9baVzXqS-37" target="pJvTLGLpxkNK9baVzXqS-35" parent="1">
          <mxGeometry relative="1" as="geometry" />
        </mxCell>
        <mxCell id="pJvTLGLpxkNK9baVzXqS-37" value="50kTuits Random&#xa;Cap 25k (50% de la cap)" style="text;whiteSpace=wrap;fontSize=30;" vertex="1" parent="1">
          <mxGeometry x="3997" y="-1038.12" width="348" height="83.75" as="geometry" />
        </mxCell>
        <mxCell id="pJvTLGLpxkNK9baVzXqS-39" value="Utilizando fseek:&#xa;        Sin Memoria Cache: 0.024000&#xa;        Con Memoria Cache: 0.118000&#xa;        Aplicando Memoria Cache es peor por 0.094000&#xa;        Tiempo de procesamiento x Post Sin Memoria Cache: 0.000006&#xa;        Tiempo de procesamiento x Usuario Sin Memoria Cache: 0.000119&#xa;        Tiempo de procesamiento x Post CON Memoria Cache: 0.000029&#xa;        Tiempo de procesamiento x Usuario CON Memoria Cache: 0.000587&#xa;Sin utilizar fseek:&#xa;        Sin Memoria Cache: 10.905000&#xa;        Con Memoria Cache: 10.482000&#xa;        Aplicando Memoria Cache es mejor por 0.423000&#xa;        Tiempo de procesamiento x Post Sin Memoria Cache: 0.002713&#xa;        Tiempo de procesamiento x Usuario Sin Memoria Cache: 0.054254&#xa;        Tiempo de procesamiento x Post CON Memoria Cache: 0.002607&#xa;        Tiempo de procesamiento x Usuario CON Memoria Cache: 0.052149" style="text;whiteSpace=wrap;fontSize=30;align=left;" vertex="1" parent="1">
          <mxGeometry x="4549" y="210" width="1319" height="247.5" as="geometry" />
        </mxCell>
        <mxCell id="pJvTLGLpxkNK9baVzXqS-40" style="edgeStyle=orthogonalEdgeStyle;rounded=0;orthogonalLoop=1;jettySize=auto;html=1;entryX=0;entryY=0.5;entryDx=0;entryDy=0;" edge="1" source="pJvTLGLpxkNK9baVzXqS-41" target="pJvTLGLpxkNK9baVzXqS-39" parent="1">
          <mxGeometry relative="1" as="geometry" />
        </mxCell>
        <mxCell id="pJvTLGLpxkNK9baVzXqS-41" value="50kTuits Random&#xa;Cap 10k (20% de la cap)" style="text;whiteSpace=wrap;fontSize=30;" vertex="1" parent="1">
          <mxGeometry x="4000" y="274.06000000000006" width="366" height="119.38" as="geometry" />
        </mxCell>
        <mxCell id="pJvTLGLpxkNK9baVzXqS-47" value="Utilizando fseek:&#xa;        Sin Memoria Cache: 0.027000&#xa;        Con Memoria Cache: 0.117000&#xa;        Aplicando Memoria Cache es peor por 0.090000&#xa;        Tiempo de procesamiento x Post Sin Memoria Cache: 0.000007&#xa;        Tiempo de procesamiento x Usuario Sin Memoria Cache: 0.000134&#xa;        Tiempo de procesamiento x Post CON Memoria Cache: 0.000029&#xa;        Tiempo de procesamiento x Usuario CON Memoria Cache: 0.000582&#xa;Sin utilizar fseek:&#xa;        Sin Memoria Cache: 10.799000&#xa;        Con Memoria Cache: 10.277000&#xa;        Aplicando Memoria Cache es mejor por 0.522000&#xa;        Tiempo de procesamiento x Post Sin Memoria Cache: 0.002686&#xa;        Tiempo de procesamiento x Usuario Sin Memoria Cache: 0.053726&#xa;        Tiempo de procesamiento x Post CON Memoria Cache: 0.002556&#xa;        Tiempo de procesamiento x Usuario CON Memoria Cache: 0.051129" style="text;whiteSpace=wrap;fontSize=30;align=left;" vertex="1" parent="1">
          <mxGeometry x="4521" y="-438.12" width="1369" height="628.12" as="geometry" />
        </mxCell>
        <mxCell id="pJvTLGLpxkNK9baVzXqS-48" style="edgeStyle=orthogonalEdgeStyle;rounded=0;orthogonalLoop=1;jettySize=auto;html=1;entryX=0;entryY=0.5;entryDx=0;entryDy=0;" edge="1" source="pJvTLGLpxkNK9baVzXqS-49" target="pJvTLGLpxkNK9baVzXqS-47" parent="1">
          <mxGeometry relative="1" as="geometry" />
        </mxCell>
        <mxCell id="pJvTLGLpxkNK9baVzXqS-49" value="50kTuits Random&#xa;Cap 12.5k (25% de la cap)" style="text;whiteSpace=wrap;fontSize=30;" vertex="1" parent="1">
          <mxGeometry x="4000" y="-356.24" width="382" height="83.75" as="geometry" />
        </mxCell>
        <mxCell id="pJvTLGLpxkNK9baVzXqS-51" value="Utilizando fseek:&#xa;        Sin Memoria Cache: 0.028000&#xa;        Con Memoria Cache: 0.113000&#xa;        Aplicando Memoria Cache es peor por 0.085000&#xa;        Tiempo de procesamiento x Post Sin Memoria Cache: 0.000007&#xa;        Tiempo de procesamiento x Usuario Sin Memoria Cache: 0.000139&#xa;        Tiempo de procesamiento x Post CON Memoria Cache: 0.000028&#xa;        Tiempo de procesamiento x Usuario CON Memoria Cache: 0.000562&#xa;Sin utilizar fseek:&#xa;        Sin Memoria Cache: 10.778000&#xa;        Con Memoria Cache: 10.263000&#xa;        Aplicando Memoria Cache es mejor por 0.515000&#xa;        Tiempo de procesamiento x Post Sin Memoria Cache: 0.002681&#xa;        Tiempo de procesamiento x Usuario Sin Memoria Cache: 0.053622&#xa;        Tiempo de procesamiento x Post CON Memoria Cache: 0.002553&#xa;        Tiempo de procesamiento x Usuario CON Memoria Cache: 0.051060" style="text;whiteSpace=wrap;fontSize=30;align=left;" vertex="1" parent="1">
          <mxGeometry x="7417" y="-2360" width="1223" height="247.5" as="geometry" />
        </mxCell>
        <mxCell id="pJvTLGLpxkNK9baVzXqS-52" style="edgeStyle=orthogonalEdgeStyle;rounded=0;orthogonalLoop=1;jettySize=auto;html=1;entryX=0;entryY=0.5;entryDx=0;entryDy=0;" edge="1" source="pJvTLGLpxkNK9baVzXqS-53" target="pJvTLGLpxkNK9baVzXqS-51" parent="1">
          <mxGeometry relative="1" as="geometry" />
        </mxCell>
        <mxCell id="pJvTLGLpxkNK9baVzXqS-53" value="50kTuits Random&#xa;Cap 50k(100% de los tuits)" style="text;whiteSpace=wrap;fontSize=30;" vertex="1" parent="1">
          <mxGeometry x="6870" y="-2278.13" width="397" height="83.75" as="geometry" />
        </mxCell>
        <mxCell id="pJvTLGLpxkNK9baVzXqS-54" value="Utilizando fseek:&#xa;        Sin Memoria Cache: 0.025000&#xa;        Con Memoria Cache: 0.110000&#xa;        Aplicando Memoria Cache es peor por 0.085000&#xa;        Tiempo de procesamiento x Post Sin Memoria Cache: 0.000006&#xa;        Tiempo de procesamiento x Usuario Sin Memoria Cache: 0.000124&#xa;        Tiempo de procesamiento x Post CON Memoria Cache: 0.000027&#xa;        Tiempo de procesamiento x Usuario CON Memoria Cache: 0.000547&#xa;Sin utilizar fseek:&#xa;        Sin Memoria Cache: 10.735000&#xa;        Con Memoria Cache: 10.365000&#xa;        Aplicando Memoria Cache es mejor por 0.370000&#xa;        Tiempo de procesamiento x Post Sin Memoria Cache: 0.002670&#xa;        Tiempo de procesamiento x Usuario Sin Memoria Cache: 0.053408&#xa;        Tiempo de procesamiento x Post CON Memoria Cache: 0.002578&#xa;        Tiempo de procesamiento x Usuario CON Memoria Cache: 0.051567" style="text;whiteSpace=wrap;fontSize=30;align=left;" vertex="1" parent="1">
          <mxGeometry x="7463" y="-1700" width="1257" height="247.5" as="geometry" />
        </mxCell>
        <mxCell id="pJvTLGLpxkNK9baVzXqS-55" style="edgeStyle=orthogonalEdgeStyle;rounded=0;orthogonalLoop=1;jettySize=auto;html=1;entryX=0;entryY=0.5;entryDx=0;entryDy=0;" edge="1" source="pJvTLGLpxkNK9baVzXqS-56" target="pJvTLGLpxkNK9baVzXqS-54" parent="1">
          <mxGeometry relative="1" as="geometry" />
        </mxCell>
        <mxCell id="pJvTLGLpxkNK9baVzXqS-56" value="50kTuits Random&#xa;Cap 37,5k (75% de los tuits)" style="text;whiteSpace=wrap;fontSize=30;" vertex="1" parent="1">
          <mxGeometry x="6870" y="-1635.94" width="446" height="119.38" as="geometry" />
        </mxCell>
        <mxCell id="pJvTLGLpxkNK9baVzXqS-57" value="Utilizando fseek:&#xa;        Sin Memoria Cache: 0.026000&#xa;        Con Memoria Cache: 0.110000&#xa;        Aplicando Memoria Cache es peor por 0.084000&#xa;        Tiempo de procesamiento x Post Sin Memoria Cache: 0.000006&#xa;        Tiempo de procesamiento x Usuario Sin Memoria Cache: 0.000129&#xa;        Tiempo de procesamiento x Post CON Memoria Cache: 0.000027&#xa;        Tiempo de procesamiento x Usuario CON Memoria Cache: 0.000547&#xa;Sin utilizar fseek:&#xa;        Sin Memoria Cache: 10.654000&#xa;        Con Memoria Cache: 10.475000&#xa;        Aplicando Memoria Cache es mejor por 0.179000&#xa;        Tiempo de procesamiento x Post Sin Memoria Cache: 0.002650&#xa;        Tiempo de procesamiento x Usuario Sin Memoria Cache: 0.053005&#xa;        Tiempo de procesamiento x Post CON Memoria Cache: 0.002606&#xa;        Tiempo de procesamiento x Usuario CON Memoria Cache: 0.052114" style="text;whiteSpace=wrap;fontSize=30;align=left;" vertex="1" parent="1">
          <mxGeometry x="7411" y="-1000" width="1434" height="247.5" as="geometry" />
        </mxCell>
        <mxCell id="pJvTLGLpxkNK9baVzXqS-58" style="edgeStyle=orthogonalEdgeStyle;rounded=0;orthogonalLoop=1;jettySize=auto;html=1;entryX=0;entryY=0.5;entryDx=0;entryDy=0;" edge="1" source="pJvTLGLpxkNK9baVzXqS-59" target="pJvTLGLpxkNK9baVzXqS-57" parent="1">
          <mxGeometry relative="1" as="geometry" />
        </mxCell>
        <mxCell id="pJvTLGLpxkNK9baVzXqS-59" value="50kTuits Random&#xa;Cap 25k (50% de la cap)" style="text;whiteSpace=wrap;fontSize=30;" vertex="1" parent="1">
          <mxGeometry x="6907" y="-918.1199999999999" width="348" height="83.75" as="geometry" />
        </mxCell>
        <mxCell id="pJvTLGLpxkNK9baVzXqS-60" value="Utilizando fseek:&#xa;        Sin Memoria Cache: 0.024000&#xa;        Con Memoria Cache: 0.118000&#xa;        Aplicando Memoria Cache es peor por 0.094000&#xa;        Tiempo de procesamiento x Post Sin Memoria Cache: 0.000006&#xa;        Tiempo de procesamiento x Usuario Sin Memoria Cache: 0.000119&#xa;        Tiempo de procesamiento x Post CON Memoria Cache: 0.000029&#xa;        Tiempo de procesamiento x Usuario CON Memoria Cache: 0.000587&#xa;Sin utilizar fseek:&#xa;        Sin Memoria Cache: 10.905000&#xa;        Con Memoria Cache: 10.482000&#xa;        Aplicando Memoria Cache es mejor por 0.423000&#xa;        Tiempo de procesamiento x Post Sin Memoria Cache: 0.002713&#xa;        Tiempo de procesamiento x Usuario Sin Memoria Cache: 0.054254&#xa;        Tiempo de procesamiento x Post CON Memoria Cache: 0.002607&#xa;        Tiempo de procesamiento x Usuario CON Memoria Cache: 0.052149" style="text;whiteSpace=wrap;fontSize=30;align=left;" vertex="1" parent="1">
          <mxGeometry x="7459" y="330" width="1319" height="247.5" as="geometry" />
        </mxCell>
        <mxCell id="pJvTLGLpxkNK9baVzXqS-61" style="edgeStyle=orthogonalEdgeStyle;rounded=0;orthogonalLoop=1;jettySize=auto;html=1;entryX=0;entryY=0.5;entryDx=0;entryDy=0;" edge="1" source="pJvTLGLpxkNK9baVzXqS-62" target="pJvTLGLpxkNK9baVzXqS-60" parent="1">
          <mxGeometry relative="1" as="geometry" />
        </mxCell>
        <mxCell id="pJvTLGLpxkNK9baVzXqS-62" value="50kTuits Random&#xa;Cap 10k (20% de la cap)" style="text;whiteSpace=wrap;fontSize=30;" vertex="1" parent="1">
          <mxGeometry x="6910" y="394.06000000000006" width="366" height="119.38" as="geometry" />
        </mxCell>
        <mxCell id="pJvTLGLpxkNK9baVzXqS-63" value="Utilizando fseek:&#xa;        Sin Memoria Cache: 0.027000&#xa;        Con Memoria Cache: 0.117000&#xa;        Aplicando Memoria Cache es peor por 0.090000&#xa;        Tiempo de procesamiento x Post Sin Memoria Cache: 0.000007&#xa;        Tiempo de procesamiento x Usuario Sin Memoria Cache: 0.000134&#xa;        Tiempo de procesamiento x Post CON Memoria Cache: 0.000029&#xa;        Tiempo de procesamiento x Usuario CON Memoria Cache: 0.000582&#xa;Sin utilizar fseek:&#xa;        Sin Memoria Cache: 10.799000&#xa;        Con Memoria Cache: 10.277000&#xa;        Aplicando Memoria Cache es mejor por 0.522000&#xa;        Tiempo de procesamiento x Post Sin Memoria Cache: 0.002686&#xa;        Tiempo de procesamiento x Usuario Sin Memoria Cache: 0.053726&#xa;        Tiempo de procesamiento x Post CON Memoria Cache: 0.002556&#xa;        Tiempo de procesamiento x Usuario CON Memoria Cache: 0.051129" style="text;whiteSpace=wrap;fontSize=30;align=left;" vertex="1" parent="1">
          <mxGeometry x="7431" y="-318.12" width="1369" height="628.12" as="geometry" />
        </mxCell>
        <mxCell id="pJvTLGLpxkNK9baVzXqS-64" style="edgeStyle=orthogonalEdgeStyle;rounded=0;orthogonalLoop=1;jettySize=auto;html=1;entryX=0;entryY=0.5;entryDx=0;entryDy=0;" edge="1" source="pJvTLGLpxkNK9baVzXqS-65" target="pJvTLGLpxkNK9baVzXqS-63" parent="1">
          <mxGeometry relative="1" as="geometry" />
        </mxCell>
        <mxCell id="pJvTLGLpxkNK9baVzXqS-65" value="50kTuits Random&#xa;Cap 12.5k (25% de la cap)" style="text;whiteSpace=wrap;fontSize=30;" vertex="1" parent="1">
          <mxGeometry x="6910" y="-236.24" width="382" height="83.75" as="geometry" />
        </mxCell>
        <mxCell id="9Y6WNIz73M-P5OV9HJ-g-2" value="Utilizando fseek:&#xa;        Sin Memoria Cache: 0.021000&#xa;        Con Memoria Cache: 0.036000&#xa;Sin Utilizar fseek:&#xa;        Sin Memoria Cache: 11.845000&#xa;        Con Memoria Cache: 5.645000&#xa;" style="text;whiteSpace=wrap;fontSize=30;align=left;" vertex="1" parent="1">
          <mxGeometry x="2137" y="1169" width="530" height="247.5" as="geometry" />
        </mxCell>
        <mxCell id="9Y6WNIz73M-P5OV9HJ-g-3" style="edgeStyle=orthogonalEdgeStyle;rounded=0;orthogonalLoop=1;jettySize=auto;html=1;entryX=0;entryY=0.5;entryDx=0;entryDy=0;" edge="1" parent="1" source="9Y6WNIz73M-P5OV9HJ-g-4" target="9Y6WNIz73M-P5OV9HJ-g-2">
          <mxGeometry relative="1" as="geometry" />
        </mxCell>
        <mxCell id="9Y6WNIz73M-P5OV9HJ-g-4" value="50k Tuits: Feeds Iguales miti miti&#xa;Cap 50k(100% de la cap)" style="text;whiteSpace=wrap;fontSize=30;" vertex="1" parent="1">
          <mxGeometry x="1538" y="1250.87" width="449" height="83.75" as="geometry" />
        </mxCell>
        <mxCell id="9Y6WNIz73M-P5OV9HJ-g-6" value="Utilizando fseek:&#xa;        Sin Memoria Cache: 0.022000&#xa;        Con Memoria Cache: 0.034000&#xa;Sin Utilizar fseek:&#xa;        Sin Memoria Cache: 11.532000&#xa;        Con Memoria Cache: 5.694000&#xa;" style="text;whiteSpace=wrap;fontSize=30;align=left;" vertex="1" parent="1">
          <mxGeometry x="2149" y="1713.75" width="520" height="247.5" as="geometry" />
        </mxCell>
        <mxCell id="9Y6WNIz73M-P5OV9HJ-g-7" style="edgeStyle=orthogonalEdgeStyle;rounded=0;orthogonalLoop=1;jettySize=auto;html=1;entryX=0;entryY=0.5;entryDx=0;entryDy=0;" edge="1" parent="1" source="9Y6WNIz73M-P5OV9HJ-g-8" target="9Y6WNIz73M-P5OV9HJ-g-6">
          <mxGeometry relative="1" as="geometry" />
        </mxCell>
        <mxCell id="9Y6WNIz73M-P5OV9HJ-g-8" value="50kTuits: Feeds Iguales miti miti&#xa;Cap 37,5k (75% de la cap)" style="text;whiteSpace=wrap;fontSize=30;" vertex="1" parent="1">
          <mxGeometry x="1530" y="1777.81" width="475" height="119.38" as="geometry" />
        </mxCell>
        <mxCell id="9Y6WNIz73M-P5OV9HJ-g-10" value="Utilizando fseek:&#xa;        Sin Memoria Cache: 0.021000&#xa;        Con Memoria Cache: 0.037000&#xa;Sin Utilizar fseek:&#xa;        Sin Memoria Cache: 11.503000&#xa;        Con Memoria Cache: 5.703000&#xa;" style="text;whiteSpace=wrap;fontSize=30;align=left;" vertex="1" parent="1">
          <mxGeometry x="2141" y="2000" width="528" height="247.5" as="geometry" />
        </mxCell>
        <mxCell id="9Y6WNIz73M-P5OV9HJ-g-11" style="edgeStyle=orthogonalEdgeStyle;rounded=0;orthogonalLoop=1;jettySize=auto;html=1;entryX=0;entryY=0.5;entryDx=0;entryDy=0;" edge="1" parent="1" source="9Y6WNIz73M-P5OV9HJ-g-12" target="9Y6WNIz73M-P5OV9HJ-g-10">
          <mxGeometry relative="1" as="geometry" />
        </mxCell>
        <mxCell id="9Y6WNIz73M-P5OV9HJ-g-12" value="50kTuits: Feeds Iguales miti miti&#xa;Cap 25k (50% de la cap)" style="text;whiteSpace=wrap;fontSize=30;" vertex="1" parent="1">
          <mxGeometry x="1530" y="2081.88" width="455" height="83.75" as="geometry" />
        </mxCell>
        <mxCell id="9Y6WNIz73M-P5OV9HJ-g-14" value="Utilizando fseek:&#xa;        Sin Memoria Cache: 0.019000&#xa;        Con Memoria Cache: 0.035000&#xa;Sin Utilizar fseek:&#xa;        Sin Memoria Cache: 11.493000&#xa;        Con Memoria Cache: 5.644000&#xa;" style="text;whiteSpace=wrap;fontSize=30;align=left;" vertex="1" parent="1">
          <mxGeometry x="2131" y="2585" width="528" height="247.5" as="geometry" />
        </mxCell>
        <mxCell id="9Y6WNIz73M-P5OV9HJ-g-15" style="edgeStyle=orthogonalEdgeStyle;rounded=0;orthogonalLoop=1;jettySize=auto;html=1;entryX=0;entryY=0.5;entryDx=0;entryDy=0;" edge="1" parent="1" source="9Y6WNIz73M-P5OV9HJ-g-16" target="9Y6WNIz73M-P5OV9HJ-g-14">
          <mxGeometry relative="1" as="geometry" />
        </mxCell>
        <mxCell id="9Y6WNIz73M-P5OV9HJ-g-16" value="50kTuits: Feeds Iguales  miti miti&#xa;Cap 10k (20% de la cap)" style="text;whiteSpace=wrap;fontSize=30;" vertex="1" parent="1">
          <mxGeometry x="1538" y="2649.06" width="473" height="119.38" as="geometry" />
        </mxCell>
        <mxCell id="9Y6WNIz73M-P5OV9HJ-g-22" value="Utilizando fseek:&#xa;        Sin Memoria Cache: 0.019000&#xa;        Con Memoria Cache: 0.035000&#xa;Sin Utilizar fseek:&#xa;        Sin Memoria Cache: 11.409000&#xa;        Con Memoria Cache: 5.549000&#xa;" style="text;whiteSpace=wrap;fontSize=30;align=left;" vertex="1" parent="1">
          <mxGeometry x="2141" y="2275" width="528" height="247.5" as="geometry" />
        </mxCell>
        <mxCell id="9Y6WNIz73M-P5OV9HJ-g-23" style="edgeStyle=orthogonalEdgeStyle;rounded=0;orthogonalLoop=1;jettySize=auto;html=1;entryX=0;entryY=0.5;entryDx=0;entryDy=0;" edge="1" parent="1" source="9Y6WNIz73M-P5OV9HJ-g-24" target="9Y6WNIz73M-P5OV9HJ-g-22">
          <mxGeometry relative="1" as="geometry" />
        </mxCell>
        <mxCell id="9Y6WNIz73M-P5OV9HJ-g-24" value="50kTuits: Feeds Iguales miti miti&#xa;Cap 12.5k (25% de la cap)" style="text;whiteSpace=wrap;fontSize=30;" vertex="1" parent="1">
          <mxGeometry x="1530" y="2356.88" width="472" height="83.75" as="geometry" />
        </mxCell>
        <mxCell id="6tOFYGQmNrws5vcWBrxg-2" value="Utilizando fseek:&#xa;        Sin Memoria Cache: 0.021000&#xa;        Con Memoria Cache: 0.001000&#xa;        Aplicando Memoria Cache es mejor por 0.020000&#xa;        Tiempo de procesamiento x Post Sin Memoria Cache: 0.000005&#xa;        Tiempo de procesamiento x Usuario Sin Memoria Cache: 0.000104&#xa;        Tiempo de procesamiento x Post CON Memoria Cache: 0.000000&#xa;        Tiempo de procesamiento x Usuario CON Memoria Cache: 0.000005&#xa;Sin utilizar fseek:&#xa;        Sin Memoria Cache: 10.430000&#xa;        Con Memoria Cache: 0.053000&#xa;        Aplicando Memoria Cache es mejor por 10.377000&#xa;        Tiempo de procesamiento x Post Sin Memoria Cache: 0.002595&#xa;        Tiempo de procesamiento x Usuario Sin Memoria Cache: 0.051891&#xa;        Tiempo de procesamiento x Post CON Memoria Cache: 0.000013&#xa;        Tiempo de procesamiento x Usuario CON Memoria Cache: 0.000264" style="text;whiteSpace=wrap;fontSize=30;align=left;" vertex="1" parent="1">
          <mxGeometry x="4690" y="1280" width="1421" height="247.5" as="geometry" />
        </mxCell>
        <mxCell id="6tOFYGQmNrws5vcWBrxg-3" style="edgeStyle=orthogonalEdgeStyle;rounded=0;orthogonalLoop=1;jettySize=auto;html=1;entryX=0;entryY=0.5;entryDx=0;entryDy=0;" edge="1" parent="1" source="6tOFYGQmNrws5vcWBrxg-4" target="6tOFYGQmNrws5vcWBrxg-2">
          <mxGeometry relative="1" as="geometry" />
        </mxCell>
        <mxCell id="6tOFYGQmNrws5vcWBrxg-4" value="50k Tuits: Feeds Iguales&#xa;Cap 20(100% de cantFeed)" style="text;whiteSpace=wrap;fontSize=30;" vertex="1" parent="1">
          <mxGeometry x="4126" y="1361.87" width="414" height="83.75" as="geometry" />
        </mxCell>
        <mxCell id="6tOFYGQmNrws5vcWBrxg-6" value="Utilizando fseek:&#xa;        Sin Memoria Cache: 0.024000&#xa;        Con Memoria Cache: 0.020000&#xa;        Aplicando Memoria Cache es mejor por 0.004000&#xa;        Tiempo de procesamiento x Post Sin Memoria Cache: 0.000006&#xa;        Tiempo de procesamiento x Usuario Sin Memoria Cache: 0.000119&#xa;        Tiempo de procesamiento x Post CON Memoria Cache: 0.000005&#xa;        Tiempo de procesamiento x Usuario CON Memoria Cache: 0.000100&#xa;Sin utilizar fseek:&#xa;        Sin Memoria Cache: 10.636000&#xa;        Con Memoria Cache: 10.755000&#xa;        Aplicando Memoria Cache es peor por 0.119000&#xa;        Tiempo de procesamiento x Post Sin Memoria Cache: 0.002646&#xa;        Tiempo de procesamiento x Usuario Sin Memoria Cache: 0.052915&#xa;        Tiempo de procesamiento x Post CON Memoria Cache: 0.002675&#xa;        Tiempo de procesamiento x Usuario CON Memoria Cache: 0.053507" style="text;whiteSpace=wrap;fontSize=30;align=left;" vertex="1" parent="1">
          <mxGeometry x="4729" y="1923.75" width="1331" height="247.5" as="geometry" />
        </mxCell>
        <mxCell id="6tOFYGQmNrws5vcWBrxg-7" style="edgeStyle=orthogonalEdgeStyle;rounded=0;orthogonalLoop=1;jettySize=auto;html=1;entryX=0;entryY=0.5;entryDx=0;entryDy=0;" edge="1" parent="1" source="6tOFYGQmNrws5vcWBrxg-8" target="6tOFYGQmNrws5vcWBrxg-6">
          <mxGeometry relative="1" as="geometry" />
        </mxCell>
        <mxCell id="6tOFYGQmNrws5vcWBrxg-8" value="50kTuits: Feeds Iguales&#xa;Cap 15 (75% de cantFeed)" style="text;whiteSpace=wrap;fontSize=30;" vertex="1" parent="1">
          <mxGeometry x="4155" y="1987.81" width="430" height="119.38" as="geometry" />
        </mxCell>
        <mxCell id="6tOFYGQmNrws5vcWBrxg-10" value="Utilizando fseek:&#xa;        Sin Memoria Cache: 0.019000&#xa;        Con Memoria Cache: 0.019000&#xa;        Aplicando Memoria Cache es peor por 0.000000&#xa;        Tiempo de procesamiento x Post Sin Memoria Cache: 0.000005&#xa;        Tiempo de procesamiento x Usuario Sin Memoria Cache: 0.000095&#xa;        Tiempo de procesamiento x Post CON Memoria Cache: 0.000005&#xa;        Tiempo de procesamiento x Usuario CON Memoria Cache: 0.000095&#xa;Sin utilizar fseek:&#xa;        Sin Memoria Cache: 10.766000&#xa;        Con Memoria Cache: 10.844000&#xa;        Aplicando Memoria Cache es peor por 0.078000&#xa;        Tiempo de procesamiento x Post Sin Memoria Cache: 0.002678&#xa;        Tiempo de procesamiento x Usuario Sin Memoria Cache: 0.053562&#xa;        Tiempo de procesamiento x Post CON Memoria Cache: 0.002698&#xa;        Tiempo de procesamiento x Usuario CON Memoria Cache: 0.053950" style="text;whiteSpace=wrap;fontSize=30;align=left;" vertex="1" parent="1">
          <mxGeometry x="4776" y="2730" width="1384" height="247.5" as="geometry" />
        </mxCell>
        <mxCell id="6tOFYGQmNrws5vcWBrxg-11" style="edgeStyle=orthogonalEdgeStyle;rounded=0;orthogonalLoop=1;jettySize=auto;html=1;entryX=0;entryY=0.5;entryDx=0;entryDy=0;" edge="1" parent="1" source="6tOFYGQmNrws5vcWBrxg-12" target="6tOFYGQmNrws5vcWBrxg-10">
          <mxGeometry relative="1" as="geometry" />
        </mxCell>
        <mxCell id="6tOFYGQmNrws5vcWBrxg-12" value="50kTuits: Feeds Iguales&#xa;Cap 10 (50% de cantFeed)" style="text;whiteSpace=wrap;fontSize=30;" vertex="1" parent="1">
          <mxGeometry x="4200" y="2811.88" width="420" height="83.75" as="geometry" />
        </mxCell>
        <mxCell id="6tOFYGQmNrws5vcWBrxg-14" value="Utilizando fseek:&#xa;        Sin Memoria Cache: 0.018000&#xa;        Con Memoria Cache: 0.020000&#xa;        Aplicando Memoria Cache es peor por 0.002000&#xa;        Tiempo de procesamiento x Post Sin Memoria Cache: 0.000004&#xa;        Tiempo de procesamiento x Usuario Sin Memoria Cache: 0.000090&#xa;        Tiempo de procesamiento x Post CON Memoria Cache: 0.000005&#xa;        Tiempo de procesamiento x Usuario CON Memoria Cache: 0.000100&#xa;Sin utilizar fseek:&#xa;        Sin Memoria Cache: 10.626000&#xa;        Con Memoria Cache: 10.867000&#xa;        Aplicando Memoria Cache es peor por 0.241000&#xa;        Tiempo de procesamiento x Post Sin Memoria Cache: 0.002643&#xa;        Tiempo de procesamiento x Usuario Sin Memoria Cache: 0.052866&#xa;        Tiempo de procesamiento x Post CON Memoria Cache: 0.002703&#xa;        Tiempo de procesamiento x Usuario CON Memoria Cache: 0.054065" style="text;whiteSpace=wrap;fontSize=30;align=left;" vertex="1" parent="1">
          <mxGeometry x="4906" y="4010" width="1294" height="247.5" as="geometry" />
        </mxCell>
        <mxCell id="6tOFYGQmNrws5vcWBrxg-15" style="edgeStyle=orthogonalEdgeStyle;rounded=0;orthogonalLoop=1;jettySize=auto;html=1;entryX=0;entryY=0.5;entryDx=0;entryDy=0;" edge="1" parent="1" source="6tOFYGQmNrws5vcWBrxg-16" target="6tOFYGQmNrws5vcWBrxg-14">
          <mxGeometry relative="1" as="geometry" />
        </mxCell>
        <mxCell id="6tOFYGQmNrws5vcWBrxg-16" value="50kTuits: Feeds Iguales&#xa;Cap 4 (20% de cantFeed)" style="text;whiteSpace=wrap;fontSize=30;" vertex="1" parent="1">
          <mxGeometry x="4340" y="4074.06" width="428" height="119.38" as="geometry" />
        </mxCell>
        <mxCell id="6tOFYGQmNrws5vcWBrxg-22" value="Utilizando fseek:&#xa;        Sin Memoria Cache: 0.021000&#xa;        Con Memoria Cache: 0.020000&#xa;        Aplicando Memoria Cache es mejor por 0.001000&#xa;        Tiempo de procesamiento x Post Sin Memoria Cache: 0.000005&#xa;        Tiempo de procesamiento x Usuario Sin Memoria Cache: 0.000104&#xa;        Tiempo de procesamiento x Post CON Memoria Cache: 0.000005&#xa;        Tiempo de procesamiento x Usuario CON Memoria Cache: 0.000100&#xa;Sin utilizar fseek:&#xa;        Sin Memoria Cache: 10.531000&#xa;        Con Memoria Cache: 10.906000&#xa;        Aplicando Memoria Cache es peor por 0.375000&#xa;        Tiempo de procesamiento x Post Sin Memoria Cache: 0.002620&#xa;        Tiempo de procesamiento x Usuario Sin Memoria Cache: 0.052393&#xa;        Tiempo de procesamiento x Post CON Memoria Cache: 0.002713&#xa;        Tiempo de procesamiento x Usuario CON Memoria Cache: 0.054259" style="text;whiteSpace=wrap;fontSize=30;align=left;" vertex="1" parent="1">
          <mxGeometry x="4856" y="3380" width="1364" height="247.5" as="geometry" />
        </mxCell>
        <mxCell id="6tOFYGQmNrws5vcWBrxg-23" style="edgeStyle=orthogonalEdgeStyle;rounded=0;orthogonalLoop=1;jettySize=auto;html=1;entryX=0;entryY=0.5;entryDx=0;entryDy=0;" edge="1" parent="1" source="6tOFYGQmNrws5vcWBrxg-24" target="6tOFYGQmNrws5vcWBrxg-22">
          <mxGeometry relative="1" as="geometry" />
        </mxCell>
        <mxCell id="6tOFYGQmNrws5vcWBrxg-24" value="50kTuits: Feeds Iguales&#xa;Cap 5 (25% de cantFeed)" style="text;whiteSpace=wrap;fontSize=30;" vertex="1" parent="1">
          <mxGeometry x="4270" y="3461.88" width="447" height="83.75" as="geometry" />
        </mxCell>
        <mxCell id="6tOFYGQmNrws5vcWBrxg-26" value="" style="shape=image;verticalLabelPosition=bottom;labelBackgroundColor=default;verticalAlign=top;aspect=fixed;imageAspect=0;image=data:image/png,iVBORw0KGgoAAAANSUhEUgAAA50AAAJBCAYAAADFp9GqAAAAAXNSR0IArs4c6QAAAARnQU1BAACxjwv8YQUAAAAJcEhZcwAADsMAAA7DAcdvqGQAAP+lSURBVHhe7P1fbGNPlueJHfb83Z2EPbOe3RciM4HNqhZ3PIDHi4UBlnK9omAbKPFhG37ggyRAgGFXU4SBaj/wgcLoSQ3xgYBRZRsSu95kizJM2HD7gSrbMFKyN9X0i21gdzCQ+lfpnczcC8/uYuD5656Znhk5TsSN+zcueW/cP7qSvh/8+EvqksGIOHHiz4k4EdEgokfxAgAAAAAAAAAACue33H8BAAAAAAAAAIDCgdEJAAAAAAAAAKA0YHQCAAAAAAAAACgNGJ0AAAAAAAAAAEpj7UFC/81/99+j/+pf/svuX+n5B3///0v/r//n/8P9CwAAAAAAAADAa2St0Tn/3/0f6N/+8CPxLulrDWrwrwicv/v3xNfU9/7xP/x7tNv778v3AAAAAAAAAABeJ2uNzv/z/+WG/tv//k+0LZkKNkL/o7v/O/13t/8D9wkAAAAAAAAAgNfI2j2df+a3GvR3vv4X9MvZHf3P/tef6X/+v/mP6H/xv/2/0dn//v9K/+n/26E/+Sf/iP7L//zvytf/T7z/X/2f/mP6X/4f/2M3dBI/o2thxT4GXj/84ifuZ0H4e9fi/0XBv/cDGaPKTFLaonkrKr58/OxapOU6mtoi5eHyk1/QD6XnOSrjJP0pEnN5S7lG0qLS84vUaTSXjYm85ZU1D2kiskhTah2JlnOJepVTb+uhB1F5PZL/c6Yw+hn/m9SWJcgklbxW/W44naXp2krM6UN9ELzq+uD+WSpPFH/mcv0J/eKHgAx/+IV4wo/z6cfT4epEgl795Bc/iHy6+QrlMW3Z5C1DN33eqwwZo0xVHqsqUxBkrdHZaLD77J+hv/MP/jH9nX/0j+nbn/xD+v7P/gH9Z3/69+lP//RfEj3+K/ebPn/mz8efxfkN/XKTf5tfv0s//PzOoDS/oj/89U/pd9L0O5WzKm1+3jZ/SfTzC7dSPxWiog1//Gv69Y+H5VecP/o9+nHjx/R7f8R/lFlZ0+hPlDzpMZf3r3b8NPw6kKYf/97fFp+mSGOVZZM5D7IQiyekI+soqy5FdCFTmuLURw8Ccf3ur+mnf2Ay+qJYtLOp5JWujUyUSemgPvigPrwKspSrHKDf0W9PdFmJ1wFRjwWYUz+KJ0vf/hv6jVGvfkZ/8+e8lcyltDyuS2tRddwQD8r0icoUaNYanf/iXyoD8t/8q3+BGn/+T+kf/Ok/pP/yn/49+rt/8l/I5+yhy563j66X7l/8K/+U/vW/+k/k+/T8inZE7frNT39HFF2YX/3+L+nHmUZD1ZEmbX/0exP69Y+61HtCZfxJr0u0+H36/QVR9ykTUhrJ+lMk+XTRnMaqy6bO9WkddahL+alQD371h2LA/2P6ayl+riy9SPe71dRfE6gPT0096wP4Cf3i4uf0w+82aOdX7iNGDNp/L/j3M+WHHwx69bPfoZ/++tdCR+pDsXUcZQqentRXpvzt//w/o//07/9/6O//i79Pf0L/iP554x+7nyiTsyG3hxL9pb/yj+lff6M/y8AfzWnxG3fW+WfX/pI/P4/NYERnFYJ/u+9/IX7DdR9Y6b6jXQy8mVY3/M94Rkh9xh+pJfrI7xnTtgr129fX/FvujKucefLTEZrwDXym3JLCeQz+jjkvzE9I9t/zPxLJlT148qxZYnzhz/jlRxFNiys/6bL3B/RT+hH9/E6nyf0sjWyZVbKJEtQfQVwepvQIEuMIu6DI55nLO0IkjRxH6rJZSVIZuB8H/06dh+hvmmQa4K8Hdcf/8ZV1TH8tSzl7ZElftCw5bIJuekk3lL98bJPWCKXpQQTucH+zIPGz61mlF8ayDcrLfW9qc9PqW1QmITmr8vVYmx4m8nfg90JtG+oD6kMaYvqo5OGVbXDMwqzS31SY5B0tk/Dfq3QrsW9IKr+f9Kj7o1/THyYaI8Hfcd8njrmy58Usv6R4+Hm8b19VP//49yf0w8//pvu7jEjj8Mf0y9//Q/dvJprGBAJp/eEXf819qIinwZzW1CSVV0zGhnhQpoJoGhOoskxfGamNzn9K/4T+3L/2p/Rn/6J4/YU/pT/3F/+5+wmbm+7xtYLWX31HP/rLH9y/iuCP6PcmP8RnMFYiCv+3/1C5Dvzur+lHIUX0CbkA/TQ48BDhh0QHbvif/sEjXdCB4ffWp+0nvxhGOrof0Y//mH9rh37FynqnZp7kb2/+kn78B7pChD87oK5Q6iDB31mRF25oyI2fO3fxlzm5q+JblU4mnBbFr2gn6FrlTa2lle26OFcTl4cpPSvi+NnfpJ//8Lvub+iZQRtdXEHqskmDqQxMZMlDSh0LlqmQIf38wvssOYwmfTmvrktJcXHneEfdxab7GZdlkm5qTGH4eT6dTKRgPZAdH3eIvyPawB//nijxNCTpRXLZhhHfM7a5NnWG5Swk4rlFEg29SNOmJ0i43MJtG+oD6sM6TPpI9Hs/Ztdg1nPx+R8Q/a7326bvZ8yAsf9ZzSp9NPcNa8rvN39Mf8t9u56k+p+kO6tYJT9TPGb9XV3XIq71QZ3LRFiG0XFaPA3r6lqYcB1fUV4xfUmIB2WagnLL9LWT2uj8s8Lg/HPC4Pxzf+Gfq9efV0anaMrlv5of/ZV/W77s+A39MdeIX+2EO4df/SH9kGm2UxT+77sFv8qlhmcn5YwFz1IEEeEP3Phl+N/IWVdJ9PeMafM7uruf/xDojJjAb/3kr4lfCsw8/dHv0eTXP6Lf/uviPX/2m1+SzoZ0s1BvXQK/wyTkRbkpzd34/4h44vjnf1PXygCr4luVTkkkLStJKdu1cZpw9YdJLNsAq+L4W39Mv/npH0Rm9wTG8s6Cn8bUZZOKDGWQOg/pdCxUptFyWlcOa8s5ZV1iTHFxx/OjX9MkyyaOpDBWOplEeXogOz4xIMnsrmrUixVlG0J8L6nNzaBvUiZSzn65P/7BT+lHXqRp0xOAf29VW4r6sJrXWh80ifooBpti8PwHQr70uwGDbqX+piSp/1nFCn009g3ryu9Hv03pU51Q/630bZX8VrQzUdbUNelaP1Sr0z/7m8LImATrUko4ravalnX13UhCHV9VXmn1BWW6nlLKFGhSG51saP7Zv6gMzj//F/6Zb3QGbU7x/k//xb+gP/mTf+o+yIBU5B/obxs15Ff0hz/8nKz7HRO8fM59hZyx2KRf/sZ9nhlT2tyOTv52dHaxBBLzojZR/4gPapCVhBuxHxE9wd6p0gnqTxFlKxr0H4vwB3Qh5eZ7TOTQxZCOP2XZWOQhtUx/Qn/tx/ptEXUsZV0qrD5XQBV6IPT34Jc/Dswm/y3646hM5EAg2Oau04tA2WYihb7F2v9fu2Xpvoyzx7bpiYL68KTUtj4ESaOPQdZ9f038if1PAkWXd8zluWqyyjtCGnnoVfSf8aFVvpFRGNZlYjF+TKMvKNP8PKd2taasNzqFcP/ZP/sT+m/91Q/07/3lH9O/+1/5bfobf+nfof/Gv/Zfl8+DsLL/q3/5L+lf/qs0p9cG0cvZbgXjmYTg/ghB+MAHbrCDs8e/k33G4a//Nv1IuxrITk8+tcL6MIo/+tuiiwm6A4iK8lN3Jos/+5E/EJJuFuptnKS8yD0sv6RNXcm9imJoeFbFtyqdZZEpzoj+pC3bFHH80e/9mDZFy/LjwNSbXXlHdTxD2WRmff3InIeVMv2R754oP3NlmKYcitKtpLjcjjaTe1tSmELSWp0e8AztD55r5x/R3/7hR6GTEHkm+Ee//sPQoCauFwllm5HV+haRiStnc5klpWeFzvPvrWlLUR9W8Crrg0iX3vuVqI/iO3IAysudgX2bK/VXk64+hvufFTqeRreirCw/djtX219CBoz4zi+ylEOivq2pr2vlt4ZU8lCu9T//g58HVtbTENGNpLbFpkxWsbK8FKbxig/KNJknKtNXyFqj81/9q0f6dzbeUn/7v0O/+x/89+h/9O//lP6H//5/SP+Dzf9QPv9Lf+kv0b/1b/2b9G/81/4N+nN//s9Lg/O3fsvf45lMYKn9cUh/vLnGL5wV3Tvwwa88Mvzv8BxKRn71+/RL+jndcfiL36Yf8sxYhNKWhV/Jk/t+rPMhfd7dzpc/+10/jxe0SM5jQl5+9js/pd/EKh67K/2GfhrrwVfFtyqdq/gV/eGv3XJeO1UbZV2cK/QnsWyj6VkRh+dCoVxcQq4kqcs7OY3ZyiZI8Dejm/s1KepHVp1dWV9+Qz/8tpphfQwOIFPVMVvdipAYl5CF3Hvlr5woVVylm8lh7NL6VHrwKxK2lDew/dWOGLxrGYnXH/xYDO6jjW5MLxLKNiux302WiZaz+IL7uXh5ZZSUnlU6L35vXVuK+oD6YKoPEpM+ioH6D39AP/7l74tP+Xd/TH/gTZSv0l+flfEb+58VOp5Kt6KsKT/e5hT8XP420Xx9AQdI0p019TWF/MJE9DetPPh7v8noKhpCpDWpbUlMg+24aEV5GfXFEA/KNAVVlunrg63D8KbMCJP/6S/pb/yNv+H+Fee3fuu35ItXOP+VKAjN3/pP/hP6n/z8f+z+VRCiYv3w136/vPvS8lB22n7yC/rh7rdpUoW7LlN1fM+NOutiWp4sDzyr+Dv0h9CtelKWXtSlziS1bagPAAAAQKmwpYhXzV8/u358fPzhF48/MXxWxqvq+PAKvn72yOIPc/34M+N3n+GLlQu6leL1wvXgiV61a9tQH1K+UB/wwgsvvJ75y/gQryd//eTxFz+4/aqk7M616vjwenWvn/ziUanYD4+/+Inhc7zwKuVV07YN9QEvvPDCC69X9FrrXgsAAAAAAAAAANiS+soUAAAAAAAAAAAgKzA6AQAAAAAAAACUBoxOAAAAAAAAAAClAaMTAAAAAAAAAEBpwOgEAAAAAAAAAFAaMDoBAAAAAAAAAJQGjE4AAAAAAAAAAKXRePPmDe7pBAAAAAAAAABQCljpBAAAAAAAAABQGjA6AQAAAAAAAACUBoxOAAAAAAAAAAClAaMTAAAAAAAAAEBpwOh8hnTHM7q9vaXZeECtRsN9mp5Go0WD2a34jRkNWtnDp+WlxbOK7pjjj77G1LUoH1Bv6qBvAAAAAADPCRidz4xGa0C77aZ832xv0vaGfAsAAAAAAAAAtcQzOhvdsVqdGXfdJ6COPN6f0dXSke+d5R19epBvwROzGG3R1pZ6dfpzUiX0tPgrcuI1i6+KNxpdGutVWcPnTKPVpcF4RjP9PfndGY0HXatVdvC0cHmORfl5ZXkrynY8oG7Ciq15BT/wSugvGq2W9MgI6s1sNk6Mh6kqDAAAAACqByudz5DFaE8aN3ujM7p/xDWrIAVNw6r4zkdqu29NtAYzupkOqdduklpbd2k2qd0b0vEhltmfE63umC5FebZF+fmIsm33aDg9LcxQY2+My+mUhhG9aTbbIp5LGnfj8VQVBgAAAABPA4xOAF46yyUtxbB8M2J17nwUJqfj8H9ipP6WPqjHEjY4pz01lHeWE+r3O4GV3D5N5kv6Jj8FzwFe4TwYtoUWOLSci/LsqPLsT/SqvDDUDnbkOxPLiV/+oddo4X5Dwavrh8c9ZQQ6c5q4etPpCJ2RHhpNag+FgRtYJa8qDAAAAACejsabN2/kUhm7196IQYkYXcQGEklwx7+xs00Hu5uh2XPHWdLd1QWdLe7dJ8XAA6fDg13aDMxsJ8WVNW1q1lwMYkT+O0dfaOfwgHZ7PEhT8MD75Og6trKYRwZZ8sNublw8YZY06RzRYsVqJ6cvmhcRCS8H8Bua9/fp7N4Pb5ufrPHYYhOPDHN6LPfC6jCcn6sTIbsC0hTF06U15WMr67Sw++zpzZDaQncnNKThuzn198+lDuvP3gkD5G5zSL2mn1Y//SIt8z7tneVLxzpsyscUhvVgeXVCo5xyC1K1vrGrqGyG5yIfBcu9NRjTwdcjIZ9IenXbb9BX3e6w0RkNZ2LVb7FcDi+nQteEPAJ6VVUYAAAAADwduVY6Nw6PaTrshQbMDLs39YZTmg1a7pP88CCDXcOirn4qroPYjLZ92t7LAcswOMgUNNtDmp7GVwJs48maHxuUYRHPi4jEfRPHJj828dhgE48XxiBndsF7ytNHq6w/15+X4ocDLrbStVYYQudf3Ac+G9ubSlbOnE7Oy900bFM+SWFYD9rD48LKtGp9Y2NfHRLG7svFtAFB7s9GqQzHPMjVc4EzvwgZgpKNbdp0hdJ866+rVxUGAAAAAE9HTvfab+Qs2bWp77lbKfcm9WmzoIGTXHkZqoGfis939er3JzRffldfDGGZtnZPzZCLsNqlsK8DtXcNg8bs8djkJ+tBNWq2f6j27AXcz3Qc7llEBrLlxz6ebNjEEwrDLqKuS2HQBa93fPiEB+JUU38k15+Fiem72MpB+/IzXcu/fFhm2+6I3bn7VOqeYdvy2TjcjYXhl6o7xTj9vkx9W4PzneJTEOnh/L9/x+8cuouccKb2B7vusMy791IOVYUBAAAAwNOSy+jkmXM+zGZx77svPT7e0/WRGJTJv97R+wLOGtk5cAcRYiCn4vMHwvf3CzrjZ5HBcZ60SZcsEfbejed+MXINgfi+OJt4bPKTmZ0DaTzzgJldKoNxPDx8IZOZzmTOj2U8mbGJR694cJiAa7TKzwnNpR3QoxVb2Uql9Pqz8V78guLxcUFqsXNbDMK7pGzOoMkZj+vb15KPRrYsnw9vOZBKf9AoVnVnVIgb91PoW+hkatMKXglIQ3lXmskrJxnawxvvdFg+vdh84u0HcovGg3+fXYbV/mCH5noPqbeHuKowAAAAAHhKSjpISAzK1NgpN+yupjypxEDiIrouY8OatIkBo8mlULonCtK7a5njKT4/ZjbUUkCBq1Xm/BQfjxmbeLSbqCkMGwKf7lSG3uWy7MqguPoTRLvYHpwq11q2OVkOX0OLg/EBfVnYls8XVzjtIZ9Q2iplJeup9M07mbqifYjs4i3tNKEPV2ldqZtN98TbmwQX8G/E8xW8Z/2Utyqwy7CzpEl/n86vv4pPTVQVBgAAAABPQW6jk4/hn4Xufbulmxt1iEMh6NUaJ/udlKWnzSVTPDnykwW9GmSzWpUlP3niyYJNPDpMszcN5UW/9OmsT0lVOiq5vqC506R2Wy5zVrKStgrb8rk/2/PcVdvDKU1vbuh2NqaBMECL4qXqWxDWPW9lsB8+jEcTdOvXr6B7cbNn2kP7jt7vHMo968oOnFB/X/z+yhXoqsIAAAAA4CnIZXTyyYZT3pu44mCNp6KqtNVZBja8tPzUmdJl/eGtWnn7rnbqBVfbwq61TJPUIr6/ylq/FWAfXhHsyD2cjutGqQ5fYuOzqPsmXzLyShyhe8rgzHayNLsxH+1rF3CtN4zWnaYoC95CwNez8FaFhb/y60266f2jVYUBAAAAwFNibXTy6atyzCJYTvyDUPjFB2fI/UtF8OC6SWXYm1NG2rS7XRCreCzykwez4WB2ocwjtyzx5CFLPNoNk/foBvMSfT3FlQqV1Z8IvErIcSSdYhp0t1X7P8sz4PKWz6Pcw7lHe+I73uobnxJb4GE9L0Xfgvh3sGY3OH3iLuBhV23129FrX7yTkb99lQZiVWEAAAAA8LRYG52eEebM6eI66oImBmXuu/zowU2bdg/TrbwUnTY+pEKf6BlcIbKLJ3t+bNAD4OgeVHlwiD5hM4JNfmziscEmngd3ZFrHaxOqqz/Z0fuXVx16UwRFlo9cfTsp7vCYp9I3Pgzn9nZG4wKvywlSjMEp8K4lcchdSJd4umPYPpDUjlYVBgAAAABPh7XRqQdYwbv/uLPnfUKXfCG96vNzE3QJ5L1Ss3E3tIrRanVpwCcpBp7lS5sYsG74xiAfUqEvGlcGgnrO2MRjkx8bHj7dqQF4eygPW2FCeTFgkx+beGywikdeEyIQYaKnbap8DWjM7pgFrYploar6kwZtYHmrenLvp3rLp5ZKHQ3KrqVOCs1tGFmUDz8fyLgjaRLPd/TqVgEulU+hb2Xf0+mf7qoO27ExOD0d1deSLK/Cv6Nl0OzR8emO17atakcrCwMAAACAJ6Px5s0bOWJgd78b7e+XgLxKxHVjUpegi8Gx/CuKQ47TpGYz52x6AB4wydMJjYhBVMc/CMMmbfLuzOD9bjHieckjg+Ly4xMsH4b3DJqKlL939ZZPe4zIwDI/WeOxxSae9eUalrUNNuWTR3fSole1onoRxfQ9Ni5WGliCdb+bhqzlsz5dDi0n+4nuw1moWt/CYfPrZZA07btEGGp8RQy7pK6TNd8xe3KkvhuE49L3EMcx63RVYQAAAADwNFivdPK9f0dyH5W7JCIRg2U+QVB09lfuQk5R8MEh/ck8Ep+I0VnSfBK+067YtLnhOvEBTJ54suTHluujPk3mIj3u3+LH5f7BJEPBNj9Z47HFJh6++3Bf5Mk7cMaD88WX/hc3sM9C1fUnK7wif7a3laCjSu6mq4WykrV8OF3nJ6u+X4zByVStb09xT2d2dD6EHEZnxv2Sj4uRlEFct1X5mAzBqsIAAAAA4GnwVjpfO94qQ2CmHwAAAAAAAABAPnJdmQIAAAAAAAAAAKwCRicAAAAAAAAAgNKA0QkAAAAAAAAAoDRgdAIAAAAAAAAAKA0cJAQAAAAAAAAAoDSw0gkAAAAAAAAAoDRgdAIAAAAAAAAAKA0YnQAAAAAAAAAASgNGJwAAAAAAAACA0oDRCQAAAAAAAACgNF6F0dkdz+j29pZm4wG1Gg33aXoajRYNZrfiN2Y0aGUPn5aXFg9IT14dBQAAAAAAoK48G6OTDaXuYEyzjIZSozWg3XZTvm+2N2l7Q74FoDZARwEAAAAAwEsmZnQ2Wl0ajGfCuOOVMPc1m9F40H3iFZgP9LHXJjU0T8/j/RldLR353lne0acH+RY8Id2x0qtx16xPje7Y1bvXser32nWU25yxaGO89uZWtD/jAXVXTC41Wi25Ohxsp2az8cowjG7fdDxY6QcAAAAAKJ+Q0dkazOhmOqReuxk27ppNaveGdHz4PJdgFqM92traor3RGd0/PrpPAagPr1VHW90xXYo2py3aGB/R/rR7NJyeGo1IXhm+nE5pGGmnms22CHMZm8xgLwmOZza79do3AAAAAABQHZ7RyQbntKcGY85yQv1+Rw6C+dXp92kyX9I3+SkAAOSHVx0Phuy94NByLtqcjmpz+pO5eMIII/JgR77TsAF5eNxTxqYzp4nbTnU6oo2Sq8VNag+FsRpcId85oCnHw4GcpQgzoaX6BAAAAAAAVEDjzZs3j2rlQA3knHmf9s7u1adr4AHgxs42HexuhlYqHDGwu7u6oLNF+He8eIRR2zn6QjuHB7Trucw6Iu4rOjm/9lZ62M3yRgwW07CcdGi08FeI2IUzHlQMODtHtFixksR5CqdL4IjBrBqx0ry/T2f3fvisMtBkjccWm3hkmNNjuc9Qh+H8XJ0I2RWQJl020TLTeOUujIr+/nlo5c+UNs7P8upE/FaCviX8zuHllHrNYspU5Un91vnDRjiNItxcyC4qZ2sdFcba4cFuaMVOlc+FKJ8V+pZSblHYjVWW11x8N2XbkJbWYEwHX49ieuDX/bA8kp4zfpmKrAXasUajS6eXH+m7W3by75uhMGmLq2cAAAAAACAZudK5sb3pDo7nwuhLv6Fs4/CYpsNexDVOubn1hlOaDVrukyjv5eBwGNqjKQbDvSFNT8MrG1WiBqPRdAki+QtiIwObeGywiccLEzROBNp18Sn3wCWljfPTHh4XljZ7vWZ2hIETSSOHK0h2bHSxO2rURVSVzxp9s5Cbf8gRu9gfhFcQC+D+bGSceEhi56Oy0p25MLCjhvnGNm26GWy+/aDeCB4fFzTaGyVOAAEAAAAAgHL5LV4d2HZHas7dp4z7yb6Rs2QXt77viivd3NSnzaRBarunViPYjVe71M2VQx21P3phHhejwO9qlzhenfBdf/UrOnBdjPzPOn3trpeMWiXh1Q9BwG2PX312x0v8gWwysI8nGzbxhMIEyiboutg7Pnyyw302DndjadP5mS+LdP621GuWj9yfyCJXaeRwSrXFZxFX0ew6KozHoZpACNYdv3w4bXEjsjq5lYDznb64b1k/37/jdw7dRU5bUvvRXbdb5t17XD0DAAAAAFATQgcJffua7dhMXqXgg0+CLn2Pj/d0faQNxHf0PunsITEA3hstPCP34fxqfZgy2TmQhjAbaOyKGXQjfXj4Qt/d91Eyy8AynszYxKNXijjMke/mrPJzooynZo8itlNlfHirTIrlZz9tzP39gs5Go8LcJHPptWA5YddOpdsc7vzKtVZzGkJB4zFYdzgOPohIGcVN2ozcuZJHbqGTdU2riyUgJz92ZU4jE2EfyM2KB3+X3X/VfnSH5no/aPOt+DYAAAAAAKgDwuiMD+TyI4yaVcs2rlETZk2YktlQSygWq71JmPNTfDxmbOLRbtamMGzYfLpTGXr3JLMCQqKuQNtDPqG09QQrWet1lPcSxvZIfvm+dhVzHWxcaY8ENh5NXH9Wxm1zczskm7xy807WLXg/ZxLs3ixtSGHiXxnd/b8Rz4/x3lbtykwOHxC0T+fXX3HgGQAAAABAzQitdNqgriII3rF3Szc36jCP54ReDcq62stkkUGeeLJgE48O0+xNQ3nRL3268VNxf8areWxA8V7EKU1vbuh2NqaBMKSKxlavTfLm1cI9dmndy3Mdip4ccui79jeNkmDcVim3vLDcvVXLftKBSu/o/c6h3Nuq7M0J9feLOeQKAAAAAAAUjzA6/dWbrCtYfPqmuorgaY2RpwQyqBZedevIvYiO60apDvdhI8p0p6MNL7FMq5BbXuS1TfJk2qRTZXVb1RRp5/2bfNVKP+RqTBvvhUkqCOwFBQAAAAAAT8tvsdvkV9cfLeqWtwo+RVOODwW8h00fTsIv//CU54fZ8Da7IOeRQZZ48pAlHu2GyS6iwbxEX1W5WdK3r8aVwUe5F3FPrh56hyLx6a0FHHJUX71O4X7+4a10j34KueXFvyc4+RqTYFulvxe9wsU7iTtBBgAAAAAAoHqke63eC5blkBi9Z5D3Z15cR10KhVHjvnsuaIMreNUCEzrRNYKNDGziscEmngd3RB8NUzTeHsOPZmXzrsVI9CP14cNwjk7WHB5jeO7vGwxTV732Da74KbiMLFd9+E5RcnPhg3pub2c0XnlVjD1pDE6N11Y5dxQ5wDbVvlcAAAAAAFA9ak/n9YW3gtMe3tBs3KVWwOWu0VInRAYHndpAoeYm6cMyedDHe7Iu+eJ1w4A+HwHXuuPDwl0CHz7dqQF4eygPW2H4oBJ92bwJGxnYxGODVTzXn9XprCLMbDwIyVjla0BjdsfMuSrmyY3jGQhdc3+P4+gKA0StNIavxeDPBlIHI7opnu9498xGXCof9KEybdo93JHxyDi8007jVK/X6bm+cI1EWT5hue2cmg/fsZJbgLLv6fTLQh0EtPYEYq2jzR4dn6oyZUK6LScM5GMAAAAAAFADGm/evJGjPB6ErjN82O1Su1aqC+eTVuYccpwmNZvhlQsewF7yXXp8eu3+ecj9zY8/ebWDXR9vtO9jhOWk493VuTptPsH8MLyXz/Tz/L2rt3xKZiQ/FjJgssZji008Xhm5f8cRxkEn6YCX9LCxIU8dTSBYnsx6/XREmP3Yfa3+KloEoYPzbz3qFVym0XQnYaujifmRGMrTUm6asD4UU/aaVfU5RKS94HCXIpw5SyYZpJO1EARtjRbuHwAAAAAAoCi802vZfe9sb4v6kzktHbme4uGIv3l/20lgBeXxcUFHcl9Y8LtiUM4nSYpB35W7YFQkj4uRMX1FcX3Up8ncPWiFcfOdtIfRVgZZ47HFJh4+aXU/eOCMB+drTpPEE0WzwQfb9CdLTlIIR159ETfcWD/PT1aly2w4PZyfhGUg3i3nfNrpOX11nwR5Cr3OAp9EG68DvgyCxhZjKzfNU9zTuQ5uB1hH08oAAAAAAAA8Ld5KJwAAAAAAAAAAUDS57+kEAAAAAAAAAACSgNEJAAAAAAAAAKA0YHQCAAAAAAAAACgNGJ0AAAAAAAAAAEoDRicAAAAAAAAAgNKA0QkAAAAAAAAAoDRgdAIAAAAAAAAAKA0YnQAAAAAAAAAASgNGJwAAAAAAAACA0oDRCQAAAAAAAACgNF6F0dkdz+j29pZm4wG1Gg33aXoajRYNZrfiN2Y0aGUPn5aXFk/dyKsHAAAAAAAAgOw8G6OTDaXuYEyzjIZSozWg3XZTvm+2N2l7Q74Fr4ysemCrbwAAAAAAAIAwMaOz0erSYDwTg21eCXNfsxmNB90nXh36QB97bVJmQ3oe78/oaunI987yjj49yLfgiWDjL6RbK19j6hakc9n1wE7f6kh3bJJt4DXuut8M02gJwzvSFsxmokxWGOF1DgMAAAAAAJ6GkNHZGszoZjqkXrsZHmw3m9TuDen48HkuEy5Ge7S1tUV7ozO6f3x0n4LXBvQgPTw5cDmd0jDSFjSbbRpOL2ncjRt3dQ4DAAAAAACeDs/oZINz2lNDOGc5oX6/Iwfo/Or0+zSZL+mb/BQAe3jFcc/VK/3qz90VyHk/9Hxra0QLGIeFsZz4dTr0Gi3cbyjYtfjwuKcMOmdOE7ct6HREOyBXi5vUHp6GVqHrHAYAAAAAADwtjTdv3jyqlQM1kOOB/97Zvfp0DTwA3NjZpoPdTWo35TBQ4jhLuru6oLNF+He8eIRR2zn6QjuHB7TruTA6Iu4rOjm/9lahGt0x3Qzb8v06eEA9WvgGCrsUxoMuadI5WmnIcJ7C6RI4YjAr8+fQvL9PZ/d++Kwy0GSNxxabeGSY02O5B1KH4fxcnQjZFZCmKHrCY5XuebojDI3+/nlopZLTe3g5pV4znp8sepBH3xiT3FjWy6sT8d3VdYpdRTnq5Vx8N2X9S4uWgSnNJnw5xOXky1pkLVBedQ4DAAAAAACeFrnSubG9qQbJYkB/cp5+0+PG4TFNh72QscWwm1tvOKXZoOU+ifJeDg6HoT1zYqDeG9L0dMf9u3oajS6d3kTTJYjkL4iNDGziscEmHi9MgusiDtUxkyQ3lnV7eLxSbmxQq0OOxHd7B0++SrfzkY06bg4uYoa5aCxo081g8+0H9UZQ5zAAAAAAAOBp+S1eHdh2R2rO3aeMe92+kbNkFzffLVK5ualPm0kD6HZPrUawG29HucdpF0tqf/TCPC5Ggd+dkPpZXs1SYYKv6ArOYuR/1unPRajVqFWSIckhbcBtj1/9vog78QeyycA+nmzYxBMKEyiboOti7/jwWV03kkUP8ujbxuFuTG78YlnPl8/HMZ114P07fufQXeS0JbXn23VtZd69l7pQ5zAAAAAAAODpCR0k9O1r+lVO5v5sJA9lWdz7bmyPj/d0faQH7O/ofdLZQ2JwvjdaeEbuw/nV+jBlsnMgDWE20Nh9M+hG+vDwhb6776NkloFlPJmxiUevFHGYI9/NWeXnhOS8QLNHB0+3GF1bPrxV5s7ysy835v5+QWej0UpX6dDJuqYVvIJoD2+8k175RGq+rzR+2usHcrPiwcYeu/+qPd/CCJ+4xnvzrfg2U+cwAAAAAADgqRFGZ3wglx9h1KgxtBnXqAmzJkzJbKglFIvV3iTM+Sk+HjM28Wg3a1MYNjw/3akMvXuSWYF688Ut7PaQT09tZV5l807WrWofYrNJzXaPhtObBDf4b8RzUHyF0im7wrP7r7OkSX+fzq+/JhwqVucwAAAAAADgqQitdNrQ6o5pNpv5KyjidXOjDvN4TuiVqqyrvUwWGeSJJws28egwzd40lBf9UqtJwMT92V7g9NQpTW9u6HY2poEwQJ+aoItx0O1Xu1g3e6Y9p+/o/c4hXU6HpGy6CfX3j0Ir5nHqHAYAAAAAADwVwuj0V+SyrmDxqZjTYZuaBR+A85yADICGVys7cg+n47p4qsOk2PiMu7E+Lez2e7SvXcCb5J+7o9uDpkg775F0aMknwQZc4WnjvTD7BM538W2mzmEAAAAAAMBT81vsNvnV9Udrbm6ndgvkqwvkzQWC5SR8vyIfPKPPBXpumA1vswtyHhlkiScPWeLRLqJ83UQwL9EXrqJI5lHu4dyTd5F6q4l88m8tD2DyJ5w0wfZAaIK8giZ6hYt32vW3r9LYq3MYAAAAAADw9Ej32uvPar0jyyExes8g78+8uI66cAqjxn33XNAGV/SqBT6oxDvRNYKNDGziscEmngd3RF/r6yYMB8TwtTV19PyVq4kn6Q624cNwbm9nNE68ZqgEvCtGHPoeWBb02gPnjiKHxEr90add86FJmjqHAQAAAAAAT4va03l94a3K8QmXs3GXWgF3wEZLnRAZHBBrA4Wam7TtLqbxoI/3N17eqL1WxRJwrTs+LNxd8eHTnTIO2kN5EAzDB5Xoy+ZN2MjAJh4brOK5/qzcLUWY6MmmKl8DGrOr6FOs2D3oA2LatHu4412h4Z9cWjTp9Y3TMZD1I1JvxPMdvfK2wt2z6ns6PR3VV4wsr8Kn62o9aPbo+FTJmgnpj5xokY8VdQ4DAAAAAACelMabN2/kaJMHoisNEgG7XWrXSnUZftLKnEOO06RmU7nA6QEtD67lQFcMCvkaj6D7mx9/OEwQdme90f6sEZaTjnd34uq0+QTzw/D+TNPP8/eu3vIpmZH8WMiAyRqPLTbxeGXk/h1nSZPOUaHXevAdi2w4Rssjiv5eDKFP82896mUqH5+keNPr27q644jv78fu9tSEZV6sfNelje+YPTkK10WG834p8m4OZtbPOocBAAAAAABPh3d6Le+XOtvbov5kTktHLvF4OOJv3rN4cu77sz0+LuhI7lkLflcYWnySpBj0XXl7r4qDL+83pa8oro/6NJm7h8Awbr6TDCFbGWSNxxabePjOyP3gYTgenK85TfrFGpxZeDg/CedHvFvO+eTSc/rqPimStPrGdef8ZJXMkg1Opqp7On10uoQujM6Mex8576wHcd1W+TEZdXUOAwAAAAAAng5vpRMAAAAAAAAAACia3Pd0AgAAAAAAAAAAScDoBAAAAAAAAABQGjA6AQAAAAAAAACUBoxOAAAAAAAAAAClAaMTAAAAAAAAAEBpwOgEAAAAAAAAAFAaMDoBAAAAAAAAAJQGjE4AAAAAAAAAAKUBoxMAAAAAAAAAQGnA6AQAAAAAAAAAUBqNN2/ePLrvK6c7ntGw3SRnOaeTo3O6fzQnpTu+Fd9z//BY0qRzRIuEMEHSxvMcaTRadHg5pV7ToXl/n87unz5vre6ADnY3qd1suk+Y+qRvFY1Gl05vhtR+JukFAAAAAACg7uRe6WSjpzsY0+x2RoNWw326nkZrQLvCEGSa7U3a3pBvC6eqeICiNZjRdNiLGJwAAAAAAACA14o0Onkl8fb2lsZds9HY6I7l57ezAbUa0e98oI+9NmU1MR7vz+hq6cj3zvKOPj3It0YWoy3a2lKvTn9OKlQ6ssQD8sGrhAc9pQnOfEL9Tscrt62tPawaAgAAAAAA8Ap50j2di9GeNEj2RmelurxWFc+rZ+M9veN/nTmdnF9D1gAAAAAAAAAcJAQK5MNbteL97SsMTgAAAAAAAIBEHiSkD+pZTjo0WsSNBXavveEvOHPq75/Tw86p+jsF0d/MeygQ79G8nPaEcbM6TNZ4/AN53AdG4uE53MbOduzgHMdZ0t3VBZ0t7t0nCi/9ywl1jr7QzuEB7XruyY4Q8VXiKiHHFf6+wHGIZLzmg28arS4dHuxSz93XynDark4uaHEfTltePD0RedsaLdynycj8nB7LPbfB/CyvToTOmNNmCqPyI8olwX03S5hVBwn5uifCz/u0d2ZOozq4SohhLvKR8B0AAAAAAABeC1jpzMnG4bHx4Jxms0294ZRmg5b7JMp7aeQOQ/thhVHUG9L0dMf920cZQ9HvC1Yc2MNG4OV0GDI4GU7bcLoqbengNI15r6/78iYi2kPvmfcad9VnLl5+ggYnI/LTHh4bD6VKCqPyc1lYGBNpDU7/4CqRj94BdWN7oAEAAAAAAHhdWBmdj4uRd0BMpzOhpXzKK0PBg2PUK7pymudQoCxkjefx8Z7O9vwwXthOn+YyMOfPtEr6TV7FMun3Q2EmSijCiEwwPNo9uarqLP0Dd/oqIvHZx1AYXqk7vOTVN4HDcfly7veF/A2Zk8aWMAKlkRSIQ6VNBWj2zMZdFWwc7qr8BNKm8zNffpPfCRKSgTE/TeodH4YOurIJYyKtwQkAAAAAAACIg5XONfBKpjQO5yfG01fvz0bygKKgqyobsNdH2hh/R++TrmkRhtDeaOG50j6cX5nD7Bwot1/XvTnoEvrw8IW+u++DBI26YBycNj5YSRnFTdrMcYfM4+OCRq6xKI05bWmLOPUz7xVxt/3wljMkvvo57Ep8f7+gs9EoLuuNbdrUMjjywyhZn6iJgWaPDoKLxDZhIrB78mkGgzN0WvL8IpXLOAAAAAAAAC8ZGJ0rYPfUKVt7bLhlXt0SxqCyPcy4hlAYc5iN9/JMWHLuPoUMtCR4hW9bWlvKqDNx/VkZiM3N7bUrfWXwxc1oe3hJ425rbRo2tjeV4WeQARuRn+7U770LWOs2YcLsCINTrZRmWeH0TkvGiigAAAAAAAAwOpPQ7qnCbKNJzDgM0xLG6Ww2C+1hvLlZdyhRevSq4LevaS8Z/UAqiEPfv8gHcb58L821OQ33Z7zayingPZxTmt7c0O1sTANhgJrQMmj2piE565ecHIhgEybI5rHvmgsDEgAAAAAAADtgdBrw9wIm7eP04VNyp7x3csWBPsAMrwh25B5ORxnA7uFLbHx2n2ivaZC7E9dFuj2Uq7EAAAAAAACA7GQzOl/J/Ys7p2qVcjmJX0EShN1v9YGty4l/kBC//AOIisPsBqpXNYOsce1lanKn5qPcw7lHe0Jm3qFIfLJs5IAf7Y7Lbq5BOUdfwRVJmzBhrunIPYSKV2PH3ac3hAEAAAAAAHhuSKPT21/30Xyiys5HZVk5ib6aLwfPkFxOjHeWBtF7LXl/5sV11PVVGIPuu7zo8mm+/SD/1YROZw3A+xW/ygNgm9QznJIjw+3Wr0z5EKGjE/ek4eZbIUGfB5WhmAxWYRMmCh8MtO8ekMT7T9Oc9sv3dN7ezmic80oaAAAAAAAAXgLS6NSDc3YjnA263goTGyfdgbroXpgndPfJtKdQr6qp6yfq4BZpi7wagzNrPOQnjie35ibpQ2BZZrzH8/JGGIMFedw+fLpThljAzZNPVeV7PpO2JV5fuMYbl+k4XKY7p+pEXt6venWedp9ocXAaBsIwG7OuBfRFps09/EdYw0KzAlx/9lxdZ+NBSM+UzAc0Zrfc4IFENmEM8BVB6joboeNr7vbEPZ0AAAAAAACEabx580Yu5/HqDF+gn8Ry0klc+ePVwRvtZxohGE5d1B9fmYsSPCm0ujC8arj+8J/08TjkOE1qNnlfqO+m6935yIbt/nnItdVPQzgMw3tHTSLm9Fy9nYrP4mFag9mKw3Li38+Lpwd8ZUrkipQg62XtiJ/Yj+lb8L5MM0uadMJ7cLOG8ct0VRnE49GE40v+HgAAAAAAAK8Fb08nH+rSnyyFoeQ+cHEcMXDuJxucjFwJmsxpGQ38rDDtjVwN31N5JPchBvMtjE1hdPWFwXLlLoQWwfVRnyZz98AdRsTJ+0iT9yOqE2Lj5cLpm4syLdbgzAK7/56fBA4Q8vDTZtI36eoaPHjIQ4eLG3g2YZLgMlD7dNs0vAzvOdXgnk4AAAAAAADCeCudAAAAAAAAAABA0eDKFAAAAAAAAAAApQGjEwAAAAAAAABAacDoBAAAAAAAAABQGjA6AQAAAAAAAACUBoxOAAAAAAAAAAClAaMTAAAAAAAAAEBpwOgEAAAAAAAAAFAaMDoBAAAAAAAAAJQGjE4AAAAAAAAAAKUBoxMAAAAAAAAAQGnA6HwldMczur29pdl4QK1Gw30KstBotGgwuxVynNGgBRmC1aDOvV66Y24noq8xdWumB9DReoPySUejNaAZ17EZ5ARAnYHR+QrgBnm33ZTvm+1N2t6QbwEAJVHXOscTJ93BWAzQ6jdxUlXa6iyDKkG/UG9QPgCAlwaMzprjzeClepln0h/vz+hq6cj3zvKOPj3ItwCAkqhvnftAH3ttUkPZulFV2sqPZzHaoq0t9er056Q0oV7USUd9LxLxMqxWNRpdGut+7pWsZtW53260ujQYz8Jjk9mMxoMuVhoLpNFqydXuoJxnMzHOK3iyzCYe1oGxKHP9ffYA4xX5tGlrdMeBsMleIHZpqyYMyA6MzlfCYrQnB0B7ozO6f3x0nwIAygJ1DtSdWupo07Cqt/OR2u7b10Qdy6c1mNHNdEi9djM8cdNsUrs3pONDLMkWAS84XE6nNIzIudls03B6SeNuMcaQTTwtYTBeCh1oizL3EeHbPRHmdK2hxpNIp8P1NdombVWFAXbA6Kw5PNu5Jzod7nj0qz93Zz/n/dDzra0RLTC4BQAA8BxZLmkphn2bEatz56MYoDoO/ydGgm/pg3oMKoYNzmlPDcud5YT6/Y43/uj0+zSZL+mb/BTkgVf+D497ygBy5jRx5dzpCBnL1W9h4A+FcZdzVdkmHl7hPBAGY5McWs6FDnRUmP5Ee3QIQ+1gR75LYudUGKziX0fUdxUmjlXaKgoD7Gm8efMGVsozQzf8bHTund27T+PwYRbxyaQlTTpHK41TroQ7p8dyP4msiALHWdLViQh374eTs1U3ovEQnY/4STq95JkvbkjmdHJ0zi0LHevGabJPo4UKq2aVRCWX4b7QzuEB7Qbc3bgzOzm6Ns7scoN3eLArZ1k1Km0XIm3JssiKlEEkXXLEI2f2HJr39+ksIAsmrdxssZWb0gOV5vOHjXAaRfrmIn3RvDC2stbhNiNyuLu6oLNFPJyN3ExhuHyWVydCz8xxbOxs08HuZmh21pQuW71myq5zzGo9EAPz+RWdnPt6wG5MN/FEGVlOOqH8MGXWuarSlieeLLpjwiuvFHpgQ9a6kFVHs+qbDcE6N6EhDd/Nqb9/Ln9Tf/ZODHDvNofUa8bTmrb+5KnbTNa6YNP22rQheXU0Db4ei99dM/YIkidtafsSL23CaGC9oUNRjgEdXc5FXUhIb1rdMcHumFxWq37fBr+9Muv64eVU1INs5WDCNp7WYEwHX4/i9WPF72m873BZnRAdJ7SNNmmrKgywByudIITqlJPdDIwHb7z76HXeDLtYHBweup23fJIwU/ReVuhh0LATNNtDmp7GZ8q4cWCXjmCHz6i0TWk2aLlP8uHJIJIuZXCasZKbNdnk5rMjyimSRpG+niF9trIOhovKoTc8iOmAjdySwnD5tIfHxjAbh8c0HfZCgx5GpSshP9Z6nQ173THpgfiN3jo9SE9Vdc6GqtJmpTsVYVMX7Clf35jrz0vxswEXW+laK4yA8y/ugzBW9ceibufTt/Rtrw1V6OjG9qZKuzAWTs7TbzC1TVvWvkSzfXpD04iOtnvmeOzbXhFWGLpsqKrfT06PDXJlX+DML+KG28Y2bbqJbb7Nt+ZvG8/92ShmcKZBGnG7HKdD85NzWqVFNmmrKgywB0bnCybrYRZqVkd0xPzH0nebCLoZ9I4P4wcFiAa63eTZ3I7n+tvuubOOnYkYLjDv6H10q4fo6OUM0lJ8z3Vp6E/Ut6m9G2rwZefgDgikW08sbSIZvfyDrJAMAq4WMm19kReDEK3lZksGufmINIgOnPtIx3WJ4fSp4hKfBdxhbGUtZ5u9cHHZzZff1RddbOW2cbgbC+PHkeTc9c1Nk++SruJRnzZNgwYLva6szjGeHvjhdDqp/dHLz+Ni5KfJS7fKl36uX+EVvvLrXFVps41HYaE7FWFTF6wPOUqpb7m5/izKx3exlYPC5We6ln+FqarPylcX0re9jF35lKujLOdtd/Tt3H3KuKqdPW1Z+xKPptBRoQwmHY3GU3m/nRJO1/t3/M6hu8jpUWo/La8Murx7b52+UuNxvpNpiognINSq4YnRu0pjk7aqwoB8wOgEPnpWhzvegJvm4+M9XR+dqE5SNOpGd/3llWxEHr7qgY7o0OVM1hf6vqLXlC4LozO6dxugezE4VJ1ReF9PcHC1N1qE0saHLZjCWLFzIBtFKYP985B7zcODyIv7PkQeuVmSVm5RlhN2EVHy4/SdX7k9f6BBtZX1zoHbQMtwZyHZ3d8v6Iyfub8lsZTbh7cyFjEODbv0qThGxs6MZ2ZVmnz3GBWP2Xj0sNTr1OTVnUgZPZxfrc5PBiqrcxZUmTZr3akAm7qQi7L0beO9+AXF4+OC1GLntmiTuqRszqDJGYiroj6rCH1L0/baUqWOfvsaHpyvwyZtmfuSIGl1NGfbGzpd2LRKZs0Hcqu1BxtH7Mqr9tMKPdX7J3Ptby42Hg6rVjFFSMPEBE8kHCuLM8VKuU3aqgoD8gCjE3ho9xlTg8EN8ac7WfVEHxntvUTFvIjMQ7sd+koSGh/pXiXQ7gzcCOhZ1vDgw8cLIwcq9h34hpr2yjSbay83S1LKLQobqrE9Xl++qwbVxVbWvBKgvFQMupCArdy+uCPC9pBPlWvlHLCtMh4t9ToDuXTHHSyFKcYYrrLOZaU+aSto4iEHxdaFNZSob1Fk+TU36eBUudZyMXN98OxDlyr6rCL0LU3bWw5FlU98cJ4fc9ps+hKPDDpaRL/NEw68OlrOXr9vxPY972vVrtnkLGnC+4Ovv4pPi6KYePQqpqgldBUZn3AdUof1iDI9UXu102GTtqrCABtgdAIPPWve7E29e4qCLzXzY0JV2PLQHZ5D383begrrwLUMsszm2sutWkx58k5H3tNH8lvKWq9UOOnvk7OV2/0ZryxwCnjf1ZSmNzd0OxvTQAy6V8HHvM9C94rd0s2NOiTATNl6XWfdqa7OZaf6tGXXnWqwrQu15/qC5o7IU1sucyauIlXTZ+XXt3Rtbz7qqqNMprRZ9CU21L/ffkfvdw7lvlZlA02ov38UWvUthvzxcPkqeQmjsh8+jIdJ61YbxyZtVYUBNsDoBAA8O3iGuSP39jhqsCcPlxCDh4TLnPlEyCnvEYocZgHAOuquO1nrQi358FatOrlWXXClKb662CSc6RGmfB31Vwuzeuyg7c2KlnVT1GO1OriU22l8l2HfMDfvnUxHMfHw3kcuX/ElYXAaTvXP5FarsUlbVWFAHmB0Ag/tqsWuQHrTvulV9rHR2sXVRzcMK3AHLfTtq99Y5MDcseoZ7zD1lZsNlrJ+cF1QMux7yCu3R7m3Z0+uFniHPIkB9zBy+AOfgij7RAHvqwr+tn+gx9NQF92JU32dS091aauz7gRJWxeeE7yKy3JedUpmNfWnznWhGh0NujZncVm3SptFX2JDXdvesBu5MuSi17Fo1+A8+lZEPNLg9FY44wYn4/1Gs6c8MQKryf5BPaKtcj/jU4Zt0lZVGJAPGJ3AQx+o8JRHQ5v2z/gNQzN20h8j9wvoDeyJ/k/p0B1RVAYyDn3SXYS6ys0Ge1nrgVmbdg/TzYQXKTc+XOLoxLzh3zPGnTldXEdnWj/QW/fdU1AH3TFRZZ3LSpVpq7PuJLGqLrw0qqg/da4LTFU6qvetsvFgEIMRu7Rl70tsKEJ3+MCZ29sZjQu4kiaIJ2uDi3Gavp6/M5gpw2427rpP4+SJJ43BmQebtFUVBtgDoxP4yKPqBe2haKgGIdcsrnyt7oDG7LJV2My5GBBt+J0Kb+LWF/GqTko9Z64v3EGUTFvXm2nldPHFzjKMYQN7Vh4+3Xnx8MEcTChdJmosNxtsZM0DM+0Ox3tkguGYlkjjgGUTlIGF3Pj5QHT044H4/cj3d/SMZMQNRg8u+GASfbik+v0xXfJF8UnlWgWV644e0IkB9PHhSvfLquqcT1VpSx9PnXWH05G1Ljx39KSg54lSUf2pvi6kpzIdlfts1dv28EbJISjvljr1M2iA2aTNqi+xIafulHlPp5c2YeAfn+74+payr/cP9RE/IfI37iakzTIe/3RXddjOKoNTeyyYXv6VQOJ33CtrvJVlm7RVFQZY03jz5g3Wi58ZeoaJ3UKSXD/kvWLcqLt/JxH9DXk/VvBuohjcOKiN4n4cgWeiM7lhf5rlhLZGC9l4q4rrz4atj8M8c+bPrJkobraN96Bol6AgLKurt3yyWTyuLHKzxVZuOj/LSWelq1oQW1lzZyRPfjMSl0FWufn6JP804Ih87ofyubouOOQ4TWoG9dNWryuoc4z3fdER8rU+QZcfU7qieHkxENWRquqcpqq0pY0nq+4wtnqQleLrgk8wbXn1LQ1p+jTG9L0s9ce2bjM2+pa17bUqHwsdtWW9zhWXtix9ia2OZm17g4TDJn/PFtZLfVdpnNXlGdXVVfqXNZ5VbWcIQ1lE8WVolp+NDKoKA+zASicIwSfq7QcPpfAQf8tLmottWMNwHBPqd8wVnGfM+pM5LZ1gynS6imsUro/6NJkH8i/iU3esJQ+G6iw3G2xlzYeaxMOxCJc0n8TvMssqN54FPz9Z9f3wIJvhe/+O5D63aF6EzMT3r9zJ+Keiat15XIyMZWSiqjqnqSptaeOps+7Y1IWXSFX1p+q6kJYqdZR17mxvy1h3HPE395PBw2LypC1rX2JDHt3hsOXc06ngNorTZqNvD+fuPaMClvWqdiBPPGVjk7aqwgA7sNIJKmfVrCRIBnIDAAAAAADPEax0AgAAAAAAAAAoDRidAAAAAAAAAABKA0YnAAAAAAAAAIDSgNEJAAAAAAAAAKA0cJAQAAAAAAAAAIDSwEonAAAAAAAAAIDSgNEJAAAAAAAAAKA0YHQCAAAAAAAAACgNGJ0AAAAAAAAAAEoDRicAAAAAAAAAgNKA0flK6I5ndHt7S7PxgFqNhvsUZKHRaNFgdivkOKNBCzIEq0Gde710x9xORF9j6kIPQAbQhqSj0RrQjOvYDHICoM7A6HwFcIO8227K9832Jm1vyLcAgJKoa53jiZPuYCwGaPWbOKkqbXWWAQAa9NsAgJcGjM6a483gpXqZZ9If78/oaunI987yjj49yLcAgJKob537QB97bVJD2bpRVdrKj2cx2qKtLfXq9OekNAEk4XuRiJdhtarR6NJY93OvZDWrzv12o9WlwXgWHpvMZjQedLHSWCCNVkuudgflPJuJcV4Jk2W6TFU86Sbksobh74+Fnui8cBhexV+VHxsZVBUGZAdG5ythMdqTA6C90RndPz66TwEAZYE6B4AFTcOq3s5HartvXxN1bENagxndTIfUazfDEzfNJrV7Qzo+xJJsEfCCw+V0SsOInJvNNg2nlzTu5jeGeLKn1R0L4+rWK9N12IRhOMyl+H5b6ImPyFu7J/JzajTubGRQVRhgB4zOmsOznXvujLl+9efu7Oe8H3q+tTWiBQa3AAAAniPLJS3FsG8zYnXufBQmp+Pwf2Ik+JY+qMegYtjgnPbUsNxZTqjf73jjj06/T5P5kr7JT0Ee2LA7PO4pA8iZ08SVc6cjZCxXv4WBPxSGWt5V5Z0Dmg7bPF/ABSrimYj6twaLMLzCecBhyKHlXOhNR+WnP9FeIMK4O9iR7zQ2MqgqDLCn8ebNG1gpzwzd8LPRuXd27z6Nw4dZiHoeQTQSnaOVxilXwp3TY7mfRFZEgSMal6sTEe7eD8cuT6c3Q2qLzkf8JJ1e8iwWt0NzOjk6F43TKR3rhmayT6OFCqtmlUQll+G+0M7hAe0G3N24Mzs5ujbO7HLjdXiwG5pdU2m7EGlLlkVWpAwi6ZIjHtXS0ry/T2cBWTBp5WaLrdyUHqg0nz9shNMo0jcX6YvmhbGVtQ63GZHD3dUFnS3i4WzkZgrD5bO8OhF6Zo5jY2ebDnY3QzOtpnTZ6jVTdp1jVuuBGJjPr+jk3NeDRndMN/FEGVlOOqH8MGXWuarSlieeLLpjwiuvFHpgS+Y6l6FMs+qbDcE6N6EhDd/Nqb9/Ln9Tf/ZODFbvNofUa8blmLb+5KnbTNa6YNP22rQheXU0Db4ei99dM/YIkidtafXaS5swGlhv6FCUY0BHl3PRLySkN0vbG4XdMbmsVv2+DX57Zdb1w8upqAfZysGErA+XH+m7K0+vfgiZmcY4jE0YpjUY08HXo3idSsirjQyqCgPswUonCKEakGQ3A6PP/ruPXufNsLvEweGh23nLJwkzRe9lhR4GDTtBsz2k6Wl41ovhxoHdM4IdPqPSNqXZoOU+yYcng0i6lMFpxkpu1mSTm8+OKKdIGkX6eob02co6GC4qh97wIKYDNnJLCsPl0x4eG8NsHB7TdNgLDXoYla6E/FjrdTbsdcekB+I3euv0ID1V1Tkbqkqble5USOY6Zy238vWNuf68FD8bcLGVrrXCCDj/4j4IY1V/LOp2Pn1L3/baUIWObmxvqrQLw+7kPP0GU9u0ZdVrzfbpDU0jOtrumePJ02+zocuGqvr95PTYIFf2Bc78ImQESTa2adNNbPNtvjX/x8cFjfZGmSYlbMIw92ejmMG5ChsZVBUG2AOj8wWT9TALNavDM1aCpe8CEXQz6B0fxg8KEA10u8mzXB3P9bfdc2cdO9r14h29j271EB29nEFaiu+5Lg39ieuo0d4NNfiyc3AHBNKtJ5Y2kYye2eDIQkgGAVcLmTZ2IzEI0VputmSQm49Ig+jAuY90XPcWTp8qLvFZwLXFVtZyttkLF5fdfPldfdHFVm4bh7uxMH4cSc5d39w0+S7pKh71adM0aLDQ68rqHOPpgR9Op5PaH738PC5Gfpq8dKt86ef6FV7hK7/OVZU223gUFrpTEdnrXI4yTalvubn+LMrHd7GVg8LlZ7qWf4Wpqs/KVxfSt72M3SFU5eooy3nbHX07d58yrmpnT1tWvfZoCh0VymDS0Wg8lffbKeF0vX/H7xy6i5wepfbTqtVmybv3laevNJzvpKeVbGRQVRiQDxidwEfP6nDHG3DTfHy8p+ujE9VJikY90kcqllfSreLhqx70iw795JweRDPyfUWvKV0WRmd077pk3IvBoeqMwvt6gobG3mgRShsftmAKY8XOgRxYSRnsn4fcax4eRF7c9yHyyM2StHKLspywi4iSH6fv/Mrt+QMNqq2sdw7cBlqGOwvJ7v5+QWf8zP0tiaXcPryVsYhxaNilT8UxMrr38CyrSpM/O6viMRuPHpZ6nZq8uhMpo4fzq9X5yUBldc6CKtNmrTsVkLXO5ZZbWfq28V78goJXUtRi57Zok7qkbM6gyRmIq6I+qwh9S9P22lKljn77mn6Vk7FJW+a+JEhaHc3Z9oZOFzatklnzgdwuzoONI3blVftphZ7qvZDPfH8z5+twV9asyGSGjQyqCgPyAKMTeGj3GdNMJjfEn+5UA/su1nuJinkRmYd2O/SViMbe5KYj3asE2p2BGwE9yxoefPh4YeRAxb4D31DTXplmc+3lZklKuUVhQzW23/HLd9WgutjKmlcClJeKQRcSsJXbF3dE2B7yqXKtnAO2VcajpV5nIJfuuIOlMMUYw1XWuazUJ20FTTxYkrXO5ZZbifoWRaajuUkHp8q1lpPL9cGzD12q6LOK0Lc0bW85FFU+8cF5fsxps+lLPDLoaBH9Nk848OpoOXv9vhHb97yvVbtmk7OkCe8Pvv4qPn3+sOu1tO1EHb8yumzbyKCqMMAGGJ3AQ68gNXtT756i4EvN/JhQFbY8dIfn0Hfztp7COnAtgyyzufZyqxZTnrzTkff0kfyWstYrFU76++Rs5XZ/xisLnALedzWl6c0N3c7GNBAG6CrUMe/BO8Ju6eZGHRJgpmy9rrPuVFfnslN92rLrTgVkrnN1LtMI1xc0d0T9bgvrY/k5cRWpmj4rv9zStb35qKWOumRKm0VfYkP9++139H7nUO5rVTbQhPr7R6FV3+cM64SSsUPzfvgAHx8bGVQVBtgAoxMA8OzgGeaO3NvjqMGePFxCDB4SLnPmEyHVMe/cyQGQHuhOBXx4q1adXKsuuNIUX11sEs70CFO+jvqrhVk9dlB/sqJl3RR9GrsZ8+m7vJ3Gdxn2DXN/H+RzQt7AIHRCZEAYnKYTb21kUFUYkAcYncBDuy2yK5DetG96lX1stHZx9fE7vETcQQt9+1rIrLG5Y9Uz3mHqKzcbLGX94LqgZNj3kFduj3Jvz55cLfAOeeJTByOHP/ApiLJ/E/C+quBv+wd6PA110Z041de59FSXtjrrTvY6V+cyjcMeDSznVSdeVlN/6i23KnQ06NqcxWXdKm0WfYkNdW17w27kyiiLXseiXYPrUE+zIg1Ob4XTfMWKjQyqCgPyAaMTeOgDFZ7yaGjT/hm/YWjGTvpjOIy3GT3R/ykduiOKykDGoU+6i1BXudlgL2s9MGvT7mG6mfAi5caHSxydmDf8e8a4M6eL66i/1gd66757CuqgOyaqrHNZqTJtddadrHWuzmVqSxX1p+5yq0pH9b5VynAonl3asvclNhShO3zgzO3tjMYFXEkTxJO1wcWY9W1dX8/fGcyUm/Bs3HWfPj1pDE6NjQyqCgPsgdEJfORR9YL2UDRUg5CbIle+VndAY3ZfLOxgDmEcbPidCm/i1hfxqk5KPWeuL1yDQqat6820crr4Yme1/SJpM3p6Hj7defHwITVMKF0maiw3G2xkzQMz7Q7He2SC4ZiWSOOAZROUgYXc+PlAdPTjgfj9yPd39IxkxA1GDy74YBJ9uKT6/TFd8qXWSeVaBZXrjh7QiQH08aHRFVlTVZ3zqSpt6eOps+7Y1Lnqy7RY9KSg54lSUf2ps9wq01G5z1a9bQ9vlByC8m6pUz+DBphN2qz6Ehty6k6Z93R6aRMG/vHpjq9vKft6/4Ae8RMif+NugWmzxD8RVh3Qs/ZAPhsZVBUGWNN48+YN1oufGXq2iN1Cklw/5L1i3Ki7fycR/Q15P1bwbqIYosHoqE3ffhyBZ6IzuWF/muWEtkYL2XiriuvPbK2PwzwL5s+SmVg/c5YW3oOiXYKCsKyu3vLJZvG4ssjNFlu56fwsJ52VrmpBbGXNHYs8+c1IXAZZ5ebrk/zTgCPyuR/K5+q64JDjNKkZ1E9bva6gzjHe90VHyNf6BF1+TOmK4uXFQFRHqqpzmqrSljaerLrD2OqBLVnrXFa55dW3NOg0rZOJ6XtZ6o9t3WZs9C1r22ujOzY6asv69re4tGXRa1sdzdr2BgmHTf6eLayX+q7SOKvLM6qrSfqXVt903WCswqxob0NEys9GBlWFAXZgpROE4BP19oMHtHiIv+UlzcU2rGE4Dr6k2VzBeY9PfzKnpRNMmU5XcY3C9VGfJvNA/kV86o615MFQneVmg62s+YCfeDgW4ZLmk/hdZlnlxrPg5yervh82OBm+9+9I7vmM5kXITHz/yp2Mfyqq1p3HxchYRiaqqnOaqtKWNp666w6Ttc5VXaZlU1X9qavcqtRRbn/P9rYS9E31k8HrvPKkLate25BHdzhsOfd0KriN4rTZ6NvDuXvPqIBlnWbCo47YyKCqMMAOrHSCylk1KwmSgdwAAAAAAMBzBCudAAAAAAAAAABKA0YnAAAAAAAAAIDSgNEJAAAAAAAAAKA0YHQCAAAAAAAAACgNHCQEAAAAAAAAAKA0sNIJAAAAAAAAAKA0YHQCAAAAAAAAACgNGJ0AAAAAAAAAAEoDRicAAAAAAAAAgNKA0QkAAAAAAAAAoDRgdIIQ3fEt3d5GX2PqNhruN1bTHc9kmNl4QK2UYZ4LjUaLBjOWx4wGrZeVt+fKS9a3Imm0BjTjujyDnAAAAABQPTA6QWHwwHa33ZTvm+1N2t6QbwEoBegbAAAAAMDzAEbnM6PR6NLYW4EsfsVtMdqirS316vTn5LjP0/B4f0ZXSxXCWd7Rpwf5FhSAv8pqXq0K6cUrWc2qs741Wl0ajGdqddErlxmNB12sNAJQAxqtlvSUCNbR2WxM3YL7VJt4Wt0BjUV7ob8vX2vaD5swNmmrKgwA4OUBo/O5sfOR2uIfx+HBdpM2a7a8sxjtSYN1b3RG94+P7lNQKE3Dqp6rF6+NOupbazCjm+mQeu2mqKEBmk1q94Z0fIglWQCeEvaSuJxOaRipo81mm4bTSxp3izGGbOLh9mM67FFbtBch3PZjenkYMyJtwtikraowAICXCYzOZ8bOR2ly0t3VnVyFbG5uY+XkNbFc0lJ03dHJBqkXjsP/CaV4Sx/UY1AxcvDXU0MrZzmhfr8T8Bzo02S+pG/yUwDAU8BeI4fHPWUAOXOauHW00xH1U3pOCENteJr6HIMkbOJhA+1Yth8OLSd9r+3gV3+yVJ5HkUlHqzA2aasoDADg5QKj8xnBLpTK5ryjT9ef6E622ea9bNwRSVeWcVc2/N3BOOzaIp4XZazmOXzI5IbIbjeDbsv9hg/nw+RClPj9lTIQca5yOzLI7ObymFx7wojOi/4+v5QLUTxt2flAb2Xcn+nzkovdn2zQeuHcXdGdfBJH5ieFe5PnpitlJt67Lr36oJ5WV8tkljCrnU0GSneUm3gsjVyuBvcrG33Lqjs2+IM/Hl/1aW+0oPt7f/X18f6eFmcjGp3du08UedKWpf4EaUXqwniQ/P20upMXm3hMYaRLYYFlKn/boh21yk8F9ScruWRQw/zQzoHbji9psn9OC7eOPj7e0/XRCc2lldam3bweCTbxfHirDLTlFY0W4XbifjGiK9H2s6H2NjiraBPGJm1VhQEAvFhgdD4ntGvt3Se6F432J2V1rnGxfU+Hl1Ma9tqqY3Jptoc0Pd1x/3oaGsKAuTS4IbLbTW94EDMiNg6PjS5E6vtTYUQmDTRNMhBxstuRQQZsbJ3exGUmInLfxAnmJYhyIVqVtuxcK6vTn2yQerGkq/Mv7oMwXn4S3JuMA7l3H+n0cihkrf5stnt0cHhIx0MtE8Osdi4Z7Ij4Imnkck1KX0bsdSc9G9ubKu3OnE7O028wtU1b1vqj2T69oWmkLrR75nisdMcCm3iSwohAQjePC0ubIls7apWfGtcfRUYZ1DQ/yluIq+kFLaIu+RvbtOlG2AxZadmxiufLd7Uy2f4Ym5xgnVI/6dD3YFNvEcYmbVWFAQC8XGB0PiNUA+7QnXtiysOnFC62wljgmUZnOfdc/djlRn22W8iAxObwIZ49v3QNGE6bdruR6etPaL78rr4Y4pv7Xd+FSLnpqE+bvYSBtieDCfU7rgzUFKvqqIOGU6MlBlbC2OI/Au5AOl3SIyiCHGB6efHj8F2IOG0FDoKvPwsT059skHqx/EzX8q8wofwY09ak3nF8vw8P8NpNh+Yi/1pW7V6PmkIm/Y6Qg3zyjt67hm8+GYg0iMEpj02duQrL4VS04rOD8IDW7rArS91JCct52x1BqUmhyABrJdnTZld/BE1RF4QymOpCNB5r3cmIbTwbh7uxMH7+C3ZiztCO2uSnyvpjTSYZ1DM/XDbv3/E7vx/VqL3Yriso8+69tW7bxqMOR+N3anJCHwLEnhByElB84sxP6MxdMWSyhrFJW1VhAAAvGxidzwRvxpJda3X7/bDaxVajXP3OPFc/drlRY4WnO4ho58DtcMSAhNOm3W6Y+/sFnfGzyMD9/mzkftd3IVJuOnEjKIaMZ+EZAw/nV+Yw2h2IjauAOxDz8PCFTEP54OA3GAenjQ+6KUTWG+9FShWPj4uAi63Si+XnoMkZyJOeTeb8HF2H0ua5NwlDxDiOW17JgcrDVz2AF0boyTk9kJCDGjd6FCED3o+0d6bCcrhzNZIqZECSS3cy8u1reIC1Dpu02dQfj7R1IY/uZMEyng/K31zqvg7DqPyPQgPzIkjdjlrkp+71R5NWBvXNj96m4MPGEbvxqr3Yoo2buBNZufbG28fDk2r9Oe/FZA+EIU1vblxPCLVncy/ins9kC2OTtqrCAABeMjA6nwv6dNJvX0Md+FoXWzHwMbn6SRdNwVO4tXgGNHc6F6b1uazEjaAQ7uAvjDnMhpqaTb1axZ2oXuEKG34+nqwLPPRJu9genCrXWo6a9cGzD120y6cpP77+8Dguqj+GsnGN0ChFyIAHs9H9SJ7bWKms0Z3UxAdY+TGnLVf9yVIXrHUnG7bxfHET3R7yCZitwuqWkQztaNb8PJv6k1IGzyM/34jnhnjPqXbjJWdJk/4+nV9/LfCwL8t4vn6nb6bMvnf/NZE5jE3aqgoDAHiJwOh8Jui9EdFOPJWLbd3Qq3bBVduUyINsIgeu3NxM1epkAejVk/SrVdrYiOyzCVKG8XR9QXOnSe220Ivl58RVLZ2fZm8akpl+qRlnE2qgkI78MjDJm93G9ra2aGuvmOtQytadPGRKW476kwV73cmGbTz3Z7xiJls/YXhO5erOLR82U9AhQrZkz8/zqD/peQ75eUfvdw7lnlNlA02ov38U8hgohuzxsOupt0op3Yt9t2zee80HOkWxCWMng6rCAABeIjA6nwH+yoZa0QqR0sX2JcAnG055n9CKA31eLO4JhY47iguumMRXEyInFYIKdMdfLcy68veq9Ton7KrZkXs4HWXE8GEzwgBl47Po03XBS0DX06bQE3ZRZyONXYZ9F2B/Uue7+LYtdvHw4Ut6UmI52aeRdC9WLsn+/tlh6OTw7GFs0lZVGADASwZG53PAu/i/TUOezQ/MmvurIav3x0TRbqRPwoPrUpNhHwd3rGJcLuE9KnwohX75h0wUh9lwMLlQ6o51BfpI+4BrdBHwSg/nf7RI/k3tgsjuakGZRV+mfULpeToZpKEK3eFJAO3anMXrwCptFvXHhmp0J388j3IP555cBfMO++ITUgs45GgdpnY0e37qXX/WEZdBffMTrKeihGjeZyMtrFfeKdQ50mYbj/ZoEo1BrF3398+KkcBHf0Nw1jA2aasqDADgZQOj8xngdSprSDvYTbPnplz0oCT9/VzewMaZ08V11PVKGIPuu7zoAWN0ryvLzDuRMoDfsTaNpyrKcLsqlF6lrBJ9CFCZe3frLoOqdEfvU4seErMKu7Rlrz82VKE7TJHx8CFCRyfVHE6S1I5mzU/d688qTDKoe368empwT08q0yD8nYF3f7HJbVWRN54ysUlbVWEAAC8XGJ01J+haO3GPnY++OvoKC+NgVwy8NvyBKW/m57vW5OqoHOiq51XCgxLtGsr7nqKXi7dEGgfjQej6Bu8E1YAbMXdavBfu8kbtFSkCvUdWuSOpvWEhmRm4vnAHuSJMMC+cvp3TYzcc36MZ6XVLQBvN3kqtvF5FINMmZBq52oGP1R+zK2LOFaE6ySBKVbqj9tmqt+3hjZJDUN4tdXLjOHA/oU3abOqPFRXpjk08/HwgZRmRsXi+o1dPCnXZy9COWuSnzvXHJ70Map0fXT6ivzw+3fHTtqpMA/C9uir94idE/oKuriEs4tHtN19Bo/sfDbcJrq0eMtJswljJoKowAIAXS+PNmzfwaagx7H53w/53ywltjRbu0zi8L0y66bnfk/f4Be/BiqHcXYKnkbKBe8oDXffvJNhtTLuG2YTR8ABcnmRnhI3sI++AnNXxOOQ4TWrKeyX9PHkyEJ0aX38SdN/hwY/q9OJy8GQZgfNw9ZZP34uHkQc56JFIjPj3s6J/3yTHIKbvrdcFX9a+nAPPIjqYJDsbGWhZLyedlW7CmuJ11Kw7tviycR8YKCptmeqPZV3Iojt5yBrPejk7Qqf2U+nUKtany1w2NnKrov7YYCuDuuaH4TZN33Mbx5w2TTRfq9KaNZ5U7Ydoh3lfpMYmDGMjg6rCAABeJljprDlJp9ZG8dxY2h/XrDyIgazogPqdp2/o1UEHc1o67kyti+MsaT65CA3I+G7KI7lfK/hdNy+i07pyF4yK4PqoT5O5+G33b5EgMbBYbezx/sp4Xjh9fHH/08qaT33cDx624qHTl99oYOoqgyp1h1chz/b40nyTXis9Cl47kSdtWeqPLVXpTtZ4WM7nJ6u+n9/gXA3Hk9yO2sitzm2ImdUyqHWbuBjJ8rFJ28O5e9eqgPO/Ss+yxiP1ep/7nyV3OyFUvRb9UMR4tAnD2MigqjAAgJcJVjpfKN7stGFlAwAAwHrQjkIGAAAAigErnQAAAAAAAAAASgNGJwAAAAAAAACA0oDRCQAAAAAAAACgNGB0AgAAAAAAAAAoDRwkBAAAAAAAAACgNLDSCQAAAAAAAACgNGB0AgAAAAAAAAAoDRidAAAAAAAAAABKA0YnAAAAAAAAAIDSgNEJAAAAAAAAAKA0YHS+ErrjGd3e3tJsPKBWo+E+BVloNFo0mN0KOc5o0IIMwWpQ58BLBHpdb1A+6Wi0BjQTcrqdQU4AVAWMzlcAN6677aZ832xv0vaGfAsAKIm61jmeOOkOxmKwhYmTOlL38kFfUm9QPgCAOgOjs+Z4s3GpXmPqGmbsHu/P6GrpyPfO8o4+Pci3AICSqG+d+0Afe21Sw9LXRXJbOqPZTLSdrZb7zaekmvJptLo0GIt8B+Uwm9F40F256lMnvfY9Tzjt8dWqRqNLYy9vr2M1q859va3OgWw0RDvGq91BOav2rVgZ28Tz0sJoWt0BjYUuB8PejrvupyAIjM5XwmK0R1tbW7Q3OqP7x0f3KQCgLFDnngtNajbbNJxOafYKBgqtwYxupkPqtUW+3WeSZpPavSFNT3fcB2ZqqddNw6rezkdqu29fE3Usn3U6d3yIJdki4Im1S9GODSNyVu3bJY276w2oNNjE89LCMDyRMp7d0nTYo7bQ5WBYYAZGZ83hmcs90YFwJ6Jf/bk7kznvh55vbY1ogcEtAAAk48yp3+l47WanP6G5uzrUbA8TBxgvAR5cHffU0MhZTiJy6NNkviQliWfEcklLMdzbjFidOx+Fyek4/J8o2Lf0QT0GFcMG5zSoc/24zn2Tn4I88Mr/4XFPGT6ijZu4cu50hIxl+yYM/OGp0RsuCzbxvLQwDHtSnE6HwtgUfzhLmk/6ofZ0a7RQXwQhGm/evIGV8szQjTgbnXtn9+7TON3xLQ1jU71LmnSOVhqnXAl3To/l3hBZEQWOqFRXJyLcvR9OVrobUelERyJ+kk4vVQV0lnM6OToXvf4pHYsEiJTScrJPo4UKq2aVRCWX4b7QzuEB7QZcyrhjOjm6Ns7S8szS4cGunDHVqLRdiLQlyyIrUgaRdMnRS5P/cmje36ezgCyYtHKzxVZuSg9Ums8fNsJp5MZSpC+aF8ZW1jrcZkQOd1cXdLaIh7ORmykMl8/y6kTomTmOjZ1tOtjdlDOSGlO6bPWaKbvOMav1QAyy51d0cu7rQaM7ppt4oowsJ51Qfpiy65wvM7Oc/EHrejmuwpObGFj0988T6ol4I+QaHTDYyCCtjuYtnyx4skyQQRJZ9TqrjtoQrKcTGtLwnZ8n/dm7+YTuNofUa8bTmrbO5WkPmKy6Y9Ne27Q7WdpEWzw9EO/XjVeC5Elb2v4n2h7QoSjHgI4u56KeJqQ3S3sdhV04uaxW/b4Nfjti1vXDy6moB9nKwYRNPC8tDKPrHI+79mBgpgYrnSCE6mCT3QyMh1u8++h1xEyz3aODw0O3I5ZPjDNFRO9lhR4GDTsBrzaYXLy4cbh0XXSCqLRNaTYoZk+WJ4NIupTBacZKbtZkk5vPjiinSBpF+nqG9NnKOhguKofe8MA8W5hRbklhuHzaw2NjmI3DY88FJohKV0J+rPU6G/a6Y9ID8RspXCTTUkWduz7qk3LeEL8ZSTfHrwxOHoSHBwRF8+W7TIQo9/ehPWY2MrDR0ZdJ+TrKXH9eip8NuNhK11phBJx/cR+EsapzFu1BvvqTvr22wapNzMjG9qZKuzDsTs7TbzC1TVvW/kezfXoj2pmwjrZ72er2St1xYUOXDVX1+8npsUGu7Auc+UW8ndzYpk03sc23+db8beJ5aWFYB1Qw0cYcXctnIB0wOl8wi5G7zM+uAv25GLatRs3qiE6V/1j6rldBN4Pe8WF8079obNtNHhR2PNffds+dQexMRLVk3tH76LYN0WnLGaSl+J7r0tCfqG9TezfUeMuG3u3cg25hftpEMnr5B3MhGYj0a1cLmba+yItBiNZysyWD3HxEGkRnzP2dM1dp5PSp4hKfHfgDQFtZy5ljL1xcdvPld/VFF1u5bRzuxsL4cSQ5an1z0+S7pKt41KdN0wDAQq8rq3OMpwd+OJ1Oan/08vO4GPlp8tKt8qWf61dwlaaqOvf4eE/nJ66sAu6tOn7GmZ8YV+PLxlYGWXTUtnxsePh0p+Tc7NH08jDVIRlMVr32SKmjubn+LOTmu9jKgeTyM5mGg1X1c/nqT/r2mrErH4s2MQMs5213xO7cfcq4qp09bVn7Hw9RF4S9adTRaDyV9/Up4XS9f8fvHLqLnB6l9tOq1WZJZFItCzbxvLQwEr1fXLQxMUMVrARGJ/DRszrciQbcNHlQeH10ojo80UBH+jvF8koOCh++6gGV6JxPzumBvpBeQDAhXRZGZ3TvDijvxQBMdSzhPTrBQRy7MgTTxgcnmMJYsXMgB0lSBvvnIVeZhweRF/d9iDxysySt3KIsJ+wiouQnB/tXbi8eaFBtZb1z4DbQMtxZSHb39ws642fub0ks5fbhrYxFtPdh9zwVx8honNyfjdw0+e4xKh6z8ehhqdepyas7kTJ6OL9anZ8MVFbnBLx3/cQd6OnVop1Tf3AXdGsqAx58mAbItjKw0dEqCMqZ9Wo4vXFPaMy/qpVIWTq68V78guLxcUFqsXNbtGNqFYJl7xOIq6J+roj6k6a9tsW6TbTg29fwgH4dNmnL3P8ESaujOdvr0OnCppU1az6Q2+R4cJvGrryep8jEnYzItb/ZJp6XFoabHtXyOGJAKK+40qdoy9dMHkiXt36+VGB0Ag/tCmOaleRG9dOdrHqiv4v2RKJiXkTmlN3OeSWi4Ta53EhXKYF2Z+BGQA8IwwMJHy+MHHTYV3avMckwM2svN0tSyi0KG6qx/Y5fvqsG1cVW1jyrr9xNDLqQgK3ctBtke8inyrVyNu6rjEdLvc5ALt1xBz5hijGGq6xzmodzd9AmhurDy0uSi5zGPBaL3AN2eqwmm8RQ88qtW3lkUKyOFsv92R6FDk+SboFTOVjitBZKiToaRZZFc5MOTpVrLRcZ1yHPPnSpop8rov6kaa/LoajyiQ/o82NOm03/45FBR4vo63nCgVdHy5lI+0Zs33Obpl2zyVnShPcHX38t8MAmm3heWhhRd3tDtXVAfN2nSXKr02X1K97PARidwEPPzjd7PAAJztyol5r5MaEqbHnozsuh7+YtOoV1xloGWWZm7eVWLaY8eacj7+nj9S1lrVcdnPR3w9nKjQfN2pWpPZzS9OaGbmdjGqwZMLe6PCM5C8Vxc6MOCTBTtl7XWXeqq3MaHrSd77srGbIXFwPIk/SH3aSm2VM648pYX+Ug4wvtG7WXga2OVsWjXPkRxmenL13z5Qmvblqf7bUx1xc0d0Qe2nKZM3EVqZp+Ln/9Sdde5yN7m1gdmdJm0f/YUP++/h293zmU+1qV3TSh/r5o0wqcKFXYxPNywmg9EN+kJbu/B125vZXRHq4CMgCjEwDw7ODZYr1aoxp4dcAED+xN+9T4pLkp7/eJHEwBakbAZZKNoIRF+2LhE2Xlvrn4idR5yKqjTwEb+uyav7cX2Mf2XK6N+fBWaIgoPteqC640xVcXK9KlZ0T5baK/WpjVywftdVa0rJuijWE3Y27TeAuO7zLsG+bfxbdtsYnnpYURoVQg4rMGRuz+Hug37hf+FoYkr7PXDIxO4OFXpOj9n+FX2furtIurj24YVuAOQOjbV7+xyIG5k9Sz12HqKzcbLGX94LqgBPY9rCOv3PRqDc/8e4c8satg5CAHPtFQumoKeI9U8Lf9wzmehrroTpzq6xy7JOr70pZL5XpYxOnAMdidzj0ARL729tTAIZaH/DJIq6N1QK3OqvftjwVuQK8QzgOX6aoDl6qpc9XXnyxU0SbyJIB2bc7igm+VNov+x4a6ttdBWYvUEV+3E72ORbsG59E3m3heWpg0+Hu+QRQYncBDV5SnnJ0x7YXxG4Zm7NQ+Rg5Wd1UvpWe9bdGdSlQGMg59al2EusrNBntZ60FWm3ZTupQUKTc+KOJIn4AaGXh4xrgwNi6uo75XH+it++4pqIPumKiyzml2Tl3XueWERiN9MJYw0Aq8WiMLRctglY7WjaLKtI5UUeeeov5koao2Ue9bZVdDgxiM2KUte/9jQxG6w4fUyP3TBVxJE8STtcHFOM34gL8zcA/EWeVibxPPSwujTwFPmkwpZgHgZQKjE/jIY+cF7aFodAYhFzCufK3ugMbsGlbYDL0YeG34HQRv4tYX8aoORz1nri/cwZpMm38yGKeLL2lWWyn8Q0Bs8a4UkC5mqlMIpctEjeVmg42seZClXdt4v0v09LaWSOOAZROUgYXc+PlAdNrjgfj9yPd39IxkwA2G0QMFPmREHxSpfn9Ml3zpe1K5VkHluqMHZ2IwfLz6yoyq6hzjr24saeIe6uGdVMnxFzxAS4uNDPizrDrqk758bOgOdLrC8myIv3kwrMogfn3Ac0ZPJHreKxXVuSrrT1YqaxPlPlv1tj28UXIIytvVu6ABZpM2q/7Hhpy6U+Y9nV7aeC/h6Y6vbynHB3w3qtJJ8RMif4ku9jbxvLQwD59Iqls0DOvAIHC3dCgQYBpv3ryp1q8D5IbvD2KlZhePJDcOeUcYN9Du30lEf0PedRW8myiGGBR2juQhDX4cgWeiY7jhkctyQlujhayEquIq1wXeM7U+Dv+7QXS+zZjD2MD7SbR7TxCW1dVbPtksHlcWudliKzedn+Wkk/qeP1tZq4FrUri4DLLKzdcn+acBR+RzP5TP1XXBIcdpUjOon7Z6XUGdY7zvi46Qr/UJuvyY0hXFy4uBqI5UUeeC+Y/G76c1f1yr5LaKrDKw0dEgWconK0ltW5CYflrodV4dTUOafpAxfS9LnbNtDxib+pO1vbYqn5Vh4m1iHtbXh+LSlqX/sdXRLLoTJRw2+Xu2sF7qu0rjrC7PqK6u0j+beF5cmDV6sK5deq1gpROE4NPx9oOHX3iIv+WFy8U2kmE4juQDPXi/Dp8MtlRHLbrodJnD2HB91KfJPJB/PmhE3peW3IDUWW422MqaD0+Jh2MRLmk+id9LllVuPKN9frLq+/HBPN/hdyT300XzwqfO7dOVO7H+VFStO4+LkbGMTJRd5+Tgzt3HKXrp8Gwy462UqJU/PaNcJVllYKOjQbKUT1ZU28an1UZ+W/yt0tZ5FQOlqupcVX1WVqpsE7k+nPFBVQadZj3kvjV4BVietGXtf2zIozsctpx7OhXcdnDabPTNv7JKhBCyXtdGZY3nxYVx9SAcRoSSV628jnbUBqx0gspZNcMIkoHcAAAAAADAcwQrnQAAAAAAAAAASgNGJwAAAAAAAACA0oDRCQAAAAAAAACgNGB0AgAAAAAAAAAoDRwkBAAAAAAAAACgNLDSCQAAAAAAAACgNGB0AgAAAAAAAAAoDRidAAAAAAAAAABKA0YnAAAAAAAAAIDSgNEJAAAAAAAAAKA0YHS+ErrjGd3e3tJsPKBWo+E+BVloNFo0mN0KOc5o0IIMwWpQ50DdeWk6ijpXb1A+6Wi0BjQTcrqdQU7gZQGj8xXADdhuuynfN9ubtL0h3wIASqKudY4nTrqDsRjQYOLktfPS+gX0c/UG5QMAgNFZc7ihljNeqV5j6hpmxR7vz+hq6cj3zvKOPj3ItwCAkqhvnftAH3ttUkO/10V3rNrJcddsbDe6Y9WOvpLVhbrqaKPVpcF4Fu73ZjMaD7ory6VO+fG9Ysz61Gh0aezlDfr21NjqHMhGo9WSq91BOc9mYtxa8ASoTTxVhWG0vqkw6SaAs4Zpie+PhQ7rdHGY2fjp9RlG5ythMdqjra0t2hud0f3jo/sUAFAWqHOg7tRNR1uDGd1Mh9RrN8MTI80mtXtDmp7uuA/M1LLONQ2rejsfqe2+fU3UsXzW6dzxIZZki4AXUC6nUxpG5Nxstmk4vUycDMyKTTxVhOGJqFZ3LIzSW0/f1mEThmGdnorvt4UO+4h0tkUbenNqXJyqChidNYdnB/dEI80NtX715+5s4bwfer61NaIFBrcAAACeGTyIO+6pQZKznFC/0/H6tk6/T5P5klTP94xYLmkpBnubEatz56MwOR2H/xNjwbf0QT0GFSMH50Gd68d17pv8FOSBjafD454yzpw5TVw5dzpCxnL1Wxj4w/zGkE08VYWhnQOaDts8l8HKJsJMRNuwBosw7LGjdNqh5cS3EToirDIdhFG8ZvKuTBpv3ryBlfLM0A0lG517Z/fu0zjsTib0NYJQ3M7RSuOUK9TO6bHcfyErlcARCn91IsLd++HYRej0Zkht0ViLn6TTS55Z4boxp5Ojc1FhTumYK4xU/n0aLVRYNUMkKqwM94V2Dg9oN+Dyx43/ydG1cSaUXQwOD3ZDMz4qbRcibcmyyIqUQSRdcoSgaj/N+/t0FpAFk1ZuttjKTemBSvP5w0Y4jSJ9c5G+aF4YW1nrcJsROdxdXdDZIh7ORm6mMFw+y6sToWfmODZ2tulgdzM0+2dKl61eM2XXOWa1HoiB7PyKTs59PeBO6CaeKCPLSSeUH6bsOufLzCwnf2C4Xo6r0PGY8sh4chKDiP7+eageZdE3r3wSfufwckq9ZrwNyaKjGpu6ba2jJeuBV84Gua0ia36y1h8bgm3IhIY0fOfnSX/2bj6hu82h0IV4WtO2B3naKiZrmValbzZ1ISueHoj368ZSQfKkLW3fGG1D6FCUY0BHl3PR7iSkN63umGBXUS6rVb9vg98HmXVdtYnZysGETTyVheG6evmRvrtl7dVdUZ6m8SRjE0bXN5Ms04QvG6x0ghBKKZNdBox+5O8+ep0d02z36ODw0O3s5JOEWaz3snIOg4adQLoAGGZiuKJfGlwMVNqmNBu03Cf58GQQSZcyOM1Yyc2abHLz2RHlFEmjSF/PkD5bWQfDReXQGx7EdMBGbklhuHzaw2NjmI3DY5oOe6FBAqPSlZAfa73Ohr3umPRA/EYKN8S0VFHnro/6iTOwHL+etZ33w517Vdjomw1WOuqRvm7bUFXbWy3l1x/m+vNS/GzAxVa61goj4PyL+yCMVXtg0VblK9Ny9S1fXUjHxvamSrsw7E7O028wtU1b1r5Rs316I9rAsI62e+Z47PsSEVYYumyoqt9PTo8NcmVf4Mwv4m34xjZtuoltvs235m8TT1VhHh8XNNobZZowyRqGDd737/idQ3eGTdP8e9wccRnnFLU1MDpfMIuRdrvlpfW5UMPVqBkangURLH33pqDLQO/4ML4RWTRobTlz3/Fcf9s9d5auo90B3tH76NYI0THK2aCl+J7rntCfuM4D7d1QAykbU7cDDbpe+WkTyejlHwCGZCDSr90mZNrYtcEgRGu52ZJBbj4iDaLD4z7Fmas0cvpUcYnPDvxBlq2s5eysFy4uu/nyu/qii63cNg53Y2H8OJKcob65aQq4m8h41KdNUydrodeV1TnG0wM/nE4ntT96+XlcjPw0eelW+dLP9Su4ElJVnXt8vKfzE1dW7aG3F0bHzzjzkyeZlWXs9M0GCx2VpK/bTHYdrUYPHj7dqbQ0ezS9PEx9uEjW/HikrD+5uf4s6pzvYisHrMvPdC3/ClNVH5yvTMvVN4VtXUgHy3nbtQycu08ZV7Wzpy1r3+gh6oKwN406Go2n8nFISjhdSYYQezfcuKvNknfvrdNnE09VYaon2aj88l3pz7vYgLwaYHQCHz1Dwx1VwE2TB4XXRyeqUxGNYKRPUSyv5KDw4asehIkO8OScHugLuTpuRLoAjM7o3h1Q3osBsmq8w/tgggO/vdEilDY+nMAUxoqdAzkQkTLYPw+5ozw8iLy470PkkZslaeUWhX38986U/ORg/8rtKQONo62sdw7cxlaGOwvJ7v5+QWf8zP0tiaXcPryVsYhxW9gFTsUxMhon92cjN03+jKGKZ8WkCGOp16nJqzuRMno4v1qdnwxUVucEvHf9xB1M6RWZnVN/AJXH5SovNvpmg7WOuqSp2zZUpQdBHWCdH05v3JMgS1xFLav+bLwXv6DQqwvNzW1RDl1SNmfQ5AzEVVEfXESZlqVvTN66kIVvX+MrQquwSVvmvjFIWh3N2ZeEThc2reBZ84HcJtSDDTd25fW8WCbuZESu/c028VQVphq4rD/dqTLkfnQQaDvlSbuDMel9808FjE7god1NTDN/QWWOz5CISnYRmbd1O8CViMbR5NYi3ZEE2jWBK7SelQx31j5eGNmx5xhgqSmsTLOf9nKzJKXcorChGtvv+OW7ahxdbGXNM+fK48SgCwnYyk3P1LWHfEJcK+cAZ5XxaKnXGcilO+7gIkwxxnCVdU7zcO4OjMRweHh5SXKR05jHailW32xYX6Zp6rYNVevB/dkeyQMv9GqbdAucyuP+WfaFUmL9iSJl1Nykg1PlWsui5Prt2YcuVfTBRZRpWfq2nqLKJ2445MecNpu+0SODjhYxDuEJB14dLWeS7xuxfc/7WrVrNjlLmvD+4Ouv4tOisImnqjDl409KsLs7t53qypQb8T62ZewJgNEJPPSMfrPnK2rwpWZxTKjKVx66g3Dou3kbTGEdnpZBltlPe7lViylP3unIe/oIe0tZ65l9J/39a7Zy44GpdhdqD6c0vbmh29mYBmsGpero8eC9VaIhvlEb/s2Urdd11p3q6pyGB0bn++5qgdwvJQZpJ+kPlCkLW32zIbuOKtLVbRueQA/kyo8wPjt9uW1AnvDqyp7vmXuWXF/Q3BF5aMtlzsRVpGr64PxlWp6++djWhSrIlDaLvtGG+o9D3tH7nUO5r1XZZxPq7x+FVn2LwSaeqsKUD3tWHLku1aE6zAffzSduX/Z0wOgEADw7eEZWr4ioMak6xIGNAdNeMD7RTR09/tQdL1hJwC2RDY2nOuwgSlZ9swE6GoYnIXjbwN5eYB9bYM9vrfnwVq4oOK5VF1xpiq8u1kfP60L5dcFfLczqgYR6mhUt66ZoM9nNmI0f3h7kuwz7hvl38W1bbOKpKky1cHvDfVbousW9PRqdLcSnSm+zupUXBYxO4KHdyNh1xlNUw6vs/VXaxdXH7yAScTt5UZMKmWU1d0R6hjhMfeVmg6WsH1x3kgx7GPLKTa+IcMPqHfLE7niRwxL41EDpqikI3lvFL/8AjKehLroTp/o6x25/+u6z5dJ1ECrgdODMJOQnrb7ZUF8drV4PTKjVZvW+/bHAzfEVwnng8jRd16Oppj2oR5kmUUVd4EG5dm3O4hZulTaLvtGGuvYlQVmL1BFf1RG9jkW7BufRN5t4qgpTF3xXb+Xi/xTA6AQe+gCCpD2BVWDab+JX8mbsZDxGDlZ3VU+gZ5Zt0Q13VAYyDn0yXIS6ys0Ge1nrgUybdg/TzRwXKTc+jOFIn4Aa6dw9Y9yZ08V1dHbvA7113z0FddAdE1XWOc3OqeuetpzQaKQPxhJGXUHXV+i6nWS0eMfgp8jPKn3zMDzn6xZMXm511dGn0IN1VBXPU1BFe1DHMg1SVV3Q+1Zp1UFtEezSlr1vtKEI3eHDcOT+6YKvQPJkbXAxTjN24e8MZspNeJWLvU08VYV5ajhdegxb7EFR2YDRCXzk0e6C9lBU7EHIbYwVttUd0JjdyQpbeRCDsg2/EeYN2fpSXdWoq+fM9YU7wJNp63ozk5wuvghZDeT47rNoR5AN79h+6calGt5QukzUWG422MiaBzLafYz3lATDMS2RxgHLJigDC7nx84HoGMcD8fuR7+/o2cWIS4vujPkgD30Yo/r9MV3yRclJ5VoFleuOHgCJAefx6mspqqpzjL+CsKSJe3CGdxokx1/AIMjTA/l74fx0B+pSdKE8oWPw+bOs+iYiUisbcpC5I+ORcXinG8aps45WpQdcBkrO4bKWpy4K2ZnK57mjJ0I8z5qK2oMq63ZWKqsLcp+tetse3ig5BOXt6l3QALNJm1XfaENO3Snznk4vbcLAPz5VbSKTduwSnKxb6WJvE09VYZ4IfWrtZSBdWe6lLZrGmzdv6rP2C1LBdwHx4IXdKJJcJeQ9XNwIun8nEf0NeZ9U8J6hGGJQ2FGXtPtxBJ6JxveGRwfLCW2NFrKxU5VQuSHwaXrr4/C/G0Tn24w5jA28Z0O70ARhWV295VPK4nFlkZsttnLT+VlOOitdu4LYyloNDpPCxWWQVW6+Psk/DTgin/uhfK6uCw45TpOaQf201esK6hzjfV90HnytT9B9x5SuKF5eDER1pIo6F8x/NH4/rcXEtVo/DfFb6BuTKDdRZvNvfPdeOD9ZdVSTtW7b6mgVepDU7gaJ1R2L/OStP2nQ8oqmN4rpe1naA9u2irEp0yr0zbYu2LC+fheXtix9o62OZtGdKOGwyd+zhfVS31UaZ3V5RnV1lf7ZxFNFmLR1Qddbxi7MCp026FPVYKUThOAT6PaDB2Z4iL/lpcbFNkRhOA6+1Njc+PCemP5kTkt1nKGLTldyg5WV66M+TeaB/POpX/JOsuTBQ53lZoOtrHnzejwci3BJ80ncpSOr3HjW+Pxk1ffjBoA8zU3uwYvmRchMfP/Knbx+KqrWncfFyFhGJsquc7KDdPdxcocYmxn2ViPUymxwhcAGpZ/6RFQf1k++sD2uO9n1jeHrX0JtiHjHJwdyh//VfRKk7jpaRdur2l0um1jhuPF0VrbBL4Wq2oOq+tOsVFkXuH6f8UFVxj5L9fvBVaE8acvaN9qQR3c4bDn3dCq43+G02eibf52WCCFkvWrCwyaeqsI8CSJ9Kk39wk6WzgNWOkHlrJrFA8lAbgAAAAAA4DmClU4AAAAAAAAAAKUBoxMAAAAAAAAAQGnA6AQAAAAAAAAAUBowOgEAAAAAAAAAlAYOEgIAAAAAAAAAUBpY6QQAAAAAAAAAUBowOgEAAAAAAAAAlAaMTgAAAAAAAAAApQGjEwAAAAAAAABAacDoBAAAAAAAAABQGjA6Xwnd8Yxub29pNh5Qq9Fwn4IsNBotGsxuhRxnNGhBhmA1qHMAgKpBu5OORmtAMyGn2xnkBEBVwOh8BXDjuttuyvfN9iZtb8i3AICSqGud44mT7mAsBluYOKkjKB+QB/T1AIA6g3s6aw53IpfTHqluZB1LmnSOaPEYL1Ke/RyKzshZzunk6JzuDd8Bq+EB4eHllHpNh+b9fTq7hwxBMnWsc41Gl05vhtSm16fDyW2pQ47zja5OLmhxf+8+exqqLJ9Gq0uHB7u0KXTUk4nj0PLuii7Or2P6avq+4yzp7uqCzhZhuXXHt0L31fvlpEOjReS3umO64S8sJ7Q1WrhPs+G3x+IPZ079/XAd82UpMHz+UqlrX59V38rGaw9emG40Wi3aOTiWkw/Benp1IsaGBbYnNvHUO4xoL453qd30Qog6dEdXF+eJYVrdAR3sbgbCCJ5Qp58DWOl8JSxGe7S1tUV7ozNUBAAqAHXuuSAGJs02DadTmo277rOXTWswo5vpkHqBQZlEDJ7avSEdH4aXyNhIvDR8n+XWGwq5DVrukzjtjzvuuxJpGlb1dj4qg/OVUcd2J6u+ATuUIT2Vkw7RejqcXtK4W4z3hE08dQ7Tctu3kPEoQjfbPRHmlLoGrxPW6emwFwkjcHV6enkIt20DMDprzuP9Ge2JDoQ7Ef3qzx35mTPvh55vbY2Mq5wAAABceGWj0/HazU5/QvOlalOb7WFhA7O6IgdLcnlQiGI5oX4/KIs+TeZL+iY/VcgVw2FbDuDk913ZdTriu1puvalRbsvlUlidu+W6Cos4liJ1mxGrc+ejMDkdXsUWfzTf0gf1GFRMVn0DdsiV/2PXk0O0cRNXzn49FcbQUBhQOQ0hm3hqHabVpQPZvjm0nPvtW38yF08YYawehCfO2LA9Vi4WtJyEx+H9yVKFM02EAbjXPkd0I85G595ZsjtY0MXJJ9kFV8MVd+d0vWuC574kOhLxk3R6yTNF4ruuW4/4ETrWlXmy77lYqZko0TDIcF9o5/CAdntqUMNwx3RyZHZN0C46PGOqUWkr1jVOyiCSLjl6kbNaZte3tHKzxVZuSg9Ums8fNsJpFOmbi/SZ3PhsZW1yo+JwJjc8xkZupjBcPsurE6Fn5jg2drZjrjCmdNnqNVN2nWNW64EYZM+v6CTg2uO5MqbA6ApZcp3zZWaWkz9oXS/HVXhyE4MRkzudlw4h16jLp40M0upo3vLJgicD8X5d/6FZJRfGK5+AXHWY5WRCNFR1KRi2GPdav55OaEjDd378+rN3YhB5tzmkXjOuO2nrXJ72gMmqO0p22dprvw4FWV1fsrSJttjoG5MnbWn7n2h7QIeiHAPt6HIu6mlCerO011GU+7MonRW/b4Pfjph1XbuiZykHEzbx1DkM0xqM6eDrUbzuJvye9zyh/fLbv3zt9UsEK50ghOpgk10TjDPW7z56HTHDLgkHh4duRyyfJMywvZeNwDBo2Al4tWF6GnfJ4oquXbyCqLStdvHKgieDSLqUwWnGSm7WZJObz44op0gaRfp6hvTZyjoYLiqH3vAgpgM2cksKw+XTHh4bw2wcHhtdYVS6EvJjrdfZsNcdkx6I32DXnpV6kJ4q6tz1UZ+U84b4zUi6OX5lcPIgPDyIKJov39W8Nr17H3KLspGBjY5Wwcb2pkqPGGifnD/IZ6vgfPCCoZT/xbV8FuXh0534VGCc2b+mz0vxT/tj7nqyimuOJBi/dK0VRsD5F/dBGKs6Z9Ee5Ks/6dtrG6zaxIxk1TeNbdqy9j+a7dMb0c6E29F2L1vdXqk7LmzosqGqfj85PTbIlX2BM7+It5Mb27TpJrb5Nt+av008dQ7D3J+NshmHX76rNo/btUh5B9vM7+bm51UDo/MFsxj5S/6dvnYVSEbNBIlOlf9YmtyomtQ7Nvipi8a2LQ/X6Xiuv+2eO4PYmYiun3lH76MDEtFpy1mnpfie6wbBrgnqs7BLlmzo3c492cUr/2AuJAORfu2eIdPWF3kxCNFabrZkkJuPSIPojLm/c1wXEk6fKi7xWcB9xFbWcubYCxeX3Xz5XX3RxVZuG4e7sTB+HEmOWt/cNPmuMCoe9WnTNACw0OvK6hzj6YEfTqczOMh/XIz8NHnpVvnSz/Ur2PFWVeceH+/p/MSVVcC9VcfPOPOTJzn0yFYGWXTUtnyywrq27Y66nLtPsZVeIxvvhYYLnDv6lGQzPHyiOymKJpnGs9cXXLZt2i1z3971ZyE338VWDj6Xn4XJG8e6zmVsD/LVn/TtNZO13VFYtIkZsNI3j+xpy9r/eDRFOyqUwdSORuPJ1V6XCKfrvaqodBepqOyJcOOuNksik2pZsImnzmFS43ynoP3I296upC6qiYbxoCt/jw8WkhNT4pOn6rPqDoxO4KNngrgTDbhp8qDw+uhEdXiigY70d4rllaxgD1/1gEp0zifn9CCqql5AMCHdHEZndO9WznsxAFMdS3iPTnAQtzdahNLGByeYwlixcyAH8lIG++FTyx4eRF7c9yHyyM2StHKLwvsP9s6U/ORgX7WcoUbYVtY7B26jLsOdhWR3f7+gM37m/pbEUm4f3spYxJgy7Eqs4hgZG3qeyVRp8l1qVDxm49HDUq9Tk1d3ImX0cH61Oj8ZqKzOCbgTP3EHenq1aOfUH9zlcQdLAw9YTANkWxnY6GiVfPsaHpQl8uGtqtPfvobyEYRl4VUPE65R2tzczjbQW4c2iAWPjwu5oqriUCsNLHufQH2oqJ8rov6kaa9tsW4TLUitby42acvc/wSJlFFiO5qzvVbGilIU42qcNR/IbXI8uE1jV17PU0TvUcy1v9kmnjqHSYbDHu7KGmycNOGJnv6c92/yqvWQpjc37uo8u9mH3XeBD4xO4KFdYUwVjBvVT2o6W/R30Z5IVOao65XbOa9ENNwmlxvpKiXQLhBc+fWAMDyQ8PHC5BzYbKipskwzs/ZysySl3KKwoRrb76jdRFxsZc2z+tqlJMkNL4qt3LQbZHvIJ9G1cg6+VhmPlnqdgVy64w58whRjDFdZ5zQP5+6gTQzVh5eXJBc5jXksFrkH7PRYTTaJoeaVW7fyyKBYHS2K+KCsCliPpbFU8MRbFFkWzU06OFWutVxkHHfUIK6inyui/qRpr8uhoAm1UvTNnDab/scjQztaRF/PEw68OlqOUfKN2L7nNk27ZpOzpAnvD77+WuCBTTbx1DlMHHbxjvYJMb5+p2+muvLe/RfEgNEJPPTsPJ9EeHt7G3up2SITqpKXh+68VvjIF9QZaxlkmZm1l1u1mPLknY68p4/Xt5R1Gje8CLZyuz/jVQJOAe+hmsoZxtvZmAZicL8KPhZ9NpuF4ri5UQcLmClbr+usO9XVOY00TvbdlQy5l0sMIE9KuD9PGD9SZ1wZ66scZHyhfaP2MrDV0ReLdH8VRvhuia6H1xc0d4S828L6WH5OXEWqpp/LX3/Stdf5yN4mVkemtFn0PzbUv69/R+93DuW+VmVrTai/L9q0AidKFTbx1DlMGNY9VZbRPsGHXXa9lU3pAu+7WPN+4NtXcv1WVmB0AgCeHTxbrK+6kAM3eVCEaOjFwN50pxafJjfl/T6RgylAzQi4THLnnbBoXyx8oqwcNMRPpM5DVh0tH3/1JrXXhTaMVrhz8qqe3kuVZGCx++sFL2MXeY2A6/rruJEGV5riq4sV6dIzovw20ULfXNBeZ0XLuinaGHYz5jaNt+D4LsO+YR7en5gNm3jqHCaOMialm40wOM19gn/AnWhr+MRq6QKv3Ob98zVe/vVbNsDoBB7aJYzdevQGfNOrbF917eLqoxuTFaTYe5QFcyepZ6/D1FduNljK+sF1W8mwXySv3B7lPp09OfPvHfIkBvbDyEEO3EHIPkQQvVPLP5zjaaiL7sSpvs6x8aLvWJP3OwqKOB04BrvTuQeAyNfenjtoiOYhvwzS6mgVBF1NU7tEe/V6hbGo97mtWQlU++TEgLBEH1teYeYyXXXgUjV1rvr6k4Uq2kQrfRNYpc2i/7Ghru11UNYiddJYil7Hol2D8+ibTTx1DhNFGpzeCmfyJKQ+JVcoaKyt8c/XEP3XxxL3EzxTYHQCD304QtKewCow7YXxGxPzgEUOVvWG70RfpnToTiUqAxmHPrUuQl3lZoO9rPUgK/0plUXKjQ+KONInoEYGHp4xLoyNi+voqPgDvXXfPQV10B0TVdY5zc6p6zrHHflId9zCQCvo+pesFC2DVTpaFXofIbsYp7H99AE9STJg/ANckl1aGe+32h/paUpUUUWde4r6k4Wq2sSs+sbYpS17/2NDEbrDB9vc3s5oXMCVNEE8WRtcjNOMD/g7g5lyE56tcA21iafOYTRpDU6QDxidwMfdd8NuAbPxIOQCxhWWj4Mes2tYYTP0YuC14XcQvPFbX96rOhz1nFHH7gtk2tTx1Ayniy9pVp4OKzZ8p8S7c066RqhOIZQuEzWWmw02suZBlnZt4/0uwXBMS6RxwLIJysBCbvx8IDpteUR55Ps7ehYz4jqjBwrB1Rr1+2O65Evfk8q1CirXHT04E4Ph48OVbp5V1TnGX91Y0sQ91MM7qZLjL3iAlhYbGfBnWXXUJ335WCH3Paq37eGNylMwjS112mNwQOwN5Awy4O+qchMDtRQNj74+5eNH90EF6IlEz3ulojpXZf3JSmVtooW+2aTNqv+xIafulHlPp5c2YeAfn+74+pZyfOAfnCN+QuQv0TXUJp46hxH4J9yqA4fWGZy6TeEr6vQ4UcN66s4nJRr4r5nGmzdvYM4/M/SMDLt4JLlxyDvCuIF2/04i+hvyrqvgfUYxRKXsqI3VfhyBZ6LC3fAoZDmhrdFCNsSqsvuzR+vjMM80+TNRJoqbneL9JNq9JwjL6uotn4YWjyuL3GyxlZvOz3LSSX3Pn62s1SA0KVxcBlnl5uuT/NOAI/K5H8rn6rrgkOM0qRnUT1u9rqDOMd73RefJ1/oE3YRM6Yri5cVAVEeqqHPB/Efj99OaP65VcltFVhnY6GiQLOVjw/r0xXV0nQyi+Ulqc2Jxu/XJBp2mVf0gY/peljpn2x4wNvUna3tt0+5kbRPzkFXf8qQtS/9j245m0Z0o4bDJ37OF9VLfVRpndXlGdXWV/tnEU9cw/P2k9jZEQE9S6bRoG3g/KQiDlU4Qgk/H2w8efuEh/pYXLhfbSIbhOJIP9OD9Ov3JnJZOMGU6XeYwNlwf9WkyD+SfDxpZc+9SneVmg62s1Ub6aDgW4ZLmk/i9ZFnlxjPa5yervh8fzLNb35HcTxfNi5CZ+P6VO7H+VFStO4+LkbGMTJRd52Tn7e7j5E49NgvvrZSolT89c10lWWVgo6NBspSPDZy+s72thHqq2rrolUzrZJDGOGKkbPRdk09IVXWuqj4rK1W2iVn1LU/asvY/NuTRHQ5bzj2dCm47OG02+uZfWSVCCFmva6OyxlPnMFmR7dg+jxOXPDwMoXRNjBdhcBrBSieoHNsVh9cO5AYAAAAAAJ4jWOkEAAAAAAAAAFAaMDoBAAAAAAAAAJQGjE4AAAAAAAAAAKUBoxMAAAAAAAAAQGngICEAAAAAAAAAAKWBlU4AAAAAAAAAAKUBoxMAAAAAAAAAQGnA6AQAAAAAAAAAUBowOgEAAAAAAAAAlAaMTgAAAAAAAAAApQGj85XQHc/o9vaWZuMBtRoN9ynIQqPRosHsVshxRoMWZAhWgzoH6g50FFQJ9C0djdaAZkJOtzPICbwsYHS+ArgB22035ftme5O2N+RbAEBJ1LXO8cRJdzAWAxpMnLx20C+AKoG+AQBwT2fN4Yb6ctoj1VSvY0mTzhEtHuNFyjOMQ9HgO8s5nRyd073hO2A1PGA/vJxSr+nQvL9PZ/eQIUimjnWu0ejS6c2Q2vT6dLg7vhXlIVrJSYdGi3i+G90x3fAXnDn1919HG1nXfqHR6tLhwS5tirR5fZ/j0PLuii7Or2PpNH3fcZZ0d3VBZ4t794lC6wFj0gVPD5YT2hot3KfZ8PsK8YdBn/x6KIC+PTlZ9a1svHHfC9ONRqtFOwfHcvIhWE+vTsS4tcC+yCaeKsIE2x4jhjYna5i139c8kW5hpfOVsBjt0dbWFu2Nzl5F5wbAU4M6B+pOHXW0NZjRzXRIvaABwDSb1O4N6fgwvETGRuKl4fvNZpt6wynNBi33SZz2xx33XYk0Dat6Ox+VwfnKeAn6BuxQhvRUTjpE6+lweknjbjGeNzbxVBUGwOisPY/3Z7QnGmluqPWrP3fkZ868H3q+tTUyrnICAAAAdYcNgKlcHhT923JC/X7H6986/T5N5kv6Jj9VyBXDYVsO+uT3O+r7nY747lL1k83e1DgAXC6XwurcLdfNXMSxFKnbjFidOx+Fyek4/J9I4Fv6oB6Dismqb8AOufJ/7HrsOXOauHL266kw8Ien1M25f9UmnqrCBGEPC/5+7LXCsyJtmMXI8J3AayKaPca5+/QkEz8wOl8wvMzOm/bDr/Hais0Vit1g5EZ29zWbiXCRzpk7/DF/Pu6q9/KQHf+QgFaX947xs1mo0+cZIvlchtN7zFRYFb6buHme3WAGIm36u/L7Mm3Js9k2mNJ1c3ms3KUSSCs3W2zlpvRA7eGLpVGkL2nQZStrHS4qh0HXHM5GbqYwtzPWs+Q4Wt2B0NF4fqLpstVrpuw6x6zWA/Ebg7Ae8EqQ/s0b7dInOsXe9MZ7rl/mGd1y65wvM7OceGC46vMqyKJvXvkYDgHh30k6jCyLjmps6ra1jpasByy3Y20AzPu0JwZT9wEXtcf7e1qcjWh05rvL7py6+iwMBvl9dxD1+Ci+O9rzJmjbu4fxtvHzZ2kQ9g7KWO38QG9lVj7TZzHIa25ue/FzmyJtzrsrupNP4pj0zdQe5GmrmKxlWpW+2dSFrNjoG5MnbVn7Rk0r0saPV6zep9UdExxu3e9bsXPgjp2WNNk/91xPuZ5eH52QqqZt2s27qmwTT1VhagDr/K5qMOnq/EE+qxoYnSAEd1ynN8kuA6ZOhd59pNNL0fm7AZrtHh0cHtKxOwOdPOvzXu57Gfb09xTN9pCmp/GBQNCNKohK22o3qix4MoikS0TkvoljJTdrssnNZ0eUUySNIn09Q/psZb3a1e0gpgM2cksKw+XTHh4bw2wcHtN02BM6Gs9PoguetV5nw153THogfqO3Tg/SU0Wduz7qe530MJJujl+tRPAeVPN+9bKx0TcbrHTUI33dtqEKPdjY3lRpd+Z0kmJAxOXCxpvUjYtr+SzKw6c78anA5OJK19IgpPbH3HV4FdfK6vTjl661POj74j4IY9UeWLRV+cq0XH3LVxfSkVXfNLZpy9o3arZPb0QbGG7j2z1zPPZ9iQgrDRIOxb+fnB4b5Mq+wJlfxNvwjW3adBPbfJtvzd8mnqrC1IGdA7U6a0x3RcDofMEEl9k7/bnqfFfAM2SH3HHxH0ZXpSb1jg0zxqJBa8vDdTr+zHJPKLdozPudiehemXf0Ptrpi46Rx5N8qIB2a+nrtf+I25NsTNe6UeUfAIZkEHCbkGnri7wYhGgtN1syyM2HV7bUoMSZqzRy+lRxhWf7bWXNndalFy4uu/nyu/qii63cNg53Y2H8OJKcob65afJd0lU86tOmqZO10OvK6hzj6YEfTqczOJB+XIz8NHnpVvnSz/UreKhKVXWOZ4fPT1xZtYfeioyOn3HmJ0926JGdvtlgoaOS9HWbya6j5esB14Ntd6SW2u1r472ofQLnjj4l2QwPn+jOlYNp/Hd9wfkveUXiWq2oahdbOWBdfhYmbxzr9iBjW5WvTMvVN4VtXUiHlb55ZE9b1r7RoynaeKEMpjY+Gk+uvqREOF3vVUWlu0hFVftpXTdV5t176/TZxFNVmDpQh1VOBkYn8NEzNNxRHfkntoVcBkQjaPRGWl7JQeHDVz0IEx3gyTk90Bf6vqKXUW4tZ55by70YIKvGO7wPJjjwM7lRmcJYod0mWAYBtwnm4UHkxX0fIo/cLEkrtyjLiQh3puQnB/tXbk8ZaBxtZa1n0VS4s5Ds7u8XdMbP3N+SWMrtg/JbE+M2Pwyj4hgZjZP7s5GbJt9VSsWzYlKEsdTr1OTVnUgZPZxfrc5PBiqrcwLeu37iDqb0ikzIdTLi4lYlNvpmg7WOuqSp2zZUqQfMt68pB0Qf3qr25tvXULkE4TR6VdeEa5QG3V8LQRvEgsfHRcDFVq3Osi75BMq1oj64iDItS9+YvHUhC6n1zcUmbZn7xiCRMkps43P2JdwGX7kTDsWuhGlXcx823NiV1/NimbiTEbn2N9vEU1WYMO1hYGvLbCbd4de5P9uECVKHVU4GRifw0O4mppk/brg+qSlj0adEW3tRyaLuTW4HuBLROJrcWqQ7kkC7JnCF1rOS4c7axwuTc/CwoaawMs1+2svNkpRyi8KG6ihyfQB9+a4aRxdbWfPMufI4MehCArZy++KOoNpDPiGulXOAs8p4tNTrDOTSHXdwEaYYY7jKOqd5OHcHRmI4PLy8JLnIacxjtRSrbzasL9M0dduG6vQgPpCrAq5j0lgqeFIwipRRc5MOTpVrLYuS444axFX0wUWUaVn6tp6CJvtK0Tdz2mz6Ro8MbXwR4xCecODV0XIm+b4R2/e8r1W7ZpOzpEl/n86vv4pPi8ImnqrCGGg2pTv8cHqT3m08Y5i6rHIyMDqBh57R59P+vBmVwEvN4phQla88dAfh0HfzNpjCOjwtgyyzn/ZyqxZTnrzTkff0EfaWsk7j6hbBVm73ZzwTzyngfUpTmt7cqEMs1h3G0B3TLHL4w82Ne5eekbL1us66U12d00gDYN9dLZD7pcQg7eTp76iz1TcbsuuoIl3dtqF6Pagc6f5K5sOGiuL6guaO0J+2GPktPyeuNFTTB+cv0/L0zce2LlRBprRZ9I021H8c8o7e7xzKfa3KPptQf7/Y+zkVNvFUE8Z0smxw25bJpd0mTJS6rHIyMDoBAM8OnpHtyL0wjhocycMYRGebcEofn6A45T01kcMfQM0IuCWKQjXuw3sKsuqbDa9bR/3Vm9QeIdowWuHOyat6ev9VkoHF7q8XvMRuPGzIEtf113EjDa40xVcX66PndaH8umChby7oS7KiZd0UbSYbPw4t5fYg32XYN8y/i2/bYhNPVWGSYffqIz3ZKn4tTVuQJUydVjkZGJ3AQ7uRsetMdGYl+Cp7f5V2cfXxO4hEUuzvyYK5I9IzxGHqKzcbLGX94LqTZNiTkVduj3IvzJ6cXfdm/oQxMIwclsCnBkpXTQHvQwr+tn8AxtNQF92JU32dYwNB330m71AUFHE6cGYS8pNW32yor45WowdBV9PUbrpem7PCWNT73NasBKp9cmIQWaKPLa+Yc3kGD+uKUk17UH3dzkIVdcFK3wRWabPoG22oa18SlLVIHc37+7FraLRrcFFtSNp4qgqznhR1Mka6MHVa5WRgdAIPfQDBUx7zbNpv4ldy86BADlbVVI43s2yLbrijMpBx6JPhItRVbjbYy1o3gOlPgixSbnLmT5+AGuncPWPcmdPFdXTk+YHeuu+egjrojokq65xm59R1T1tOaDTSB2MJo66g61903W5/NP+edwx+ivys0jcPw3O+bsHk5VZXHa1SD/Q+Qkq5v1If0JOUNsY/wCXZpZXxfqv9kYrRNjuqaA+eom5noaq6kFXfGLu0Ze8bbShCd8q6p9OTtcHFOM3Yhb+j7je+lfeRJ2ETT1VhVuJNjq1weY+SIkzdVjkZGJ3Ax93bQu1h7GQsrkjqQuTVlzpnQwzKNvxGmDdk872DclAmG3X1nFFH2wtk2vzL7zldO6d6IJe/Ynn3usmrG1TDG0qXiRrLzQYbWfNARruP8Z6SYDimJdI4YNkEZWAhN37Ol2uPB+L3I9/f0bOLEZcW3RkHV0TU74/p8kbtx3gyKtcdPQASA87jw5WuoVXVOcZfQVjSxD04wzsNkuMvYBDk6YH8vXB+uoOZG3/4GHz+LKu+iYjUyoYcZO7IeGQc3umGceqso5Xpgdz3qN7ySY0yrqDMW0qGwQGxN/gzpI2/q8s0zQEu+vqUjx/dBxWgJ0I8z5qK2oMq63ZWKqsLFvpmkzarvtGGnLqjDBTOQPH3dHppEwb+8alqE5m0Y5fgZB3fR66v1YphE09VYQx4uqOvWUlxUGGWMHVb5WQab968qUdKQGr4LiAevLAbRZKrhLyHixtB9+8kor/BDY+nzEbEoLCjLmn34wg8E5Xhhnv65YS2RgtZQVQlVG4IXDnWx+F/N4jOtxlzGBt4z4Z2oQnCsrp6y6eUxePKIjdbbOWm87OcdFa6dgWxlbUa6CWFi8sgq9x8fZJ/GnBEPvdD+VxdFxxynCY1g/ppq9cV1DnG+77o1Phan6D7jildUby8GIjqSBV1Lpj/aPx+WouJa7V+GuK30DcmUW6izObf+O69cH6y6qgma9221dGq2t718s6etmj5JMksFrdb123QaYqmNYrpe1naA9u2irEp0yr0zbYu2JBV3/KkLUvfaNvGZ+1LgoTDJn/PFtZLfVdpnNXlGdXVVfpnE08VYdbpGt/fenKUVNbugwimMBq/PIsvyzxgpROE4BPo9oMHZniIv+WlxmUqL8fBlxqbGx/eE9OfzGnpBFOm05XcYGXl+qhPk3kg/yI+dSdZ8uChznKzwVbWfOBKPByLcEnzSXy2LavceNb4/GTV9+MGALvOHck9eNG8CJmJ71+5k9dPRdW687gYGcvIRNl1Tnaq7j5OMbqLzwx7qxFqZTa4QmCD0s8lV+kQrJ98YXtcd7LrG8PXv4TaEPFuyRfpiwHkV/dJkLrraFVtL8v7bG8roQ1R7XD0uqh1aUtjHDGyrPVdk09IVe1BVWWalSrrQlZ9y5O2rH2jDXl0h8OWc0+ngvsdTpuNvvnXaYkQQtar6rRNPFWFiaO/L8aXo7SnPq8PE+xX67TKyWClE1TOqlk8kAzkBgAAAAAAniNY6QQAAAAAAAAAUBowOgEAAAAAAAAAlAaMTgAAAAAAAAAApQGjEwAAAAAAAABAaeAgIQAAAAAAAAAApYGVTgAAAAAAAAAApQGjEwAAAAAAAABAacDoBAAAAAAAAABQGjA6AQAAAAAAAACUBoxOAAAAAAAAAAClUdjptd3xjIbtJjnLOZ0cndP94+s7FDetDLrjW/E99w+PJU06R7RIITfIWtHqDuhgd5Pazab7hHFo3t+ns/t6y6TR6NLpzZDazyS9AAAAAAAA2FLISmejNaBdYQQxzfYmbW/It8+SRqNF3cGYZrczGrQa7tP1VCWDlyTrPLQGM5oOexGDEwAAAAAAAFA3QkZno9WlwXgmDK5butWv2YzGgy61GskG2OP9GV0tHfneWd7Rpwf59pnygT722pTVlMkig8Voi7a21KvTn5MKlY6XJWs7eJXwoKdKyJlPqN/pePLc2trDqiEAAAAAAAA1wjM6eeXoZjqkXrsZNriaTWr3hjQ93XEfmFmM9uSgf2909mrdPauSwauX9cZ7esf/OnM6Ob9+tfoGAAAAAADAc0AaneyyeaxXjpbhlaNOv0+T+TLTahwApfLhrZoY+fYVBicAAAAAAAA1Rx4kJPfHsdHpzKm/n/5gmqwH4rBxezntUVMYtp2jL7RzeEC7niurI6K/KmTlyovHkB/es3l4OaVe0z/ApdEd0008I0aWkw6NFv7v5T0UyEvrmjCZZe3l031gJB6ew23sbMcO6HGcJd1dXdDZ4t594qPSpuR5/rBBO6fHct+pDC3CzU+OCnV59cpL6NHWaOE+TYbzFEoT4zi0vDoRZRnPD2MKwzK4EnlZJOQlS5hVBwn5OiHCz/u0d2ZOozpQSohhLvKR8B0AAAAAAACemie6MuW9NIiGob2TYqCewo0XlMvG4bHxgJ5ms0294ZRmg5b7xMQOnXK5Bo07Dje9zHQoUxQ20MaBfcbeBEF76O891q9xV33mooy7SJoYdhsfHhvTlRSGZTBMyItNGBNpDU7+njpQit3fD6i7Ys81AAAAAAAAT4k0Oh8+3Sn32WaPppeH1E05QLY+EKfdkytwQVfe/twN3f5Y+QD6cTHy89GZ0FI+5RWo4AE16hVc5WTyHAqUhazxPD7e09meH8YL2+mTEjXnz7RK+k2Uy5wm/X4ozEQJRahIkoHTFMblUBirbCypcvXjEp8dPM1kwsbhLkkTNeI23u9PaL78Jr8TRK0Q8wqkIBBGyYAzI/JyfBg6WMsmjIm0BicAAAAAAADPCWl08omoJ9roE4bncHpDs9lYGJ+rVrVyIgbne6OF5/r6cH7lGnvv6P0rvQakCnglU3lSnxhdXu/PRvKAosW9b/CwAXt9pI3x1eWznLCxpMqVw51fudbqu/drja4kHh8XNHKNRWnMaQtY6JB+5r0i7rYf3rIJJ776Oey2fX+/oLPRKC6DjW3aVFYf9Y/8MEoGJ8qIFnUkZEPbhInAJ0efZjA4Q6cYzy9SuXIDAAAAAADwFHjutfdne9SRqz9qIKvcAqd0ezujcbdg49MdnIf5Qt9duxeUA++FlHt32eDPvIq2vnzYWIrtkfzyvbTV3zR8cRPdHl5KPV5n+G5sbyrD7+5TyEhl2Ij8dKd+713A8rYJE2ZHGJxqpTTLCqd3ijFWRAEAAAAAQI0J7el8lKs/wvjs9Kk/WfJZKwLe+zalWWSvHHheyD2Hci/kkiYxgz9MSxins9kstFfy5mbdoUR8mGz80lBekdvjFci9p7nehSdTtIsr6/H05oZuZ2MaJEyk6JXRZo8nXAJ7Rd2XNNoj2IQJsnnsu+bCgAQAAAAAAC8N40FCvDpzvxjR3p6/17LZHtK4a+ceCZ4Wf89h0j5OHz6JdiqM02bkIKHnDK8I6lV8NY+iDkVi4zPt/uUyuTtxXZdlHSvRpR0AAAAAAIAnwGh0BlErRep9+yNOln2O7JyqVcrlJHw1RxR2v9UHw/LezOBeSf9QoOeJXsXnVVc+REgtfrZpGDngR7vjsptrMP/RV3BF0iZMmGs6cg+H4tVYTO4AAAAAAICXxFqjM4jz/Yv77pnQfEsf3LcafZDOa8EzJJeT2Mm7UTbev1NvnDldXEddZT/QW/fdc4cPETo6cU8AjujIw1d1om3zbVRzkrEJE4XdkPfd2R3ef5rmihW+p1PuuV55jQ0AAAAAAABPizQ6uwMeuHapFTmttiH+1hfQC0uE7j7F9+zVkoevpMyANu0e7siVLHYx5bys21/nH5ijrrmog/ulLfIKDi4848FNcbTxRM1N2nbPvGG58R7Py5uhvA7lOcFpH4gyV7rtlyM/33EP/yHnuyjxANefPVfX2XgQKn8liwGN2S03eCCRTRgDfHWPcmcXurfmbk/c0wkAAAAAAJ4LjTdv3jzyPj7tVplE9FRNdRm+ewDKCoLhvHsI2QjaPw8dLMOD88NLdgPlfYer3UDT0BKGtNHAFHHPv/Wo106Oh1cHbxIEspx0vBVDKxlUFkbLU/6ZSPp4HHKcJjUN5aP1JyibMvHKh69MiVyREmS9DBzxE/uxNAfvyzSzpEknvDc2axhf1snyNMWjCceX/D0AAAAAAACeGrnSeX3Up8mcT6tVe9M8xN/Ock6TfsczTJ4LD+cnIk/uwTESYWDMJ9LY/eo+SUKuOE3mtIzK41nxgdxDVVPD92Eeyf2OwXyzDgi5CcPoyl0IfS7wgVjnJ4EDhDy0XscNTka6ugYPHvLQ4eIGnk2YJLg+qv2zbRpehvecanBPJwAAAAAAeC7IlU73PQAAAAAAAAAAUCiZDhICAAAAAAAAAACyAKMTAAAAAAAAAEBpwOgEAAAAAAAAAFAaMDoBAAAAAAAAAJQGjE4AAAAAAAAAAKUBoxMAAAAAAAAAQGnA6AQAAAAAAAAAUBowOgEAAAAAAAAAlAaMTgAAAAAAAAAApQGjEwAAAAAAAABAacDofCV0xzO6vb2l2XhArUbDfQqy0Gi0aDC7FXKc0aAFGYLVoM69XrpjbieirzF1a6YH0NF6g/JJR6M1oBnXsRnkBECdgdH5CuAGebfdlO+b7U3a3pBvAQAlUdc6xxMn3cFYDNDqN3FSVdrqLIMqQb9Qb1A+AICXBozOmuPN4KV6mWfSH+/P6GrpyPfO8o4+Pci3AICSqG+d+0Afe21SQ9m6UVXayo9nMdqirS316vTnpDShXtRJR30vEvEyrFY1Gl0a637ulaxm1bnfbrS6NBjPwmOT2YzGgy5WGgtGy1rJef1EWaPVkivkwbKZzcTYsMAJNrMnR+A17rrf9LEJw9jkp85hXjswOl8Ji9GeHADtjc7o/vHRfQoAKAvUOVB3aqmjTcOq3s5HartvXxN1LJ/WYEY30yH12s3wxE2zSe3ekI4PsSSbF56EaXXHwoC59WSdBl6kuJxOaRgpm2azTcPpJY27z8sYsslPncMAGJ21h2c790Snwx2PfvXn7uznvB96vrU1ogUGtwAAAJ4jyyUtxRBuM2J17nwUJqfj8H9iVPeWPqjHoGLY4Jz21BDbWU6o3+94449Ov0+T+ZK+yU9BLnYOaDpsCwNGvHeWNOlPRL1YDRuqh8c9ZQA5cxFGlU2nI8pFrpg3qT08LXRf+XLil3/oNVq434iTNoxNfuocBigab968gZXyzNANPxude2f37tM47M4g2q0IogHrHK00TrlC7Zwey/0kslIJHNHwXZ2IcPd+OHZ5Or0ZUlt0PuIn6fRSvBcBnOWcTo7ORcN5SsfccJIjGpp9Gi1UWDVDJCqsDPeFdg4PaDfg7sad2cnRtXFml11NDg92QzN/Km0XIm3JssiKlEEkXXLEo3oBmvf36SwgCyat3GyxlZvSA5Xm84eNcBpF+uYifdG8MLay1uE2I3K4u7qgs0U8nI3cTGG4fJZXJ0LPzHFs7GzTwe6m0NFwfqLpstVrpuw6x6zWAzEwn1/RybmvB43umG7iiTLCA4Jgfpgy61xVacsTTxbdMeGVVwo9sCFrXciqo1n1zYZgnZvQkIbv5tTfP5e/qT97N5/Q3eaQes14WtPWnzx1m8laF2zaXps2JK+OpsHXY/G7a8YeQfKkLW1f4qVNGACsN3QoyjGgo8u5qAsJ6U2rOybYtZLLatXv2yD19PIjfXfz6emtyItp7MH4bZy5fhxeTkXdyVZ2SWgdNbXJSWQNY5OfOocBCqx0ghCqcUt2GTDuJ3j30eu8mWa7RweHh27nLZ8kzPq8l5VzGDTsBM32kKanO+5fPlzRLw2uJiptU5oNWu6TfHgyiKRLGZxmrORmTTa5+eyIcoqkUaSvZ0ifrayD4aJy6A0PYjpgI7ekMFw+7eGxMczG4TFNh73QoIdR6UrIj7VeZ8Ned0x6IH6jt04P0lNVnbOhqrRZ6U5F2NQFe8rXN+b681L8bMDFVrrWCiPg/Iv7IIxV/bGo2/n0LX3ba0MVOrqxvanSLgy7k/P0G0xt05a1L9Fsn97QNKKj7Z45Hvu2V4QVhi4bqur3k9Njw+PjgkZ7o0yTBdIbQODML0JGkGRjmzbdDDbfPg8/AZv81DkMUMDofMFkPcxCzdDwbJpgOaF+J+4y0Ds+jB8UIBrodpNn4Dqe62+75846drRbyDt6H93qITp6ORu0FN9z3RP6E9eJpL0bavBl5+AOCKRbTyxtIhm9/IOskAwCbhMybeziYhCitdxsySA3H5EG0YFzH+nMVRo5faq4xGcH/qDRVtZyttkLF5fdfPldfdHFVm4bh7uxMH4cSc5d39w0+S7pKh71adM0aLDQ68rqHOPpgR9Op5PaH738PC5Gfpq8dKt86ef6FV7hK7/OVZU223gUFrpTETZ1wfqQo5T6lpvrz6J8fBdbOcBbfqZr+VeYqvqsfHUhfdvL2JVPuTrKct52R9LO3aeMq9rZ05a1L/FoCh0VymDS0Wg8lffbJcJ5ef+O3zl0FzlxSu3BVSvUknfva58nm/zUOQzwgdEJfPQMDXe8ATfNx8d7uj46UZ2kaNQjfaRieSVdPh6+6oGO6NBPzumBvtD3Fb2mdD8YndG96y5yLwaHqjMK7+sJDq72RotQ2viwBVMYK3YO5MBKymD/PORe8/Ag8uK+D5FHbpaklVuU5YTdPZT8OH3nV27PH2gcbWW9c+A2tjLcWUh29/cLOuNn7m9JLOX24a2MRYxDwy59Ko6R0fXo/mzkpsmfOVbxmI1HD0u9Tk1e3YmU0cP51er8ZKCyOmdBlWmz1p0KsKkLuShL3zbei19Q8CqPWuzcFm1Sl5TNGTQ5A3FV1GcVoW9p2l5bqtTRb1/DA+112KQtc18SJK2O5mx7Q6cLm1a8KuUDuU2BBxtH7P6r9uAK3Z64ExgF7oluD2+8U1v59GK+T3bdya3pwtjkp85hgAZGJ/DQ7jOmmUxuiD/dyWok+sho7yUq2UVkHtrt0FciGnuTm450rxJo1wSu0HqWNTz48PHCyIGKfQe+oaawMs3m2svNkpRyi8KGamyP15fvqnF0sZU1rwQojxODLiRgK7cv7oiwPeQT4lo5B2yrjEdLvc5ALt1xB0thijGGq6xzWalP2gqaeMhBsXVhDSXqWxRZfs1NOjhVrrVczFwfPPvQpYo+qwh9S9P2lkNR5RMfaOfHnDabvsQjg44W0W/zhAOvjtZn39434jkB3gur3bnJWdKE9xRffxWflkizKd3Uh9Ob9O7ca8PY5KfOYQCMTuChZ82bvak/ExV4qVkcE6rylYfu8Bz6bt7WU1gHrmWQZTbXXm7VYsqTdzrynj6S31LWeqXCSX+fnK3c7s94ZYFTwPuupjS9uaHb2ZgGYtC9CnUEvb7vTL1ubtSGfzNl63Wddae6Oped6tOWXXeqwbYu1J7rC5o7Ik9tucyZuIpUTZ+VX9/Stb35qKuOMpnSZtGX2PBc+u1svKP3O4dyL6yygSbU3z8KrRQXQdAFXL+C249MruY2YezyU+cwAEYnAODZwTPMHbm3x1GDPXm4hBg8JFzMzCfnqSPoRe8AQAbqrjtZ60It+fBWrTq5Vl1wpSm+utgknM8Rpnwd9VcLs3rsoO2tAl0+TVH32TWZT+zlLTi+m7FvzH8X3y4edns+2tcu0+nqaHIYm/zUOQzQwOgEHtpVi12BojNSwVfZriTaxdVHV/IVuIMW+vbVr/g5MHesesY7TH3lZoOlrB9cd5IMexjyyu1R7u3Zk6sF3oypGHAPI4c/8CmIYswj4X1Vwd/2D/R4GuqiO3Gqr3PpqS5tddadIGnrwnOCV3FZzquuV6im/tS5LlSjo0HX5iwu61Zps+hLbKhv25udsOu5Q3ytSvQKF+1OXK6OpqgrMeJhbPJT5zDAB0Yn8NAHKjzlMc+m/TN+JW/GTvpjOMzhrurZ9Ey5LbojispAxqFPuotQV7nZYC9r3XG0afcw3Ux4kXKTM6Yn5s37njHuzOniOuqv9YHeuu+egjrojokq61xWqkxbnXUniVV14aVRRf2pc11gqtJRvW+VMhyKZ5e27H2JDUXoDh8ec3s7o3EBV9LkxSsfg1tymvEBf2cwU67Fs3HXfZoRfTiTaH1SV4WEMDb5qXMYoIDRCXzkUfWC9jB2ohhXpFZ3QGN22Sps5lwMiDb8ToU3ZOtLdVUnpZ4z1xfuIEqmrevNtHK6+GJntf2C73KLtAAZefh058XDB3MwoXSZqLHcbLCRNQ/MtDsc75EJhmNaIo0Dlk1QBhZy4+cD0dGPB+L3I9/f0bOLEZcWPbjgg0n04ZLq98d0yRduJ5VrFVSuO3pAJwbQx4cr3S+rqnM+VaUtfTx11h1OR9a68NzRk4KeJ0pF9af6upCeynRU7rNVb/kEUimHoLxb6gTPoAFmkzarvsSGnLpT5j2dVuj8NHt0fLrj62jK8QHfp6r0WPyEkMm4mz4/Xpnq60JSHLi3NoxNfuocBkgab968wdrvM4PvAuJN7uwWkuT6Ie8V40bd/TuJ6G/I+7GC9wzFWNKkcyQPdvDjCDwTjcgN+9MsJ7Q1WsiGRVVC5YbAjcr6OPzvBtH5NmMOYwPvQdEuQUFYVldv+ZSyeFxZ5GaLrdx0fpaTzkpXtSC2suZBhzzFzUhcBlnl5uuT/NOAI/K5H8rn6rrgkOM0qRnUT1u9rqDOMd73RafG1/oE3XdM6Yri5cVAVEeqqnOaqtKWNp6susPY6kFWiq8LPsG05dW3NKTp0xjT97LUH9u6zdjoW9a216p8LHTUlvU6V1zasvQltjqate0NEg6b/D0b0uqB1lkN67K+3zTOah2I6neSzq7TAb5X9eQoqQzcBxFMYRib/NQ5DMBKJ4jAJ+rtBw+l8BB/y0uai2tY43AcE+p3zJWV9/j0J3NaOsGU6XQVV8Gvj/o0mQfyL+JTd6wlD4bqLDcbbGXNh5rEw7EIlzSfxO8yyyo3ngU/P1n1/fAgm+F7/47kPrdoXoTMxPev3Mn4p6Jq3XlcjIxlZKKqOqepKm1p46mz7tjUhZdIVfWn6rqQlip1lHXubG/LWHcc8Tf3k8HrvPKkLWtfYkMe3eGw9bmnU8HtGufHRkcfzt27SQVcPtnaDh2HGCeN0p7GvD6MTX7qHAYIYx0rnaBqVs1KgmQgNwAAAAAA8BzBSicAAAAAAAAAgNKA0QkAAAAAAAAAoDRgdAIAAAAAAAAAKA0YnQAAAAAAAAAASgMHCQEAAAAAAAAAKA2sdAIAAAAAAAAAKA0YnQAAAAAAAAAASgNGJwAAAAAAAACA0oDRCQAAAAAAAACgNGB0AgAAAAAAAAAoDRidr4TueEa3t7c0Gw+o1Wi4T0EWGo0WDWa3Qo4zGrQgQ7Aa1LnXS3fM7UT0NaYu9ABkAG1IOhqtAc24js0gJwDqDIzOVwA3yLvtpnzfbG/S9oZ8CwAoibrWOZ446Q7GYoBWv4mTqtJWZxkAoEG/DQB4acDorDneDF6ql3km/fH+jK6WjnzvLO/o04N8CwAoifrWuQ/0sdcmNZStG1Wlrfx4FqMt2tpSr05/TkoTQBK+F4l4GVarGo0ujXU/90pWs+rcbzdaXRqMZ+GxyWxG40EXK40Fo2Wt5Lx+oqzRaskV8mDZzGZibFjCBFvWtLW6AxoLPdHpkq8UelOFDKoK89qB0flKWIz25ABob3RG94+P7lMAQFmgzgFgQdOwqrfzkdru29dEHduQ1mBGN9Mh9drN8MRNs0nt3pCOD7EkmxeehGl1x8KAufVknQZepLicTmkYKZtms03D6SWNu/mNIdu0sd5Mhz1qCz0J4erN9PIwZHhWKYOqwgAYnbWHZzv33Blz/erP3dnPeT/0fGtrRAsMbgEAADxHlktaiiHcZsTq3PkoTE7H4f/EqO4tfVCPQcVIw6GnhtjOckL9fscbf3T6fZrMl/RNfgpysXMgDLQ222MsaJr0J6JerIaNtMPjnjKAnLkIo8qm0xHlIlfMhXE3PM2/r9wmbcJAO5Z649ByEh639idL5QkSnWyqSAZVhQGKxps3b2ClPDN0w89G597Zvfs0Dh9mIepsBFF5O0crjVOuUDunx3I/iaxUAkdU+qsTEe7eD8cuT6c3Q2qLzkf8JJ1eivcigLOc08nRuWg0TumYGw3Z0OzTaKHCqhkiUWFluC+0c3hAuwF3N+7MTo6ujTO77GZxeLAbmvVSabsQaUuWRVakDCLpkiMe1QLSvL9PZwFZMGnlZout3JQeqDSfP2yE0yjSNxfpi+aFsZW1DrcZkcPd1QWdLeLhbORmCsPls7w6EXpmjmNjZ5sOdjdDM62mdNnqNVN2nWNW64EYmM+v6OTc14NGd0w38UQZWU46ofwwZda5qtKWJ54sumPCK68UemBL5jqXoUyz6psNwTo3oSEN382pv38uf1N/9m4+obvNIfWacTmmrT956jaTtS7YtL02bUheHU2Dr8fid9eMPYLkSVtavfbSJgwA1hs6FOUY0NHlXPQLCenN0vZGYddKLqtVv2+D1NPLj/TdzaentyIvprEH47dx5vpxeDkVdSdb2ZnIlTZR77ZGC/epj9b5YNtblQyqCgMUWOkEIVTFTnYZMPrSv/vodd5Ms92jg8NDt/OWTxJmfd7LyjkMGnaCZntI09Md9y8fruiXBjcLlbYpzQYt90k+PBlE0qUMTjNWcrMmm9x8dkQ5RdIo0tczpM9W1sFwUTn0hgcxHbCRW1IYLp/28NgYZuPw2Ojao9KVkB9rvc6Gve6Y9ED8BrsqrdSD9FRV52yoKm1WulMhmeuctdzK1zfm+vNS/Gxg1UO61goj4PyL+yCMVf2xqNv59C1922tDFTq6sb2p0i4Mu5Pz9BtMbdOWVa8126c3NI3oaLtnjidPv82GLhuq6veT02PD4+OCRnujlQZ5FOkNIHDmF/HJiY1t2nQz2Hybz0/AJm305bswFQXtj7H9jlwGKukOfQ9U8apkUFUYoIDR+YLJepiFmqHhmSTBckL9TtxloHcc9ruXiAa63eTZp47n+tvuubOOHe0S8Y7eR7d6iI5ezgYtxfdc9wR2tVCf7YYafNk5uAMC6dYTS5tIRs9scGQhJIOA24RMG7t3GIRoLTdbMsjNR6RBdODcRzpzlUZOnyou8dmBP2i0lbWcbfbCxWU3X35XX3SxldvG4W4sjB9HknPXNzdNvmuPikd92jQNGiz0urI6x3h64IfT6ZSduxvmcTHy0+SlW+VLP9ev8Apf+XWuqrTZxqOw0J2KyF7ncpRpSn3LzfVnUT6+i60c4C0/07X8K0xVfVa+upC+7WXsDqEqV0dZztvuSNq5+5RxVTt72rLqtUdT6KhQBpOORuOpvN8uEc7L+3f8zqG7yIlTag+uWqGWvHtfeZ7UoVj8Thnz+uAgPlhITv6IT5z5iXH1Mi02MqgqDPCB0Ql89AwNd7wBN83Hx3u6PjpRnaRo1CN9pGJ5JRuMh6960C869JNzeqAv9H1FryndD0ZndO82NvdicKg6o/C+nqChsTdahNLGhy2YwlixcyAHVlIG++ch95qHB5EX932IPHKzJK3covB+ir0zJT9O37nqCUKNo62sdw7cxlaGOwvJ7v5+QWf8zP0tiaXcPryVsYhxaNilT8UxMnZc92cjN03+rKmKx2w8eljqdWry6k6kjB7Or1bnJwOV1TkLqkybte5UQNY6l1tuZenbxnvxCwpe4VCLnduiTVKrIFzXfQJxVdRnFaFvadpeW6rU0W9f069yMjZpy9yXBEmroznb3tDpwqYVr0r5QG636MHGEbv/qj24Qrcn7gTGE+2J5smU/pz3b/LK8JCmNzfuCji7shfhhmojg6rCAA2MTuCh3WdMM5ncEH+6Uw3su1jvJSrZRWQe2u3QVyIae5ObjnSvEmjXBK7QepY1PPjw8cLIgYp9B76hprAyzebay82SlHKLwoZqbL+jdntxsZU1rwQojxODLiRgK7cv7oiwPeQT4lo5B2yrjEdLvc5ALt1xB0thijGGq6xzWalP2gqaeLAka53LLbcS9S2KTEdzkw5OlWstJ5frg2cfulTRZxWhb2na3nIoqnziA+38mNNm05d4ZNDRIvptnnDg1dH67Nv7RjwnwHthtTs3OUua8J7i66/i0yfm63f6ZtLH9+6/hWAjg6rCABidwEOvIDV7U+/OoeBLzeKYUJWvPHSHF/b5D1FQB65lkGU2115u1WLKk3c68p4+kt9S1nqlwkl/n5yt3O7PeGWBU8D7rqZyxvR2NqaBMEBXoY5fD98RdnOjNvybKVuv66w71dW57FSftuy6UwGZ61ydyzTC9QXNHVG/23KZM3EVqZo+K7/c0rW9+ailjrpkSptFX2LDc+m3s/GO3u8cyr2wygaaUH9//YFIVSAPwNQrm9LN3Hdj5j23t+Ou+mJubGRQVRgAoxMA8OzgGeaO3NvjqMGePFxCdFwJFzPz6Xjq+PXnOJAATwl0pwI+vFWrTq5VF1xpiq8uNgnnc4QpX0f91cKsHjuoP1Wgy6cp+kF2TWbDjrfg+G7GvjH/XXy7WvhQKG3Ey1OhpZu5ck33z6MY5rzb0kYGVYUBGhidwEO7LbIrkN60b3qV7UqiXVx9/A4vEXfQQt+++hU/B+aOVc94h6mv3GywlPWD606SYQ9DXrk9yr09e3K1wDvkiU8djBz+wB2eGPNIoneE+Qd6PA110Z041de59FSXtjrrTvY6V+cyjcMeDSzn+MFOPtXUn3rLrQodDbo2Z3FZt0qbRV9iQ33b3uyEXc8d4itFole4aHfip9BRfdqrUIJYffbPo+DzyOwPvrCRQVVhgA+MTuChD1R4ymOeTftn/ErejJ30x3CYw13VqOmZclt0RxSVgYxDn3QXoa5ys8Fe1npg1qbdw3Qz4UXKjQ+XODoxb973jHFnThfXUX+tD/TWffcU1EF3TFRZ57JSZdrqrDtZ61ydy9SWKupP3eVWlY7qfauU4VA8u7Rl70tsKEJ3+PCY29sZjQu4kiYvXvkY3JJZR9eND/g7g5lyLZ4V5upaLTYyqCoMUMDoBD7yqHpBeyganUHITZErEh9vPWb3xcIO5hDGwYbfqfCGbH2pruqk1HPm+sI1KGTa1HHbDKeLL3ZWnht8l1u0Y8vGw6c7Lx4+pIYJpctEjeVmg42seWCm3eF4j0wwHNMSaRywbIIysJAbPx+Ijl4euR75/o6eXYy4tOjBBR9Mog+XVL8/pku+bDqpXKugct3RAzoxgD4+NLoia6qqcz5VpS19PHXWHZs6V32ZFoueFPQ8USqqP3WWW2U6KvfZqrft4Y2SQ1DeLXWCZ9AAs0mbVV9iQ07dKfOeTit0fpo9Oj7d8XU05fiA71NVeix+Qsgkn6trGF1v+Uo3Pa7SsC64czb5jTQbGVQVBkgab968wdrvM0NuyBZazW4hSa4f8l4xbtTdv5OI/oa8Hyt4z1CMJU06R/JgBz+OwDPRgNywP81yQlujhWy8VSVUbgh8OuD6OPzvBtH5NmMOYwPvQdEuQUFYVldv+ZSyeFxZ5GaLrdx0fpaTzkpXtSC2suZBhzzFzUhcBlnl5uuT/NOAI/K5H8rn6rrgkOM0qRnUT1u9rqDOMd73RafG1/oE3XdM6Yri5cVAVEeqqnOaqtKWNp6susPY6oEtWetcVrnl1bc06DStk4npe1nqj23dZmz0LWvba6M7Njpqy/r2t7i0ZdFrWx3N2vYGCYdN/p4NafVA66yGdVnfbxpntQ5E9TtJZ23SlkpvxPd5X6SmShlUFQZgpRNE4BP19oMHtHiIv+UlzcU1rHE4Dj7VzFxZeY9PfzKnpRNMmU5XcRX8+qhPk3kg/yK+dfdI1VluNtjKWh0MEA3HIlzSfBK/yyyr3HgW/Pxk1ffDBifD9/4dyT2f0bwImYnvX7mT8U9F1brzuBgZy8hEVXVOU1Xa0sZTd91hsta5qsu0bKqqP3WVW5U6yu3v2d5Wgr6pfjJ4nVeetGXVaxvy6A6Hrc89nQpu1zg/Njr6cO7eTSrg8kkzSZIW2W/v87hqycOpEKo8xfgqYDjmwUYGVYUBwljHSieomlWzkiAZyA0AAAAAADxHsNIJAAAAAAAAAKA0YHQCAAAAAAAAACgNGJ0AAAAAAAAAAEoDRicAAAAAAAAAgNLAQUIAAAAAAAAAAEoDK50AAAAAAAAAAEoDRicAAAAAAAAAgNKA0QkAAAAAAAAAoDRgdAIAAAAAAAAAKA0YnQAAAAAAAAAASgNGJwjRHd/S7W30NaZuo+F+YzXd8UyGmY0H1EoZ5rnQaLRoMGN5zGjQell5e668ZH0rkkZrQDOuyzPI6bngtzes3133KQAAAPA8gdEJCoMHtrvtpnzfbG/S9oZ8C0ApQN/Ai2bngHpKvYV+f0w98QcAAADUERidz4xGo0tjufpYzorbYrRFW1vq1enPyXGfp+Hx/oyuliqEs7yjTw/yLSiA4KqHabUqpBevZDWrzvrWaHVpMJ6p1UWvXGY0HnSx0gjScX1Bc7cBdpafafGIK7WfmkarJb0rgvV6NhtTt8B+mNv67mAsfjfcdvBqd5q2o9Ud0Ji/H0jjbcJKeUu0U/xd73tiTLEuHhsZVBUGAFBvGm/evEFP9oxodMd0M2yT4zjUbDbJmfdp7+ze/bRYeCXpctqjJi1p0jl69YMeHgwcXk6p13Ro3t+ns/vq5OHHzX/F49d6IXHm1N8/p3sMUp+E1mBGU71EZaDMOpuEV5ehGwBY4feHJhxaTvZptMhfr3iLi27K4yT3xTzRdXo8JNf5I8xyQlujhfuHYnU7ZY7HRgZVhQEA1B+sdD4zdj5yb+TQ3dWd+D9Rc3MbKyevieVSDAeatBnxJZV64Tj8n1CKt/RBPQYVExzIOWKg1+93Ap4DfZrMl/RNfgoAeC7ISb9j1why5jRx63WnI+q09LZoUnt4WpALtDCq5qLt6PhtR3+ivY7atHsY30fAni6nU9fgdJY0n/RD4aMGJ09SqnaKDbi+971Of+KurrdpeLrDbzxsZFBVGADA8wArnc8I2bHciI5FrlZ8ou0Vq27eTKEY+HaOvtDO4QHt9tqqIRfwgPjk6Hrlioc/27h6pdM8M5tudZRnZw8PdmlT9JZe2kSneXd1QWeL8GoQd0YbO9t0sLspOlf97RXfXykDYaDNr+jk3CwDjisqM2nRyXiTZK7y0gtMNXPark4uaHGfb2XLK3uRlwkNafjOX7HSn70TA5W7zaHQibjsZX5Oj+UeSJ06lTbxveCKaSAe8RN0eqkGMs5yLvTlXFi3p3QsCrspByumGepsMlC6o+R5/rARTqMINxfpi8rZRt+y6o4Nwdn5LKuZedKWtv54aZNthyjHQ1GOgbqwnJ/QKCG9aXUnLzbxmMKIQLS8EvnJWaa560KG/HhxuX/HEGmIGg6aKupcVvL0P7XMj+dJYm5btRdKmV4M3oSWQRd0m8hy3UvQkyDe9w3p9XUx3M/ZyKCqMACA5wFWOp8TOx/loMS5+yQ663v6dKdm/aKrXmHey0Z6GDSeBM32kKaRmcyq4c7lciqMpMCgjGk229QbHsRmMjcOj2k67IUG5oz6/pRmg5b7JIpJBiLOnlkGqtONy0wZnGaCeQnCaRtOV6UtO9efl+KHAwfnSL0Qg7LzL+6DMF5+DHIeTi/N+4LfffQG2Uyz3aODw0N3kC2fxGeoc8lgR8QXSSOXa1L6MmKvO+nZ2N5UaReG3cl5+g2mtmnLWn8026c3YvAargvtnjkeK92xwCaepDAikNDN4+L2u9vUharkVuM6p8jW/9Q1P8rDiKu2MHyjhvLGNm26ETbflu9j4nwPt/Osayp5og8Qhvw62HB7/47fOXRn2Aj/+Lgg7mJEbiiYHRsZVBUGAPA8gNH5jFCNsd9RPHxK4WIrBkhyVnA591z9+hPZo4jPdgsZXNgcPiRnwt1BG6dNu9DI9LGLz/K7+mKIb+53A+5A0uVGfdrsJQy0PRn4Lkt9fUJH5FRINZPqrjgEXHt0utxza0LIAaaXFz8O3x2I01bgIPj6sxhe+JMNUi+Wn8k03Ajlx5i2JvWOD+P6IwZrbbmK3vFk1e65K2UdIQf55B29dw3ffDIQaRADTR5nOq5bGYdT0YrPDsKDU7vDrix1JyUs5213NKQmhSKDpZVkT5td/RE0RV0QymCqC9F4rHUnI7bxbBzuxsL4+S/QiTlzXcieHx7oj9z0B18drQQGqqxz1mTof+qaHy7PJCONVx9vXO8Gybv3ueuDiZYwxo/V8l58QsudjOY+IGakrSRsVAb58l3J+52r1DYyqCoMAOD5AKPzmeDNZjqBUzofPpFa7Fx9XYR0Qxmd0b3rJnO/GIlOnN+tWyUtj50Dt/MQgwtOW9Dd7P5+QWf8LNKB3p+N3O/6LjWPj/d0fRQf+MWQ8Sw8Y+Dh/MocRl9TwAPK/fNQuh4evpBpKB8c/Abj4LQtRnvFyHrjvUipQs9Eq8kGpRfLz0GTM5AnPTPM+Qm4sym5nahBmTBEjGOy5ZV0rXr4qgfwYuB9ck4PJOSgxiQeRciA9xbtnamwHO78SpVQEYOLXLqTkW9fI4PCNdikzab+eKStC3l0JwuW8Xx4KyUgdV+HYVT+R7ldKkNkqAtVya3udU6Ttv+pb34+kKtqHmwc8cmqel/kXO+5LGg/PU8qBU9tnQpjnNhwNxwCtqGsNHJE5xQ79dZwGi3LRXlJCbt/eCqMeH/1WJ4YK35DGrghbGRQVRgAwHMBRudzQc9mfvsa6ozXutiKgY/J1U+6aAqewkXFM6C5A7lY7w60HsPAL4g7+AtjDuN14ClXq7hD1CtcYcPPx5N1gYc+aRfbg1PlWstRsz54Y2IX7fJpyk9w8KFntH0MZeMOvKMUIQMemMb24H35rgYXpbJGd1ITHyzlx5y2XPUnS12w1p1s2MajV2Paw0sad1uF1a046esCU4Xcnk2dS9n/PI/8fCOeT+I9p9qNl5wlTXgv6fXX0g8IY7fu6WXyATq8XUS6MSsxujSVK/NleGXdn2hi9+OpZ6TeiPexbSUhbGRQVRgAQN2B0flM0Pscoh1yKhfbuqFX7YKrtilhN6NZ6F4x0VHeqIMFikCvnqRfrdLGhkORrTY+ZRhP8g6/JrXbPAOe7Fal89Ps+QOL4EvNHptQnX468svAJG++h3OP3Qz3zlJNAKyjbN3JQ6a05ag/WbDXnWzYxnN/xqtfsvUThueUpjc3dDsb00AYoMWSpS5UJbfnUefS8xzy847e7xzKPafKBppQfz9+KFQReOl2X97WDt7bGjEgtb6x7OSpt0FXe29VsEfHgVNv2VvmyHVbDsmUD+ESv6HdmePYyKCqMACAugOj8xngr2yoFa0QKV1sXwJ84h67GfH9pK+OD2/V6ok7IguumMRXBpL36rxWytcdf7Uw6wrWq9brnLDbpbzmQQ+e+eAYYYCy8YlL5EEx6LrdFLrFbu1smLHLsO8C7E8EfRffLh52GT/ad93tI67ZesXfkSdQizQFDLP7xRmdqI2tMa8m7kO4/gSN2629PfkbnFfGN+RtZFBVGADAcwFG53NAu9aK/w95Nj8wa+6vhqze6xJFu5E+CQ+ue0yGPRl8qiFva2GC94rxyz8wojjMhoPJhdI3NhJxDUbRgxcw2+7DKz2c/1WXZPsDkrDMoq98R88/nQzSUIXu8ABOuzZn8TqwSptF/bGhGt3JH8+j3MOpBs+hFaH/f3tnr9TGDsVx0ecNPEmKFPAKHiggJfQugBla496FmaFiBhfuwS0zmMI9lCFFmH0FKG6RZPwcXB197Kd2vTr7wRL+v7me6ywrS3v26EhHOpJq2OSIA+rcerLtT3efJ1635VtVx4ikjxcKd65usGzRrrJ+ROuQy+Ea5ObIoK00AID3A5zOd4ANrV1H2c5umfUzzWI7GO6Drl2EnZTVUtw8pMOopDNovlXFdhjTo8Iks3BHyhhRI9lz7pCo0h3qVOmt7tvAdjiaXLvbdRm0pTt2zVl6JqIIXtn86w+HNnSHqDMfNSN08bYbjaDOFeNqf7r+PGHddoS0u54nDd0zMhv80MY+HOJrueMiWLfExmeAWcnZtHPpI0s4MmgrDQDgfQCns+PERx1nZgv59GfPbtvv7OzKjtdm1DGlhfn2cGXd0dXX24Q6GDY0lNY9pXfX25JlHE1HiQ0TwtHaWBgxNUC0Fu6WDrLW7VBlbAMu+mO1OQmRkJmDhxvTyZVp4s9C5aODynU6Okcz7VTUj3Waw5ladbyKRJVNyjRxRAHJbySmFIpYYrCiiC7JIE1buqPX2eqv/fGjlkNc3rQz5HQhprGzBjll49QfFi3pDicfuj5SskzJWF7ftzMhbxV+hzoXo3z70+nnse+U1kZe7kdlK9me0lm8uvzyJ+TzTQ/83j3VaXVWLP0jvYlVuMQmVTbStdE02vW1oLG3u9bexp4lswEURwZtpQEAvAs2Pn36hPiEDkPhd48UfxfMxO6E1lq4oXVhKkzP3KfO8YufaZVBh67EGy9ycC+po2v+nQeFjdnQME4aC3XA1a50TsjJPgtHWovzWYnVqid66iy96JlCGcgGKr3VPDXIugHLyiGUZQp6hrvPtJNeNg2dIZa/QUj2fl/s77vkGMd133pdiGQdyTl2LaWDebLjyMDKOpjtFYYJW+rXUbfucIlkYy44qKtsXvWHWRd8dKcKvvmsl/NK6tRxKZ3Ko0pdqEtu6+x/G3WOw/rnd5etq89D0LuwZ+NmcZfNkn6uvLKutW+O+kusk3e63SisPzl5EBwZtJUGANB9MNPZcfJ2rU0ThqT0d9aMoMuOrOzADPfe3mjTJga0u16wMtNDhtUqEMtZMrRH7ban1mvF7zXPIhugOzNhVAcPZ0MxW8rfNv9WO/qp89/ynT1aX5l9FiofHdz/trKmnRCP45uthNjyVXcaiK7KoE3doVnIqyO9a2RWr7UexWcQqpTNp/5waUt3fPMhOV9fFN1fzeGsykevc/lQ2fLbn07b0fuJeqecsr1cm/NZJfT8frop81DHhQxzd+G1+uayBbPhXmHbpZDp9HPk50FwZNBWGgBA98FM5z9KOPJZMGoJAACgu6yb6ewqaH8AAACkwUwnAAAA0EFspEvXNgMCAAAAfIHTCQAAALwhtOGL2hQptjSCNpOiSU4KK3xKb+MJAAAAvDPgdAIAAABvyhfRH4zFPHYO81x7nIIO/ccaNgAAAO8dOJ0AAADAG0IbzcxSmw7pDaGKNzADAAAA3gvYSAgAAAAAAAAAQGNgphMAAAAAAAAAQGPA6QQAAAAAAAAA0BhwOgEAAAAAAAAANAacTgAAAAAAAAAAjQGnEwAAAAAAAABAY8Dp/CAcTBfq7LfFdJQ4gByUZ2NjS4wWdIbeQoy2IENQDOoc+BeBXncbvJ9ybGyNxELK6ecCcgKgLeB0fgDIuB72e+p7r78tvm+qrwCAhuhqnaOBk4PRVHa2MHDSRbr+ftCWdBu8HwBAl4HT2XHC0bhSn6k4cIzYvT5fibtAHzu+Cp7Ejxf1FQDQEN2tc9/EzqAvdLf0Y5FvSxdisZC2c2vL3PmWtPN+NrYOxGgqnzsuh8VCTEcHhbM+XdLrKPKEyp6drdrYOBDT8Nk+xmxWl9t6rs4BPzakHaPZ7rictX2rV8acfHhpZD2WemLvV/Z6Oir1PFsHI5U2oXPTA/PXJFXyITYOprG07r44gNP5YbifHInd3V1xNLkSz6+v5ioAoClQ594LPdHr9cV4PpedDHeH5F9ia7QQj/OxGPTlc5tril5P9AdjMb/cNxfcdFKve45Zvf0d0TdfPxJdfD/rdO78FFOydUADa7fSjo1Tctb27VZMD+pxhDj5cNJsSUfuVupNX+pJhEzfH8g0l7kOoXYgf4r5eKDSJnTOATcfCw1wXY4/orXxB05nx6GRyyPZgFAjYj/DpRnJXA4T13d3J+IenVsAAMhntRTDvb3Qbu4NZ2JpZod6/XFtHbMuQh2/84HuWK2CWUoOQzFbBkJL4h0RBCKQHcTtlNe5vyM7gasV/Sdf7GfxTV8GLUMO5zyuc8Oszv1RfwVVoJn/0/OBdrCkjZsZOe/tSRkr+yYd/LF0oCrOwHHyYaWRjuOJdOR60iIFy8hWDWdLY6Oks3qSHSBTDqByIOU/VoFYzoYJO7c7udc3Grj5xNm/lPnJ/6+kLdJpQB4bnz59gpfyzrBGnJzOo6tnczXLwfSnyA6+BGK2d1bonJKB2L88V2tDdFMhK5OsvHcXMt1zlE5V7kdZ2WRDIn9SXN7qir4KluLi7Jpqoji3lXl2LCb3Oq0e8ZIGSKX7T+yfnojDWEgZNUwXZw/OUVoyEKcnh2rE1KLLdiPLli8LX5QMUuVSvRc1ErYSy+GxuIrJgigrNy5cuWk90GW+ftlMlpGMsixf+lkIrqxtuu2UHJ7ubsTVfTYdR26uNPR+grsLqWfuPDb3v4uTw+3EaKarXFy9Jpquc0SxHshO9vJOXFxHekBhP4/ZQjkJZnuJ5yGarnORzNxyijqt6+VYRCg3cjqPr3Pqifwi5erqmPjKoKyOVn0/PoSyzJFBHr567aujHOL1dCbGYvwleib7ty+yE/m0PRaDXrasZetcFXtA+OoOx15z7I6PTeQS6oH8vq6/EqdK2cq2P2l7IE7le4zpaLCU9TSnvD72Og2Fl9K7Kvp9DpEdcev66e1c1gO/9+CCkw+3bFujqTj5fZatUwW/Z+sC9YeOUnY8D04+lvAe0qMLIc6Vvuff/9HBTCdIoBvY/BAI5+YWX3bChpigkIST01PTEKsrOSNsX5WxGccdOwnNNrhCvKhyUwhEvPEmwtC4UT1rskIZpMqlHU43LLmx8ZNbxL58T6kyyvINHOXjyjqeLi2HwfgkowMcueWloffTH58702yenoehNnF0uXKeh63XfvB1x6UH8jdKhEiWpY0693A2FDp4Q/5mqtyUv3Y4qRPebCP+318zRv3la2KNGUcGHB39N2leR4mHX4H82ViIrQqtlU7A9X/mQhJWnWPYg2r1p7y95sCyiZ5sft/WZZcd8ovr8gtMuWXzbX8s3y8fpZ1J6mh/4Fe3C3XHQI4uOar69/PLw0HN7EtWy5usndz8LrZNYXufq835c/Lhlu35auI1yEbvRmcl6/7Zg7pWBt98LMphPqQMZft0cS2wXcp64HT+w9xPTDiB/OwNbahAPnrESTaq9I8gCjOIh0AMzk+zi/6lse33qFO4F4b+9gdmBHFvJqs/8UV8TS/bkI22Gt0K5H0m3GI403eL/mHCeCtDbxr3eFhYVDZZjEH1zlxCBrL8NgxElW0on8UhRLbcuHjILUKWQTbG1N6tTAgJlU+/Lvm3WPgIV9Zq5DhMl5XdMvirbzRw5bZ5ephJE+WRF6j1x5QpCknX+ei/9lwdAIZet1bniFAPonS2nKK/Ez7P6/0kKlNYbv1c9rr9xBveturc6+uzuL4wsoqFt9r8idXywjkb3zRcGfjoKPf9cHj58aTl3BuI+e1p6U0yfPU6pKSOVubhl5RbFGKrOrnBL+HqdrbVzlWrP+XtNcF7Pwyb6AHJ+bvxJlZPPzxntf3L5tv+hMi6IP1Np46m82m9rS8JlevrF/q2Ek+p3aP0elqafTOkBtV84OTTaNlWf0ViWMmu45Z1v9YBynQ+BhocUfbtjdqn9wicThBhR5yoEY2FaVKn8OHsQjd40kA7w9uDO1XpXn7bDpVsnNXIz3/CTiC4UOEUkyvxbCrss+yA6YYluUYn3omjkIl42WjjBFcaFvsnyogoGRxfJ0JlXl7ks5jvCarIjUlZuaUJZhS+ouWnOvt3phWPGXuurPdPTOOh0l0lZPf8fC+u6Jr5LQVTbt8+q1xku5IMz9N5TJzGn0YydZmi0B2dj9t5DGHqdWmq6k7qHb1c3xU/jwet1TkJrV2/MB09O1tk18mo/GsMQ3OR10HmyoCjo20QlzPp1Xj+2PzOvU3p6OZX+Qua19d7oSc7v0s7pmc7SPYRsbxaaufqqD9l7DUXtk1k8Oe33xwQp2ze7U+csjpa0V4ndhd2zfqx+SaMyQkhm0ahvGGkiF2jWGl9MyefestGafXsokyZGszY1N4t+Yj66Cm7u3W4G235nZKL8iFokEOtj5e64DOL/9GB0wlCbCiMq4KRUf3xpI3ll0xLJI3GTWpM2TTOheRUVhUqJbGhFlT5bYcw2ZGICNOoTge/MQ6NlsfILF9uTErKLQ05qpn1jv/91cbewJU1jerrsBaHLuTAlZsNg+yPace7rYqdryLnkanXHlTSHdPxSVKPM9xmnbO8XJtOm+yqj29vhZrkdD5jvag1YJd6xFo+rbgzdauKDOrV0Xp5vjoSic2TVFjgXHXKqKy10qCOplHvorctTi51aC29MqpDoX9oaKOdq6P+lLHXzVDX+8k6G9Vxl43T/oR46GgdbT0NONDsaDMDaX8E+fdk02xotlgFYkbrgx9+17hhEyefespmZxfjtjoNhe+rkH51n6Un1BKk23Iz0UX5UP3WGyNJfbsovzYewOkEMezofG9AHZD4CJH+6FEpF9qYNIdtvFbir3uJTm2NsZWBz8gsX27t4nqmcHfkI7u9PlPWdtZhVf5sOK7cqNNsQ5n647mYPz6Kn4upGK3pMNO26IvEOVw/xeOj3sDATdN63WXdaa/OWajTdn1sZjJUb6GhBr030DpjZGyPclD5JdaN8mXA1dG2eFUzP9L53Buq0Hy1w6sp67s9NubhRixX8hn60vsoCK9rp52rXn/K2etq+NvE9vAqG6P94dD9tv6L+Lp/qta1ap9uJobH0qbVOFCq4eRTvWykE1rGaVutse+H/q52oo2HWIezqYO1R/SsywdhtXzgdAIA3h00Wmxna3RDojeYoI69a50a7Wg3p/U+qY0pQMeIhUySE1Rxz4ty0I6yat1cdkfqKvjq6FtAjj6F5h8dxdaxvZdjY759lhoiX5/x6uIzTdnZxZZ06R3RvE2MZgt9o3xgr32xsu5JG6Nn4AK1BCcKGY4cc/f6xHJw8qmnbGrnbR3+Ih1Bt622ESbkDE4oLD12z/N9tLSgaDOldfkgrLYacDpBSFRh0+d/Jj9Nr6+yIa4R7lCXBKYDIv78rmUE2N1I2tHrJN2VGwemrF9MeIzHepGqcrOzNTTyH27yRKGCqY0caEdD1YZIaI1U/LejzTnehq7oTpb261wUsiTfU6BDD+vYHTgDhdOZDUDU5+hId1Ayz1BdBmV1tAvo2Vn9vb9T4wL0FqFnoHdatOFSO3Wu/frjQxs2kQYBbGizTwg+q2yM9odDV+11XNaydMpZSh/HYkODq+gbJ586yqYcwXDmkT84GK3FdlMmn7CsqYgZ+kSbIkkbb/5Wxy7Q/xJwOkGIrZBFo0BN41oLExmtXmbXPkJ1Vu2C79xYpnLYRiUtA5WH3bUuRVflxoEva9vJ6ovDNaErljrlRhtFnNkdUFMdj9AZl87GzUN6ZPKb+Gy+vQVd0B0XbdY5y/6lCZ0LZmIysRtjyca7xqM1fKhbBkU62jXqeqddpI069xb1x4e2bKJdt0oddIcYnPDK5t/+cKhDd2gDHbV+umZnJJS1I8S4TP+A7hmZjXeKQuw5+VQpm4/DaXfnzhvkKBqYr8uxBcXA6QQRatt5SX8sjc4oEQJGhmHrYCSmFBpW2wi97HhtRg0ELTC3hwTrBkdfJx5uTGdNlS3agYzKRYc0qzQFC8vLEh4poELMdKOQKJeLDsuNA0fW1MmyoW203iW9S9yWLOOIZBOXAUNudH0kG+3pSP5+6v59OwKZCtGxHQXaZMRuFKl/fypu6dD3vPfaBq3rju2cyc7wefGRGW3VOSKa3QjEzGzqEe5USfm/0WgxRwb0N18djSj/fjgcyI6VLldSnhvy3/bQeup0pY82eM/YgcQweqWlOtdm/fGlNZuo1tnqr/3xo5ZDXN5G7+IOGKdsrPaHQ0XdafKczrBstGbxcj/St5L9g2jjHPkT8vlyQ+w5+TDLFu1wqzccWusIvvwQSg3S+dC7GcXWaaYy8snHRlO4PtFxRfJ3TDRN+1FK3Wbj06dPcOffGXZEhkI88hRanRFGBtr8O4/0b6izruLnJmWgyqQXVkd5xK7JhuGRei7BTOxO7lVl10YlGj1an4d7pCkaiXJR3+gUrSex4T1xSFZ3n2nXtWxePnLjwpWbfZ5gtlf6nD+urHXHNS9dVga+cov0Sf3TwUo+53HiOYvrwkqsVj3Ri+snV69bqHNEeL9spOlYn3g4kqtcacJncZDWkTbqXPz50/lHZa2eV5HcivCVAUdH4/i8H1/ybFucjH4y9LqqjpahTDtIuO7zqXNce0Bw6o+vvWa9n8I0WZtYhfX1ob6y+bQ/XB310Z00ybT593EhvbRnlWYpfp9pXS3SP04+vmmK7GCC1Ptb937S9oKbj4so7/rf7b8CZjpBAtod7zi++UWI/Lc6cLnJikR55G/oQSNMtANZoLdaNNhy5RtTXx7OhmK2jD0/bTSizkvL79h0WW4cuLKmzVOy6UiEgVjOsueS+cqNRrSvL4ruz3bm6Qy/M7WeLv0stLvdsbgzA+tvRdu683o/cb4jF03XOdW5M+s4qVHPjMKHMyV65i8+e9EWvjLg6Ggcn/fji7ZttFtt6rflv3XZ9grt3L9CW3WurTbLlzZtItWHK9qoyqHTpIfUtsY3ZKlSNt/2h0MV3aG0zZzTqSHbQWXj6Ft0ZJVMIWW9zkb55lOlbD7Y9+PSgY9i37oMZjpB6xSNMIJ8IDcAAAAAAPAewUwnAAAAAAAAAIDGgNMJAAAAAAAAAKAx4HQCAAAAAAAAAGgMOJ0AAAAAAAAAABoDGwkBAAAAAAAAAGgMzHQCAAAAAAAAAGgMOJ0AAAAAAAAAABoDTicAAAAAAAAAgMaA0wkAAAAAAAAAoDHgdAIAAAAAAAAAaAw4nR+Eg+lC/Pz5UyymI7G1sWGuAh82NrbEaPFTynEhRluQISgGdQ50nX9NR1Hnug3eTzk2tkZiIeX0cwE5gX8LOJ0fADJgh/2e+t7rb4vvm+orAKAhulrnaODkYDSVHRoMnHx0/rV2Ae1ct8H7AQDA6ew4ZKjViFepz1QcOEbFXp+vxF2wUt9XwZP48aK+AgAaort17pvYGfSF7vp9LA6m2k5OD9zO9sbBVNvRDzK70FUd3dg6EKPpItnuLRZiOjoofC9dep4oKsatTxsbB2IaPhv07a3h6hzwY2NrS812x+W8WMh+a80DoL752LYh9zM9MHcmIb2ZSj2J7pV5Tkelnydsc9TH3X8ntg5GqXzkZ41+ctK0AZzOD8L95Ejs7u6Ko8mVeH59NVcBAE2BOge6Ttd0dGu0EI/zsRj0e8mBkV5P9AdjMb/cNxfcdLLO9Ryzevs7om++fiS6+H7W6dz5KaZk64AmUG7nczFOybnX64vx/DZ3MNCXtvLZkg7jrdSbvtSTCJlnfyDzuVzreNLA0+V4vRUg/ZyPB6l8JNYm3p5mnEhOmraA09lxaHTwSBppMtT2M1ya0cLlMHF9d3ci7tG5BQAA8M6gzuL5QHeSVsFMDPf2wrZtbzgUs2UgdMv3jggCEciO6HbK69zfkZ3N1Yr+kx3Bz+KbvgxaRnXO4zo3zOrcH/VXUAWa+T89H2gncLUUMyPnvT0pYzX7LZ2hsXTUKjpCVfMJZtH7T3wm9+YODc1wnkiHsSctUrCMbNVwtjQ2Sjq4J8UDZPuX0mGV/19JG5Fn1yKbKPOZJfv7w5lJlxrU4qRpEzid/zDukIH8KXyLWvdVIjQhDBGaHujvJpzIbhJAI0H6NxaJ0SWqFOq6SmfXmOm0On3+9L8Ng7H3qvtV2bbMHfXgKtfj7bkw7ZOTsnLjwpWb1gO9hi9TRlm+vLV9XFm7QpUo3ejAnY4jN1caFTpSkIcr3MRVLq5eE03XOaJYD+RvpMJn4iE8j4+6oaPGdzB/DK/bj2sUuOk6F8nMLSfqGBb9vQ189C18P86wyvzNyHx01MKp22wdbVgPNr9vh53Fi7OHxEzY6/OzuL+aiKNU54/wfR7f+sPjm/isHuaX+BVQH+97+JtkU5TP+XQnntSVLC59c9mDKraK8H2nbekbpy74QnoQDnIsh0q3np+zOje5ejZXNFXK5ts2WrZSOjod5d9fVndcULp1v89i/8T0nQIxO74W90bOr6/P4uHsQuh5lL44rDqr3FI+r8/34mYZSKfuWOqH1Btjq57vr8SxdOwU/Z18GyTrpZrkJFt381dfdPHts7aJwZ2Y3Cf18Pl+Iu5UVj3xOT5qxUnTInA6QQJquC4f80MTXI2K+LIjLm8pzED/k8ILTk5PxbkaCVJXckaXvorTW5lXao1Zr+8Oo6KKSuEMFAYTR5dtLjsLNTVGVgbptW/pUIUYLLmx8ZNbxL58T6kyyvINHOXjyjqeLi2HwfgkowMcueWloffTH58702yenjvDTXS5cp6Hrdd+8HXHpQfyN0qEIZaljTr3cDYMOwPjVLkpfz0TsRLL4dmbRHJw9I0DS0dDytdtDm3Z3nZpvv4QD9rrjGYWVGhtIO6u/zMXkrDsAcNWVXunzepbtbpQjsQgx3X5Babcsvm2jZbvl4/SBiZ1tD9w58NvS2Ra6YTrjZ7o9/PLw0HN7EtWy5usDd/8LrZNYXsVPaG28iGeaUDi3r89okGB00PlcYrlxbUo1Lz//uqZSXJgU++O3rV+3JX4GzclnDQtAqfzH+Z+Ek2r7w3ttH8+qjJQw0X/iIU3xUMTBueOWHBp0Po96hTuhaG//cFA9KQxH+7NZPNKfBFf04NLsmGk/uQqkPeZMAia/td/O0wYSGVMTQMaD72KyiaLMajeAUzIIBaeoco2lM/iECJbblw85BZBM1u6U7Iy4SBUPv265N9ioSBcWVOjdRumy8puGSRH9Lhy2zw9zKSJ8sgLhvpjyhSFm+h89F97rkaWodet1Tki1IMonS1nfJT19X4SlSkst34ue91+4o1oW3WORqGvL4ys+uNwRsbmT6yWF+IqNgvRJjx948DQUUX5uk3462g7evDy40mXpTdQa47KzMwQvs8TUrL+VObhl6xzUYit6hgHv8SD+leSttrgau+0WX3TcOtCOUjO340Hsnr64bm+1L9svm1jiKwL0t906mg6n9b7ISWhcn39Qt9W4im1e5ReT2vCYYkvX9nlayuf0qz+CpdfR4MWyu6UaNP05lv0TQ8a2E2AaKZdDTLJv6R/h5OmTeB0ggg7EkQNVSy8KRGaII2gM1Q9uFNK/PLbdsLsKM5/4m9BK6PDWq7CsBaa/tfGO7kOJt7xU2EwsbLR5gSuNCxseAbJIBaeQby8yGcx3xNUkRuTsnJLQzH+RyYcRHX2tXVKGGGurPdPjFFX6a4Ssnt+vhdXdM38loIpt286bk3225IheDqPidOY0qikLlMUbqLzKRgUIZh6XZqqupN6Ry/Xd8XP40FrdU5CDeWF6UzZGRm75kXlnwpxaxOOvnFg66ihTN3m0JYexHWAdH48fywM9ayFpurP5lf5C5rX1/tYiK2eaSBdiojl1VIbXMc7bUrfiKp1wYc/v/220eWUzbttjFNWRyu2JdpZ0YrinClkY0PNI8hBpFDeMIrFroWstL65ej79cWzJyWKhwtTLDn4RyvFXs5gyN8dgRhjSLd9R2dl1GrQZqvXsNAM9FvPHRzPTrtdsutpGTpq2gNMJQmy4iauykOH68aQN0peMtZeV+SY1bmsawEJyKp4KR5LYEAiqyHZUMtlYR4RpYmtnOGzqoTKv0U++3JiUlFsaclTTMf5hKIaBK2saObdhGxldyIErt/9MD6o/pp3otip2cIqcR6Zee1BJd0znIkk9znCbdc7ycm06RrI7PL69FWqS0/mM7VKvvnFY/07L1G0ObevB89WR2FMzP7rkNtRTr0ms2flssP6kUTLqbYuTSx1aS6Kk+h36h4Y22uA63mlT+raeut5P1kGpjrtsnLYxxENH6+iH0IADzY4245T8EeTf07pWG5otVoGYDY/F9cNv+de6qCmfXk+FqavBr5Lh3HYWU9YscZfqo1G905scST24uM68o0J+/xV/XHr/1fzfBSdNC8DpBCF2RL83oEY+WoRuP3aXtyy6kjeHbSAK4tBravCsDHxGP/lyaxfXM9Hoptod+chuYc+UtR3ZX5U/f40rN+qY2nCh/niuRvF+ltmM4WAqFqnNHx4f56aRcNG0XndZd9qrcxbqGF0fm9kCtV6K0Tg3AFffOPjrqKZc3ebwBnqgZn6k87k31Lstqh/XsqfN0t4lDzdiuZLP0JfeR/ArdxapnTa4+jttTt8iuHWhDbzKxmgbOXS/H/JFfN0/VetatR84E8Pjs8Ssbz345xMPAbef+HKqMssHSCe0jGW75dh/wCesNk50/IndKTcKl6a1vbSJWBpOmraA0wkAeHfQiKydEdF9Ur2JAzkDrnAY2kFxTmtqUps/gI4RC0ukBvKtdthL46tvHKCjSWgQgpYNHB3F1rHF1vx2GrOD5Mp4dfGZpuzsYnf0vCs0Xxei2ULfCCTUU1+srHvSZuqZvkAtD4pChiPH3L0Oshz15kNhz2d2EHRNHdVOngrNkQ7nccap5ITVEtFGetJuhDvl6hD4aB+PpE3kpGkTOJ0gxIaRUehMetQn/mk6HtyGuEa4w0kS2G2i//yuZZTV3RDZEeIk3ZUbB6asX0zYiseajKpyszMiNLoejkpSOF5qswQywqo9kNB6hvhvRxtgvA1d0Z0s7de5KPxIvqdAN4517A7sTc7zlNU3Dt3V0fb1wIWebdbf+zs1Lo5vEXoGep9FO162Yw+68U7zaKMu0CCADW32CQtnlY3RNnLoalsSl7UsnXLK0sfQ2NDgKvrWTD7r64pyOMMZzqzDSYT59gY6UiY2Ax1tcCTbEvM3G85rd+OVypaxG9E+HkmbyEnTJnA6QYjdgKCO7aS5uNabRMakl9kZj1CdVbt4OzdeqBzWcKdloPKwO8Ol6KrcOPBlbY1z+TOw6pSbGpW0O6CmGvfQGV8txc1DepTxm/hsvr0FXdAdF23WOcv+pQlPo8ZyYhtH2RDXdHyFrdt5jW243X6J5ynStxDH9WjNT5Ku6uhb6ME62srnLWjDHnTxncZpqy7YdavkCDjE4IRXNv+2kUMdutPUOZ2hrB0hxmX6LnSPPt9YOmQFoaFV88lgN2eSlt5VFco4nCAJnE4QobZ2l/THmV27qMLqA5GLD3X2Q3bKNiMjTAu/6dw0XYfJqOvrxMON6eCpskWHd1O59i/zF2/7Em7br8IPtOFNlMtFh+XGgSNr6sjY8DFaUxJPR2zJMo5INnEZMORG1+lwbbUNeOr+fTuamAqdsY0xbeRhN2PUvz8Vt4963ceb0bru2A6Q7HCeFx9L0VadI6IZhEDMzMYZ4W6QlH8NnaBQD9TvJZ/nQHYedP7J7fbpb776JjPSMxuqk7mv8lF5hLsoZumyjralB/QOtJyT73pD/ptk53o/7x07EBJG1rRkD9qs2760VhfUOlv9lXYtVXKIy9voXdwB45SN1TZyqKg7TZ7TGZZNOvjnl9omEmX7LvHBusIQ+4r5WMJ3amchHZtyRfZcb1JU5HDaKAfXJzpGSP6OOebGzkZb+0BH4aU3UqPymbGhhBPNSdMmG58+fYJr/s6woysURpEXKqHO4SIjaP6dR/o31HlS8fOMMlDF0Iukozxi16RSP1LvIJiJ3cm9qry6skcjQevzcI8aRaNKLuobaaI1GzaEJg7J6u4z7YaWzctHbly4crPPE8z2CkO74nBlrTuHeemyMvCVW6RP6p8OaEvw48RzFteFlViteqIX10+uXrdQ54jwftl40rE+8TAhV7nShM/iIK0jbdS5+POn84/KWk9exfrpyJ+hb0Su3OQ7W/6hs/eSz+Oroxbfus3V0Tb0IM/uxsnUHcbzVK0/ZbDySpc3jes+H3vAtVUE5522oW/cusBhff2ur2w+bSNXR310J00ybf59XEgv7VmlWYrfZ1pXi/TPN591OkDnql6cpd5BQRuawPH+0kRyz8q8lH7Kek7rVi2cNG2CmU6QgHagO45vmBEi/60ONa7XECWhPGinLbfxodGi4WwpAr2docGWK99g+fJwNhSzZez5ZX7rzjbqstw4cGWtF6un05EIA7GcZc/+8pUbjRpfXxTdn3UA6Jy8M7UGL/0sUmby/jszeP1WtK07r/cT5zty0XSdUw2kWcdJDXRmBDqcjdAzs/EZAg52M4X0o5N+0oHtWd3x1zeCjn9J2BD5Te0iKDsgv82VOF3X0TZsr7a79G4yL8fks1dog/8V2rIHbbWnvrRZF6h+X9FGVc42S7f78Y1fqpTNt23kUEV3KG0z53RqqN2hsnH0LTpOS6aQsi4a8KiST4S9X/b7JvXsxsxBtT/H1i6aiwatN1S+pPPISdMmmOkErVM0igfygdwAAAAAAMB7BDOdAAAAAAAAAAAaA04nAAAAAAAAAIDGgNMJAAAAAAAAAKAx4HQCAAAAAAAAAGgMbCQEAAAAAAAAAKAxMNMJAAAAAAAAAKAx4HQCAAAAAAAAAGgMOJ0AAAAAAAAAABoDTicAAAAAAAAAgMaA0wkAAAAAAAAAoDHgdH4QDqYL8fPnT7GYjsTWxoa5CnzY2NgSo8VPKceFGG1BhqAY1DkAQNvA7pRjY2skFlJOPxeQEwBtAafzA0DG9bDfU997/W3xfVN9BQA0RFfrHA2cHIymsrOFgZMugvcDqoC2HgDQZXBOZ8ehRuR2PhC6GVlHIGZ7Z+L+NftKafRzLBujVbAUF2fX4tlxDyiGOoSnt3Mx6K3Ecngsrp4hQ5BPF+vcxsaBuHwci774eDqcb0tXYrX6I+4ubsT987O59ja0+X42tg7E6cmh2JY6GspktRLB0524uX7I6Kvr/tUqEE93N+LqPim3g+lPqfv6ezDbE5P71G8dTMUj3RDMxO7k3lz1I7LH8h+rpRgeJ+tYJEuJ4+//Kl1t6331rWlCe/CP6cbG1pbYPzlXgw/xenp3IfuGNdoTTj68NLIenx+Kfi9MIXX7SdzdXDvTxG2PE4fNIVuyf3oiDrf7IspG5vPnTtYht25y0gDMdH4Y7idHYnd3VxxNrlAZAGgB1Ln3guwA9fpiPJ+LxfTAXPu32RotxON8LAZxB4CQvaf+YCzOT5NTZOQk3jruJ7kNxlJuoy1zJUt/Z998a5CeY1Zvf0c7nB+MLtodX30DPLQjPVeDDul6Op7fiulBPdETnHw4abaM3YkcTkKm7w9kmktxUFM0yP6lLNcg5jwS8h+9/ljMH2U+jvBrThoAp7PzvD5fiSPZgFAjYj/D5Ur9bbUcJq7v7k6cs5wAAAAMNLOxtxfazb3hTCwDbVOpw1BXx6yrkAMwV9ODUhTBTAyHcVkMxWwZiD/qrxo1YziWnSv5Xd1vZLe3J++1chvMnXILgkB6nYfNhgrLPAJZuu2U17m/I11OmnmgIvY+i2/6MmgZX30DPNTM/7mJ5JA2bmbkHNVT6eCPqztDnHxYabYOxImyOysRLCO7M5wt5RVCOqsn+QNaFGFB92c+zsiKZB70iedz6BwU4aQBCK99h1gjTk7n0VV+OJg7zCA/BNeiwgYu14dAhOFLsiGRPykub2lESt5rwnrkj4hzazRmx2GIVRjWotL9p0MUaMRI/ZXSz/JDGkyIDo2YWnTZ6g2NC0MnYuVSvRc1rOUOfSsrNy5cuWk90GW+ftlMllGWbynL5wrj48raFUZF6VxheARHbq409H6CuwupZ+48Nve/i5PD7cSoqatcXL0mmq5zRLEeyE728k5cxMLVwlDGEjhDIRuuc5HM3HKKOq3r5VhEKLeccLqwHFKumfArhgzK6mjV9+NDKAP5fV37YSmSCxG+n5hcbZpgNhNirOtSPG094bVRPZ2JsRh/ifK3f/siO4VP22Mx6GV1p2ydq2IPCF/d0bLzs9dRHYpTXF98bCIXjr4RVcpWtv1J2wNxKt9jzI4GS1lPc8rrY6/T6PBn+XYKfp9DZEfcum5D0X3egwtOPtyybY2m4uT3WbZOFfxeZHuq2UoitG0edoqT5iOBmU6QQDew+SEQzhHrLzthQ0xQ6MPJ6alpiNWVnBG2r8rYqBAFc4VQ4QmX2REsMjQ2xCuOLltxiJcPoQxS5UrGUSRhyY2Nn9wi9uV7SpVRlm/gKB9X1vF0aTkMxicZHeDILS8NvZ/++NyZZvP0XMzHg0QHhtDlynketl77wdcdlx7I3xis04PytFHnHs6GQgdvyN9MlZvy1w4ndcKTnYu6+e+vHqMWX74mdrPkyICjo22w+X1bl0d2tC+uX9S1Iug5aMJQyf/mQV1L8/LjSf5V4gpxFQ/iVyD/19+pXE+KeKBM4vmr0FrpBFz/Zy4kYdU5hj2oVn/K22sOLJvoia++Wbhl821/LN8vH6WdSdrR/sCvbhfqjoEcXXJU9e/nl4eDmtmXrJY3WTu5+V1sm8L2Pleb8+fkwy3b89WksuNYB6u/bjtSBCfNRwBO5z/M/SQKKdgb2mn/fPSIk2xU6R+BK4yqJwbnp9ntxaWx7avNdfbC0N/+wIwg7s1k0098EV/THRLZaKvRrUDeZ8IthjN9dzokSxl607jnh3hV78wlZCDLb8NAVNmG8lkcQmTLjYuH3CJkGWRjTO3dyoSEUPn065J/i4WpcGWtRo7DdFnZLYO/+kYDV26bp4eZNFEeeYFaf0yZopB0nY/+a8/VAWDodWt1jgj1IEpnyxnv5L/eT6IyheXWz2Wv20+8gW+rzr2+PovrCyOrWHirzZ9YLS/eZNMjrgx8dJT7fnwhXftuenerpx+ZmV4nm1+lhktWT+JHns/w8kM8KVH0hKs/+3BD77bhcLOHX1JuUYit6uQGv6TLm4Vd5zztQbX6U95eE752R8OwiR6w9C3Ev2y+7U9IT9pRqQwuO5rOp5K9bhAq11ddUcVTqqLSzNujmW1WpAbVfODk02jZVn9FU64drSc9Vw1s+QETTpqPBpxOEGFHnKgRjYVpUqfw4exCN3jSQDvD6IM71Sl8+W07VLJxvrgWL9Ik2AkEFyqcYnIlnk2H8ll2wHTDklyjE+/EHU3uE2WjjRNcaVjsn6iOvJLBcXJ3tJcX+Szme4IqcmNSVm5pghmFr2j5qc7+nWnFY8aeK+v9E9N4qHRXCdk9P9+LK7pmfkvBlNu3zyoX2adMhhLrPCZO54RGTHWZotAdnY/beQxh6nVpqupO6h29XN8VP48HrdU5Ca1dvzAdPTtbtH8Zde6qhIOVIa+DzJUBR0fb5M/vkh2ib591nf7zO/EccUgWYfVwYZzS3vb3ejvj1iGWvL7eqxlVnYeenSXZR8TqQ0vtXB31p4y95sK2iQxK65uBUzbv9idO6h3l2tGK9prs3J0ZcHDO+rH5JozJCSGbRqG8YaSIXW9YaX0zJ596y0ZpTw9VzSoczOiPH9V5teqzWKhza4s2HqJBC3Vuq/nMacAzkO/ZsRTDwknz0YHTCUJsKIyrIpNR/aGHs2V7l26JpNFIh16ZxrkQabhdo0EqVEpiQy3iHcJkRyIiTFOxY7Oph+S8Rmb5cmNSUm5pyFHNrHf876829gaurGlUX0fQOHQhB67cbBhkf0w73m1V7HwVOY9Mvfagku6Yjk+SepzhNuuc5eXadNpkV318eyuo/XY/Y72oNWCX53qwSXY170zdqiKDenW0LrKdvzYgPVbOUs0Db2nUu+hti5NLHVpLr4zyTjvEbbRzddSfMva6GWoaUGtE39xl47Q/IR52tI62ngYcaHa0mYG0P4L8e7JpNjRbrAIxo/XBD79r3LCJk089ZaPQ67StXkuvp8Lhx/NHr7BxSjO/9VtCw0nzkYDTCULs6DztRGhHbuIfPSrlQhuT5rCN10rkhsnX1BhbGfiMzPLl1i6uZwp3Rz6y2+szZV0mDC8FV27PVzRLQCWgNVRzMX98FD8XUzGSnfsiKPRlsVgk8nh8NOf8OWlar7usO+3VOYtyTo7NTIZayyU7kBcNjBhL50fpjJGxPcpB5ZdYN8qXAVdH/1lU+Kt0wg8bDD18uBHLlZR3n2YbfuXOIrXTzlWvP+XsdTX8bWJ7eJWN0f5w6H5b/0V83T9V61q1TzcTw2Np02ocKNVw8qleNtIJLeO0rY6Ih5rbT3xpVF5Ie/qkiDANrdW9ddstTpqPDpxOAMC7g0aL7VEXqi2RRp42mKCOvSuEhna0o9CXXmpjCtAxYiGT8qU61wjWDu0oq9bNZXekroKvjjZPNHtTOurCOkYF4Zw0q2fXbOU5WBT+ekPT2M7NhpiY0F+7YUd8pik7u9iSLr0jmreJDH0zwF77YmXdkzaGwozJptESnChkOHLMq6yD5ORTT9nUrrA6/EU6nH62msKrz+yApixBGVuQSFMySoOT5qMBpxOE2JAwCuuxIzeuT9Prq2yIa0TUeOVSYu2RD+5G0o5eJ+mu3DgwZf1iwmM81otUldurWqdzpEYaEyOMqY0caEdD1VZJaI1U/LejzTnehq7oTpb26xw5L/YsN3W+o6SO3YEzUDid2QBEfY6OxMSsm0tSXQZldbQN4qGmpUOiw3pd4CzadW5rZgL1OjnZ8WywJ0YzzPROizZcaqfOtV9/fGjDJrL0TcIqG6P94dBVex2XtSydcsrSx7HY0OAq+sbJp46yhceQMBzOiBJ1MoVdK+4DJ81HAk4nCLGbI1TdUrsKrrUwkdFyd1hUZ9UuLM+NZSqHbVTSMlB52F3rUnRVbhz4srYGvfwulXXKTY0w2h1QUx2P0BmXzsbNQ7pX/E18Nt/egi7ojos265xl/9KEzgUzMZnYjbGkg1bT8S++1C2DIh1tC7uOsOwofNSByncWow1c8kNaifC3+jvibd6opo069xb1x4e2bKKvvhG8svm3Pxzq0B3aQOfnz4WY1nAkTZxQ1o4Q4zL9A7pntNBhwovpgbmahZNPlbLV43BKwsGxgpD3FPG1wk2m+UjA6QQRZt2N6I8zO32RYdg6GIkphYbVNkIvO16bUQNBC8ztIcG6wdHXCb3tvkSV7SAcNaVy0SHNKo0sfemF5TmEZ86poxt0o5Aol4sOy40DR9bUybKhbbTeJZ6O2JJlHJFs4jJgyI2uj2SjPR3J30/dv29HS1MhOrajEJ+t0b8/FRPtaAkAABTRSURBVLd06Hvee22D1nXHds5kZ/j8tDDMs606R0SzG4GYmU09wp0qKf+aO2hl4ciA/uaroxHl3w8Lte5Rf6XdHdUzxcu4pXeVjHeIww6jQwZ0r35vskNYwvDY41N2dsyFFrADiWH0Skt1rs3640trNpGhb5yysdofDhV1p8lzOsOySQf//HI/0reS/YNogx75E/L57NFVGTj5MMsW7XCrNxziOJyh7tijWUpuBkg6o87lpX80mOajsfHp0ydI5Z1hR34oxCMvjEOdEUYG2vw7j/RvqLOu4ucmZZCVf08v4I7yiF2TlfuReiHBTOxO7lWF10YlGqVan4d7RCsa8XJRcRQsBq0nseE9cUhWd59p17VsXj5y48KVm32eYLZX+pw/rqx1JzQvXVYGvnKL9En908FKPudx4jmL68JKrFY90YvrJ1evW6hzRHi/bKTTW7O7ypUmfBYHaR1po87Fnz+df1TW6nkVya0IXxlwdDSOz/vhsL58WR1dJ4P08+TZnEzepj5xsGUqagcJ130+dY5rDwhO/fG11xy742sTq+Crb1XK5tP+cO2oj+6kSabNv48L6aU9qzRL8ftM62qR/nHy8U1TZAcTxN7fOl2j81svztLvek39ceqHfxqgwUwnSEC7cR3HN78Ikf9WBy7XaySTUB75G3rQep3hbCmCVbxktlz5xtSXh7OhmC1jz08bjajz0vI7Nl2WGweurGnzlGw6EmEglrPsuWS+cqMR7euLovuznXkK6ztT6+nSzyJlJu+/MwPrb0XbuvN6P3G+IxdN1znVSTDrOKmhzozChzMleuYvPnvRFr4y4OhoHJ/3w4HKd3W0m1NPta1LH8m0TgZlnCNCycaeNfmGtFXn2mqzfGnTJvrqW5Wy+bY/HKroDqVt5pxODdkOKhtH36Ijq2QKKet1Nso3nyplq4bNQ/bhJmV3fZZp1HEuQ4+dojlpPh6Y6QStw51x+OhAbgAAAAAA4D2CmU4AAAAAAAAAAI0BpxMAAAAAAAAAQGPA6QQAAAAAAAAA0BhwOgEAAAAAAAAANAY2EgIAAAAAAAAA0BiY6QQAAAAAAAAA0BhwOgEAAAAAAAAANAacTgAAAAAAAAAAjQGnEwAAAAAAAABAY8DpBAAAAAAAAADQGHA6PwgH04X4+fOnWExHYmtjw1wFPmxsbInR4qeU40KMtiBDUAzqHOg60FHQJtC3cmxsjcRCyunnAnIC/xZwOj8AZMAO+z31vdffFt831VcAQEN0tc7RwMnBaCo7NBg4+eigXQBtAn0DAOCczo5Dhvp2PhDaVK8jELO9M3H/mn2lNMI4lgZ/FSzFxdm1eHbcA4qhDvvp7VwMeiuxHB6Lq2fIEOTTxTq3sXEgLh/Hoi8+ng4fTH/K9yGt5GxPTO6zz71xMBWPdMNqKYbHH8NGdrVd2Ng6EKcnh2Jbli1s+1YrETzdiZvrh0w5XfevVoF4ursRV/fP5orG6gHh0oVQD4KZ2J3cm6t+RG2F/IdDn6J6KIG+vTm++tY0Yb/vH9ONja0tsX9yrgYf4vX07kL2W2tsi3zzidsEJzm2oMrzbB2MxMnhtvjSi+mcIx9+2aSNOT8Uffn7mpWsd0/i7ua6Vln7gpnOD8L95Ejs7u6Ko8nVh2jcAHhrUOdA1+mijm6NFuJxPhaDuANAyM5TfzAW56fJKTJyEm8d9/d6fTEYz8VitGWuZOnv7JtvDdJzzOrt72iH84PxL+gb4KEd6bkadEjX0/H8VkwP6om86Xo+5AxOFz/FfDxQDmFC52piy9jEyOEkZF79gSzbpTh4wygnOJ0d5/X5ShxJI02G2n6Gy5X622o5TFzf3Z04ZzkBAACArkMOwFxND8r2LZiJ4XAvbN/2hkMxWwbij/qrRs0Yjvuq46bu39P37+3JewPdTvYGc2cHMAgC6XUeNhtmLvMIZOm2U17n/o50OVcr+k8W8LP4pi+DlvHVN8BDzfyfm4i91VLMjJyjeiod/LF0hiquX62aD0U+2Pef+KRmErn5KHulnEH5j1UglrNhaLNc+cQpXTbp1J4om7gSwTKyicPZUl4hpFN80sJgWw5wOv9haFqeFu0nP9O1FZsqFIXBqIXs5rNYyHSpxpkq0JT+Pj3Q39UmO9EmATTaon9jkWj0aYRIXVfp7BoznVanP8hdPE8VaiTLZu9V96uy5Y9mc3CV6/H2XIdL5VBWbly4ctN6oNfwZcooy5fX6eLK2qZLy2F04E7HkZsrzc8F6Vl+HhTOMpX3hPfLj6tcXL0mmq5zRLEeyN8YJfWAZoLsbz7akD7ZJA3mj+F1+3F1zpuuc5HM3HKijmHR39vAR9/C9+PYBIR+J28zMh8dtXDqNltHG9YDktu5dQCWQ3EkO1PPsTCw1+dncX81EZOrKFx2/9Los3QY1P1m0PX1Vd47OQoHaPuHp1nb+OuXcggHjXTAvonP6lF+iV/St+1tfw/zJ5uifM6nO/GkrmRx6ZvLHlSxVYTvO21L3zh1wReOvhFVyubbNlq2UjZ+WjB7X1Z3XFC6db/PYv/E9J0CMTuOwjupnj6cXQhdTfvisOqscsfzsfaKBjh2jyYq9L/uGf/X53txswykSTyWuhvZxOf7K3E8k8aI6O+8WVsKpxMkoIbr8jE/ZMDVqIgvO+Ly1ozeSGgK/+T0VJybEei8UR8hvqp1L+OBvU/T64/F/DLbEYiHUcXRZSsOo/IhlEGqXDIj8yULS25s/OQWsS/fU6qMsnwDR/m4si4OdTvJ6ABHbnlp6P30x+fONJun52E4SxxdrpznYeu1H3zdcemB/I3BOj0oTxt17uFsGDbS41S5KX89E0FrUN3r1ZuGo28cWDoaUr5uc2hDDza/b+uyr5bi4vpFXSuC3gs5b0o3bh7UtTQvP5706L4rxFU8KIew6Q7Yg/Y6o/xVaG0g7q7/MxeSsOwBw1ZVe6fN6lu1ulAOX32zcMvm2zZavl8+ShuYtPH9gTsfflsi00onXG/0RL+fXx4OamZfslreZG345nexbQrb+1xtzr/L+UT2Stb9M7e9qotnGixx7FvQBeB0/sPcT6Ip+L2hnVrPh0bITqnhon84Q5V6YnDuGDGWBq2vNtfZi0aWB2YR/N5MVjHii/iabvRlw0j9SdpUwIa1DMORmGTYkzKma8OoqncAEzKIhU2osg3lsziEyJYbFw+5RdDMlu6UrEzIBZVPv67kaD9X1tRo3YbpsrJbBn/1jQau3DZPDzNpojzygqH+mDJFIek6H/3XnquRZeh1a3WOCPUgSmfLGe9Iv95PojKF5dbPZa/bT7yhaqvO0ejw9YWRVX8czsjY/InV8uLNNj3i6RsHho4qytdtwl9Hm9cDqgffTU9t9fSj3Oj/5ldZ+ySrJ/Ejz2d4+SGejBxc/cyHG3r+GmY+injQM6o2xFZ1WINf0uXNwrYHnraq2jttVt803LpQDpa+hfiXzbdtDOlJGy+VwWXj0/lUaksahMr1VVdU8ZSqqHo9rQlTJb58ZZev8/nYddyy7r/5MrjVX+Ee8moeOJ0gwo7QUEN1Fu3YlggZkEbQGY0U3KlO4ctv2wmTDeDFtXiRqv23oJXRYS1XYVjLs+wga+OdXAcT7/i5wqhcaVjYsAmSQSxsgnh5kc9ivieoIjcmZeWWJpjJdCbkQnX270xLGTOOXFnvnxhjq9JdJWT3/Hwvruia+S0FU27fdNyatN1RGkLnMXE6JzTyp8sUhUrpfAoGRQimXpemqu6k3tHL9V3x83jQWp2T0Nr1C9OZsjMyidDJVIhbm3D0jQNbRw1l6jaHNvWA+PO75KzTt8/a3vz5nXgvcaiMYdV1YZzSePhrLViHWPL6eh8LsdWzHaRLEbH32lIbXMc7bUrfiKp1wYfS+mbglM27bYyTeke5Nr5iW0I2+M4MODhn8NjYUPMIctwolDeMYrHrDSutb66eT38cW3KyWKgw9WxYMi+fTe2pkr+nl8SYUHj9obzyl5UR5cqWD5Xx9FDVesZAS33A6QQhNtzEpZBkuH7oIWPZpqStvaxk6fAm0wAWIo2jK6xFhSNJbGgCVRY7KplsrCPCNBU7D6Fh8KiUfLkxKSm3NOSoTlLHB4j//mrjaODKmkbOdeiIQxdy4MrtP9OD6o9ph7itih2cIueRqdceVNId07lIUo8z3Gads7xcm46R7A6Pb2+FmuR0PmO71KtvHNa/0zJ1m0N7epDtyLUB1THlLNU8KJhGyai3LU4udWgtiZLyTjvEbbTBdbzTpvRtPTUN9jWib+6ycdrGEA8bX0c/hAYcaHa0mUG+P4L8e1rXakOzxSoQs+GxuH74Lf9aFzXl0+upMPXx/DEnZJqXDy1/UUtiEvpHeY3F/LbkTPTasmWhsHDlE0v7c+cRTl43cDpBiB3Rp93+ohGY6GN3ecuiK19z2AZiJf7mxQTU1OBZGfiMfvLl1i6uZwp3Rz6yW9gzZV0m1C0FV27PVzQSTyWgdUpzMX981JtYrNuM4YBGF5ObPzw+mrP0nDSt113WnfbqnEU5AMdmtkC1yLKTdvH2Z9Rx9Y2Dv45qytVtDu3rQeuo8Ffh3myoLh5uxHIl9acvvY+C8Lp22uDq77Q5fYvg1oU28Cobo23k0P1+yBfxdf9UrWvV/tlMDI/rPZ9T459PPATcfuLLqdyh5n752PdD9U7tKhsPsQ5nRgeZI3p4ZUtC+qrfv2xT32hvBAucTgDAu4NGZPfUWpiVMdZ6EwdyBlwhJ7SD4pzW1KQ2fwAdIxaWKF+qcx3eW+Crbxw+to5GszelI0KsY1QQzkmzenb9VZ6DReGvNzTF7txsiIkJ/V2ZTOMzTdnZxe7oeVdovi4w9M2AtsQXK+uetJkUZkxOFy0PikKGI8e8ylrDevOhsOczOwiaqKO8fGzEDO1PoHaVjTmntLOsXV5SZpOj/LJlUccC6bAh6XAe1xqpxQFOJwiJKkX6/M/kp+n1VTbENSJqIHIpsb7HB3dDZEeIk3RXbhyYsn4x4SQeazKqyo22Br+SzgCNrocjf9IZGKc2S6BdA5XNldA6pPhvRxtgvA1d0Z0s7dc5chDs2WfqDEVJHbsDe5PzPGX1jUN3dbQdPYiHmpYO0w1tToGzaNe5rZkJ1OvkZCeywRhbmjGn91m0q2Q79qD9uu1DG3WBpW8SVtkYbSOHrrYlcVnL0inHJ30MjQ0NrsuG1JdPtq409TzRWuyyrK/HyuEMZzjf3uEk4HSCEKv0VbeTroJrvUlUyd2dAtVZtQukc+OFymENd1oGKg+7M1yKrsqNA1/W1gCW3wmyTrmpkT+7A2qqcQ+d8dVS3Dyke57fxGfz7S3ogu64aLPOWfYvTXhaMBOTid0YSzp1NR3/Yut2f8f9e+E2+CWep0jfQhzXo3U1Sbqqo23qgV1HSCFmZXw/u0FPXtmIaAOX4h0jw9/q74h6tI1HG/bgLeq2D23VBV99I3hl828bOdShO02d0xnK2hFiXKbvQvfo841/qg138qiaT4Zw0CoZKcHJxx7flDfI4T1pkFM2SxcdTgJOJ4gwa1tEf5zZGYsqkj4QufhQZz9kp2wzMsK0IJvOHdT1hIy6vk7ore0lqmzRLl9Urv3L+hZIh+e6qaMbtOFNlMtFh+XGgSNr6sjY8DFaU5LeiW1LlnFEsonLgCE3uk6Ha09H8vdT9+/b0cVU6IxtjOMzIvr3p+L2Ua/HeDNa1x3bAZIdzvPTwtDQtuocEc0gBGJmNs4Id4Ok/GvoBIV6oH4v+TwHsoHW+Se3wae/+eqbzEjPbKhO5r7KR+UR7m6Ypcs62poeqHWP+ivt1Kjyist8S8sw3iEOO3+OstG99p2W2cDFHp+ys2MutIAdCAkja1qyB23WbV9aqwsMfeOUjdU2cqioO02e0xmWjdYsXmqbSJTtu8QH62jDHXusVoaK+VjCd2qPP0lvysXJxx7flE5DeY1iay7XFG5t2SRRW6M3NuqKw0lsfPr0qTulAaWwIxgURpEXKqHO4SIjaP6dR/o31HlS8XOGMkgl3tMLkaM8YtdkZXiklj6Yid3JvaoguhJGoy3r83CPzEQjNy7qG82hNRs2hCYOyeruM+1Sls3LR25cuHKzzxPM9gpDu+JwZa07ennpsjLwlVukT+qfDlbyOY8Tz1lcF1ZiteqJXlw/uXrdQp0jwvtlo0bH+sTDd1zlShM+i4O0jrRR5+LPn84/Kms9eRXrpyN/hr4RuXKT72z5h87eSz6Pr45afOs2V0fbsr3r5e1ftvT7yZNZJm9T1znYMqXLmsZ1n4894NoqgvNO29A3bl3g4KtvVcrm0zZybbxvWxInmTb/Pi6kl/as0izF7zOtq0X655vPOh2gc1UvzrIb2nGeZ937SdsLTtmiNnMNDt1qA8x0ggS0A91xfMOMEPlvdahxvYYoCeVBhxq7jQ+tiaFdvoJVvGS2XPkGy5eHs6GYLWPPL/PTZ5Lldx66LDcOXFnThivZdCTCQCxn2bO/fOVGo8bXF0X3Zx0ACp07U2vw0s9CO8gdizszeP1WtK07r/cT5zty0XSdU42qWcdJjWBmkDecjdAzs/EZAg5aPwOq0glIP+nA9qzu+OsbQce/JGyI/KZ2LJSN/G9zJU7XdbQt20vyvjrSuzmm9XMl/012OH1c1LqylXGOCPWu7VmTb0hb9qCtd+pLm3XBV9+qlM23beRQRXcobTPndGqo3aGycfQtOk5LppCyLqrTVfKJsPfLft/EvRszJx/7flw6QO1PUR8zYn3ZugxmOkHrFI3igXwgNwAAAAAA8B7BTCcAAAAAAAAAgMaA0wkAAAAAAAAAoDHgdAIAAAAAAAAAaAw4nQAAAAAAAAAAGgMbCQEAAAAAAAAAaAzMdAIAAAAAAAAAaAw4nQAAAAAAAAAAGgNOJwAAAAAAAACAxoDTCQAAAAAAAACgMeB0AgAAAAAAAABoDDidAAAAAAAAAAAaA04nAAAAAAAAAIDGgNMJAAAAAAAAAKAx4HQCAAAAAAAAAGgMOJ0AAAAAAAAAABoDTicAAAAAAAAAgMaA0wkAAAAAAAAAoDHgdAIAAAAAAAAAaAw4nQAAAAAAAAAAGgNOJwAAAAAAAACAxoDTCQAAAAAAAACgMeB0AgAAAAAAAABoCCH+B4NiVoSwDttcAAAAAElFTkSuQmCC;" vertex="1" parent="1">
          <mxGeometry x="870" y="-2370" width="1186.31" height="740" as="geometry" />
        </mxCell>
      </root>
    </mxGraphModel>
  </diagram>
</mxfile>
